<svg version="1.1" viewBox="0.0 0.0 687.0419947506562 302.95800524934384" fill="none" stroke="none" stroke-linecap="square" stroke-miterlimit="10" xmlns:xlink="http://www.w3.org/1999/xlink" xmlns="http://www.w3.org/2000/svg"><clipPath id="p.0"><path d="m0 0l687.042 0l0 302.958l-687.042 0l0 -302.958z" clip-rule="nonzero"/></clipPath><g clip-path="url(#p.0)"><path fill="#000000" fill-opacity="0.0" d="m0 0l687.042 0l0 302.958l-687.042 0z" fill-rule="evenodd"/><path fill="#cfe2f3" d="m20.425198 20.007874l178.83464 0l0 64.944885l-178.83464 0z" fill-rule="evenodd"/><path stroke="#3d85c6" stroke-width="3.0" stroke-linejoin="round" stroke-linecap="butt" d="m20.425198 20.007874l178.83464 0l0 64.944885l-178.83464 0z" fill-rule="evenodd"/><path fill="#3d85c6" d="m51.832912 54.494064l2.609375 0.828125q-0.59375 2.1875 -2.0 3.25q-1.390625 1.0625 -3.546875 1.0625q-2.65625 0 -4.375 -1.8125q-1.703125 -1.828125 -1.703125 -4.984375q0 -3.328125 1.71875 -5.171875q1.71875 -1.84375 4.515625 -1.84375q2.453125 0 3.984375 1.4375q0.921875 0.859375 1.375 2.46875l-2.671875 0.640625q-0.234375 -1.046875 -0.984375 -1.640625q-0.75 -0.609375 -1.828125 -0.609375q-1.484375 0 -2.421875 1.078125q-0.921875 1.0625 -0.921875 3.4375q0 2.53125 0.90625 3.609375q0.921875 1.078125 2.375 1.078125q1.078125 0 1.84375 -0.671875q0.78125 -0.6875 1.125 -2.15625zm4.316696 -0.0625q0 -1.28125 0.625 -2.46875q0.625 -1.203125 1.78125 -1.828125q1.15625 -0.625 2.578125 -0.625q2.1875 0 3.5937462 1.421875q1.40625 1.421875 1.40625 3.609375q0 2.1875 -1.421875 3.640625q-1.4218712 1.4375 -3.5624962 1.4375q-1.328125 0 -2.546875 -0.59375q-1.203125 -0.609375 -1.828125 -1.765625q-0.625 -1.171875 -0.625 -2.828125zm2.625 0.125q0 1.453125 0.671875 2.21875q0.6875 0.75 1.6875 0.75q1.0 0 1.671875 -0.75q0.6875 -0.765625 0.6875 -2.234375q0 -1.421875 -0.6875 -2.1875q-0.671875 -0.765625 -1.671875 -0.765625q-1.0 0 -1.6875 0.765625q-0.671875 0.765625 -0.671875 2.203125zm18.161602 4.84375l-2.5625 0l0 -4.9375q0 -1.5625 -0.171875 -2.015625q-0.15625 -0.46875 -0.53125 -0.71875q-0.359375 -0.265625 -0.875 -0.265625q-0.671875 0 -1.203125 0.375q-0.53125 0.359375 -0.734375 0.96875q-0.1875 0.59375 -0.1875 2.21875l0 4.375l-2.546875 0l0 -9.671875l2.375 0l0 1.421875q1.265625 -1.640625 3.1875 -1.640625q0.84375 0 1.546875 0.3125q0.703125 0.296875 1.0625 0.78125q0.359375 0.46875 0.5 1.078125q0.140625 0.59375 0.140625 1.703125l0 6.015625zm11.036606 -6.8125l-2.53125 0.453125q-0.125 -0.75 -0.578125 -1.125q-0.453125 -0.390625 -1.171875 -0.390625q-0.953125 0 -1.53125 0.65625q-0.5625 0.65625 -0.5625 2.203125q0 1.734375 0.578125 2.4375q0.578125 0.703125 1.546875 0.703125q0.734375 0 1.203125 -0.40625q0.46875 -0.421875 0.65625 -1.421875l2.515625 0.421875q-0.390625 1.734375 -1.515625 2.625q-1.109375 0.875 -2.96875 0.875q-2.125 0 -3.390625 -1.328125q-1.25 -1.34375 -1.25 -3.71875q0 -2.390625 1.265625 -3.71875q1.265625 -1.34375 3.421875 -1.34375q1.765625 0 2.796875 0.765625q1.046875 0.75 1.515625 2.3125zm4.391342 6.8125l-2.5625 0l0 -9.671875l2.375 0l0 1.375q0.609375 -0.984375 1.09375 -1.28125q0.484375 -0.3125 1.109375 -0.3125q0.875 0 1.6875 0.484375l-0.796875 2.234375q-0.640625 -0.421875 -1.203125 -0.421875q-0.53125 0 -0.90625 0.296875q-0.375 0.296875 -0.59375 1.078125q-0.203125 0.765625 -0.203125 3.234375l0 2.984375zm10.400894 -3.078125l2.546875 0.421875q-0.484375 1.40625 -1.546875 2.140625q-1.0625 0.734375 -2.65625 0.734375q-2.515625 0 -3.734375 -1.65625q-0.953125 -1.3125 -0.953125 -3.328125q0 -2.40625 1.25 -3.765625q1.265625 -1.359375 3.1875 -1.359375q2.15625 0 3.40625 1.421875q1.25 1.421875 1.1875 4.375l-6.40625 0q0.03125 1.140625 0.609375 1.78125q0.59375 0.625 1.484375 0.625q0.59375 0 1.0 -0.328125q0.421875 -0.328125 0.625 -1.0625zm0.15625 -2.59375q-0.03125 -1.109375 -0.578125 -1.6875q-0.546875 -0.578125 -1.328125 -0.578125q-0.84375 0 -1.390625 0.609375q-0.546875 0.609375 -0.53125 1.65625l3.828125 0zm9.063217 -4.0l0 2.03125l-1.75 0l0 3.90625q0 1.1875 0.046875 1.390625q0.046875 0.1875 0.21875 0.3125q0.1875 0.125 0.4375 0.125q0.359375 0 1.03125 -0.25l0.21875 2.0q-0.890625 0.375 -2.015625 0.375q-0.703125 0 -1.265625 -0.234375q-0.546875 -0.234375 -0.8125 -0.59375q-0.25 -0.375 -0.34375 -1.0q-0.09375 -0.453125 -0.09375 -1.8125l0 -4.21875l-1.171875 0l0 -2.03125l1.171875 0l0 -1.921875l2.578125 -1.5l0 3.421875l1.75 0zm7.368927 6.59375l2.546875 0.421875q-0.484375 1.40625 -1.546875 2.140625q-1.0625 0.734375 -2.65625 0.734375q-2.515625 0 -3.734375 -1.65625q-0.953125 -1.3125 -0.953125 -3.328125q0 -2.40625 1.25 -3.765625q1.265625 -1.359375 3.1875 -1.359375q2.15625 0 3.40625 1.421875q1.25 1.421875 1.1875 4.375l-6.40625 0q0.03125 1.140625 0.609375 1.78125q0.59375 0.625 1.484375 0.625q0.59375 0 1.0 -0.328125q0.421875 -0.328125 0.625 -1.0625zm0.15625 -2.59375q-0.03125 -1.109375 -0.578125 -1.6875q-0.546875 -0.578125 -1.328125 -0.578125q-0.84375 0 -1.390625 0.609375q-0.546875 0.609375 -0.53125 1.65625l3.828125 0zm18.371529 0.765625l2.609375 0.828125q-0.59375 2.1875 -2.0 3.25q-1.390625 1.0625 -3.546875 1.0625q-2.65625 0 -4.375 -1.8125q-1.703125 -1.828125 -1.703125 -4.984375q0 -3.328125 1.71875 -5.171875q1.71875 -1.84375 4.515625 -1.84375q2.453125 0 3.984375 1.4375q0.921875 0.859375 1.375 2.46875l-2.671875 0.640625q-0.234375 -1.046875 -0.984375 -1.640625q-0.75 -0.609375 -1.828125 -0.609375q-1.484375 0 -2.421875 1.078125q-0.921875 1.0625 -0.921875 3.4375q0 2.53125 0.90625 3.609375q0.921875 1.078125 2.375 1.078125q1.078125 0 1.84375 -0.671875q0.78125 -0.6875 1.125 -2.15625zm4.910446 4.90625l0 -13.359375l2.5625 0l0 13.359375l-2.5625 0zm7.089554 -6.71875l-2.328125 -0.421875q0.40625 -1.40625 1.359375 -2.078125q0.953125 -0.671875 2.84375 -0.671875q1.703125 0 2.546875 0.40625q0.84375 0.40625 1.171875 1.03125q0.34375 0.625 0.34375 2.28125l-0.015625 3.0q0 1.265625 0.109375 1.875q0.125 0.609375 0.46875 1.296875l-2.53125 0q-0.109375 -0.25 -0.25 -0.75q-0.0625 -0.234375 -0.09375 -0.3125q-0.65625 0.640625 -1.40625 0.96875q-0.734375 0.3125 -1.59375 0.3125q-1.484375 0 -2.34375 -0.8125q-0.859375 -0.8125 -0.859375 -2.046875q0 -0.828125 0.390625 -1.46875q0.390625 -0.640625 1.09375 -0.96875q0.703125 -0.34375 2.03125 -0.609375q1.796875 -0.328125 2.484375 -0.625l0 -0.25q0 -0.75 -0.359375 -1.0625q-0.359375 -0.3125 -1.375 -0.3125q-0.6875 0 -1.078125 0.28125q-0.375 0.265625 -0.609375 0.9375zm3.421875 2.078125q-0.484375 0.15625 -1.5625 0.390625q-1.0625 0.21875 -1.390625 0.4375q-0.5 0.359375 -0.5 0.90625q0 0.53125 0.40625 0.9375q0.40625 0.390625 1.015625 0.390625q0.703125 0 1.328125 -0.46875q0.46875 -0.34375 0.609375 -0.84375q0.09375 -0.328125 0.09375 -1.25l0 -0.5zm4.141342 1.875l2.5625 -0.390625q0.171875 0.75 0.671875 1.140625q0.5 0.390625 1.40625 0.390625q0.984375 0 1.484375 -0.375q0.34375 -0.25 0.34375 -0.671875q0 -0.296875 -0.1875 -0.484375q-0.1875 -0.1875 -0.859375 -0.34375q-3.09375 -0.6875 -3.921875 -1.25q-1.140625 -0.78125 -1.140625 -2.171875q0 -1.265625 0.984375 -2.109375q1.0 -0.859375 3.078125 -0.859375q1.984375 0 2.953125 0.65625q0.96875 0.640625 1.328125 1.90625l-2.40625 0.4375q-0.15625 -0.5625 -0.59375 -0.859375q-0.421875 -0.296875 -1.234375 -0.296875q-1.0 0 -1.4375 0.28125q-0.296875 0.203125 -0.296875 0.515625q0 0.265625 0.25 0.46875q0.34375 0.25 2.390625 0.71875q2.046875 0.453125 2.859375 1.140625q0.796875 0.671875 0.796875 1.890625q0 1.34375 -1.109375 2.296875q-1.109375 0.953125 -3.28125 0.953125q-1.984375 0 -3.140625 -0.796875q-1.140625 -0.8125 -1.5 -2.1875zm10.375717 0l2.5625 -0.390625q0.171875 0.75 0.671875 1.140625q0.5 0.390625 1.40625 0.390625q0.984375 0 1.484375 -0.375q0.34375 -0.25 0.34375 -0.671875q0 -0.296875 -0.1875 -0.484375q-0.1875 -0.1875 -0.859375 -0.34375q-3.09375 -0.6875 -3.921875 -1.25q-1.140625 -0.78125 -1.140625 -2.171875q0 -1.265625 0.984375 -2.109375q1.0 -0.859375 3.078125 -0.859375q1.984375 0 2.953125 0.65625q0.96875 0.640625 1.328125 1.90625l-2.40625 0.4375q-0.15625 -0.5625 -0.59375 -0.859375q-0.421875 -0.296875 -1.234375 -0.296875q-1.0 0 -1.4375 0.28125q-0.296875 0.203125 -0.296875 0.515625q0 0.265625 0.25 0.46875q0.34375 0.25 2.390625 0.71875q2.046875 0.453125 2.859375 1.140625q0.796875 0.671875 0.796875 1.890625q0 1.34375 -1.109375 2.296875q-1.109375 0.953125 -3.28125 0.953125q-1.984375 0 -3.140625 -0.796875q-1.140625 -0.8125 -1.5 -2.1875z" fill-rule="nonzero"/><path fill="#d9ead3" d="m392.6299 20.007874l178.83463 0l0 64.944885l-178.83463 0z" fill-rule="evenodd"/><path stroke="#38761d" stroke-width="3.0" stroke-linejoin="round" stroke-linecap="butt" d="m392.6299 20.007874l178.83463 0l0 64.944885l-178.83463 0z" fill-rule="evenodd"/><path fill="#38761d" d="m443.625 48.400314l-2.9375 0l-1.171875 -3.03125l-5.328125 0l-1.109375 3.03125l-2.859375 0l5.203125 -13.359375l2.84375 0l5.359375 13.359375zm-4.96875 -5.28125l-1.84375 -4.953125l-1.796875 4.953125l3.640625 0zm6.2698364 5.28125l0 -13.359375l2.5625 0l0 4.8125q1.171875 -1.34375 2.796875 -1.34375q1.765625 0 2.921875 1.28125q1.15625 1.28125 1.15625 3.671875q0 2.484375 -1.1875 3.828125q-1.171875 1.328125 -2.859375 1.328125q-0.828125 0 -1.640625 -0.40625q-0.796875 -0.421875 -1.375 -1.234375l0 1.421875l-2.375 0zm2.53125 -5.046875q0 1.5 0.484375 2.21875q0.65625 1.03125 1.765625 1.03125q0.84375 0 1.4375 -0.71875q0.59375 -0.734375 0.59375 -2.296875q0 -1.65625 -0.609375 -2.390625q-0.59375 -0.734375 -1.53125 -0.734375q-0.921875 0 -1.53125 0.71875q-0.609375 0.71875 -0.609375 2.171875zm8.067841 2.28125l2.5625 -0.390625q0.171875 0.75 0.671875 1.140625q0.5 0.390625 1.40625 0.390625q0.984375 0 1.484375 -0.375q0.34375 -0.25 0.34375 -0.671875q0 -0.296875 -0.1875 -0.484375q-0.1875 -0.1875 -0.859375 -0.34375q-3.09375 -0.6875 -3.921875 -1.25q-1.140625 -0.78125 -1.140625 -2.171875q0 -1.265625 0.984375 -2.109375q1.0 -0.859375 3.078125 -0.859375q1.984375 0 2.953125 0.65625q0.96875 0.640625 1.328125 1.90625l-2.40625 0.4375q-0.15625 -0.5625 -0.59375 -0.859375q-0.421875 -0.296875 -1.234375 -0.296875q-1.0 0 -1.4375 0.28125q-0.296875 0.203125 -0.296875 0.515625q0 0.265625 0.25 0.46875q0.34375 0.25 2.390625 0.71875q2.046875 0.453125 2.859375 1.140625q0.796875 0.671875 0.796875 1.890625q0 1.34375 -1.109375 2.296875q-1.109375 0.953125 -3.28125 0.953125q-1.984375 0 -3.140625 -0.796875q-1.140625 -0.8125 -1.5 -2.1875zm15.719482 -6.90625l0 2.03125l-1.75 0l0 3.90625q0 1.1875 0.046875 1.390625q0.046875 0.1875 0.21875 0.3125q0.1875 0.125 0.4375 0.125q0.359375 0 1.03125 -0.25l0.21875 2.0q-0.890625 0.375 -2.015625 0.375q-0.703125 0 -1.265625 -0.234375q-0.546875 -0.234375 -0.8125 -0.59375q-0.25 -0.375 -0.34375 -1.0q-0.09375 -0.453125 -0.09375 -1.8125l0 -4.21875l-1.171875 0l0 -2.03125l1.171875 0l0 -1.921875l2.578125 -1.5l0 3.421875l1.75 0zm4.228302 9.671875l-2.5625 0l0 -9.671875l2.375 0l0 1.375q0.609375 -0.984375 1.09375 -1.28125q0.484375 -0.3125 1.109375 -0.3125q0.875 0 1.6875 0.484375l-0.796875 2.234375q-0.640625 -0.421875 -1.203125 -0.421875q-0.53125 0 -0.90625 0.296875q-0.375 0.296875 -0.59375 1.078125q-0.203125 0.765625 -0.203125 3.234375l0 2.984375zm6.713379 -6.71875l-2.328125 -0.421875q0.40625 -1.40625 1.359375 -2.078125q0.953125 -0.671875 2.84375 -0.671875q1.703125 0 2.546875 0.40625q0.84375 0.40625 1.171875 1.03125q0.34375 0.625 0.34375 2.28125l-0.015625 3.0q0 1.265625 0.109375 1.875q0.125 0.609375 0.46875 1.296875l-2.53125 0q-0.109375 -0.25 -0.25 -0.75q-0.0625 -0.234375 -0.09375 -0.3125q-0.65625 0.640625 -1.40625 0.96875q-0.734375 0.3125 -1.59375 0.3125q-1.484375 0 -2.34375 -0.8125q-0.859375 -0.8125 -0.859375 -2.046875q0 -0.828125 0.390625 -1.46875q0.390625 -0.640625 1.09375 -0.96875q0.703125 -0.34375 2.03125 -0.609375q1.796875 -0.328125 2.484375 -0.625l0 -0.25q0 -0.75 -0.359375 -1.0625q-0.359375 -0.3125 -1.375 -0.3125q-0.6875 0 -1.078125 0.28125q-0.375 0.265625 -0.609375 0.9375zm3.421875 2.078125q-0.484375 0.15625 -1.5625 0.390625q-1.0625 0.21875 -1.390625 0.4375q-0.5 0.359375 -0.5 0.90625q0 0.53125 0.40625 0.9375q0.40625 0.390625 1.015625 0.390625q0.703125 0 1.328125 -0.46875q0.46875 -0.34375 0.609375 -0.84375q0.09375 -0.328125 0.09375 -1.25l0 -0.5zm13.485107 -2.171875l-2.53125 0.453125q-0.125 -0.75 -0.578125 -1.125q-0.453125 -0.390625 -1.171875 -0.390625q-0.953125 0 -1.53125 0.65625q-0.5625 0.65625 -0.5625 2.203125q0 1.734375 0.578125 2.4375q0.578125 0.703125 1.546875 0.703125q0.734375 0 1.203125 -0.40625q0.46875 -0.421875 0.65625 -1.421875l2.515625 0.421875q-0.390625 1.734375 -1.515625 2.625q-1.109375 0.875 -2.96875 0.875q-2.125 0 -3.390625 -1.328125q-1.25 -1.34375 -1.25 -3.71875q0 -2.390625 1.265625 -3.71875q1.265625 -1.34375 3.421875 -1.34375q1.765625 0 2.796875 0.765625q1.046875 0.75 1.515625 2.3125zm6.375702 -2.859375l0 2.03125l-1.75 0l0 3.90625q0 1.1875 0.046875 1.390625q0.046875 0.1875 0.21875 0.3125q0.1875 0.125 0.4375 0.125q0.359375 0 1.03125 -0.25l0.21875 2.0q-0.890625 0.375 -2.015625 0.375q-0.703125 0 -1.265625 -0.234375q-0.546875 -0.234375 -0.8125 -0.59375q-0.25 -0.375 -0.34375 -1.0q-0.09375 -0.453125 -0.09375 -1.8125l0 -4.21875l-1.171875 0l0 -2.03125l1.171875 0l0 -1.921875l2.578125 -1.5l0 3.421875l1.75 0zm1.775177 -1.3125l0 -2.375l2.5625 0l0 2.375l-2.5625 0zm0 10.984375l0 -9.671875l2.5625 0l0 9.671875l-2.5625 0zm4.589569 -4.96875q0 -1.28125 0.6249695 -2.46875q0.625 -1.203125 1.78125 -1.828125q1.15625 -0.625 2.578125 -0.625q2.1875 0 3.59375 1.421875q1.40625 1.421875 1.40625 3.609375q0 2.1875 -1.421875 3.640625q-1.421875 1.4375 -3.5625 1.4375q-1.328125 0 -2.546875 -0.59375q-1.203125 -0.609375 -1.828125 -1.765625q-0.6249695 -1.171875 -0.6249695 -2.828125zm2.6249695 0.125q0 1.453125 0.671875 2.21875q0.6875 0.75 1.6875 0.75q1.0 0 1.671875 -0.75q0.6875 -0.765625 0.6875 -2.234375q0 -1.421875 -0.6875 -2.1875q-0.671875 -0.765625 -1.671875 -0.765625q-1.0 0 -1.6875 0.765625q-0.671875 0.765625 -0.671875 2.203125zm18.161621 4.84375l-2.5625 0l0 -4.9375q0 -1.5625 -0.171875 -2.015625q-0.15625 -0.46875 -0.53125 -0.71875q-0.359375 -0.265625 -0.875 -0.265625q-0.671875 0 -1.203125 0.375q-0.53125 0.359375 -0.734375 0.96875q-0.1875 0.59375 -0.1875 2.21875l0 4.375l-2.546875 0l0 -9.671875l2.375 0l0 1.421875q1.265625 -1.640625 3.1875 -1.640625q0.84375 0 1.546875 0.3125q0.703125 0.296875 1.0625 0.78125q0.359375 0.46875 0.5 1.078125q0.140625 0.59375 0.140625 1.703125l0 6.015625z" fill-rule="nonzero"/><path fill="#38761d" d="m442.5288 74.32219l-1.75 0q-1.390625 -2.09375 -2.125 -4.359375q-0.734375 -2.28125 -0.734375 -4.40625q0 -2.625 0.90625 -4.96875q0.78125 -2.046875 1.984375 -3.765625l1.75 0q-1.25 2.75 -1.71875 4.6875q-0.46875 1.9375 -0.46875 4.109375q0 1.5 0.28125 3.0625q0.28125 1.5625 0.765625 2.96875q0.3125 0.9375 1.109375 2.671875zm1.978302 -14.90625l0 -2.375l2.5625 0l0 2.375l-2.5625 0zm0 10.984375l0 -9.671875l2.5625 0l0 9.671875l-2.5625 0zm13.980164 0l-2.5625 0l0 -4.9375q0 -1.5625 -0.171875 -2.015625q-0.15625 -0.46875 -0.53125 -0.71875q-0.359375 -0.265625 -0.875 -0.265625q-0.671875 0 -1.203125 0.375q-0.53125 0.359375 -0.734375 0.96875q-0.1875 0.59375 -0.1875 2.21875l0 4.375l-2.546875 0l0 -9.671875l2.375 0l0 1.421875q1.265625 -1.640625 3.1875 -1.640625q0.84375 0 1.546875 0.3125q0.703125 0.296875 1.0625 0.78125q0.359375 0.46875 0.5 1.078125q0.140625 0.59375 0.140625 1.703125l0 6.015625zm7.036621 -9.671875l0 2.03125l-1.75 0l0 3.90625q0 1.1875 0.046875 1.390625q0.046875 0.1875 0.21875 0.3125q0.1875 0.125 0.4375 0.125q0.359375 0 1.03125 -0.25l0.21875 2.0q-0.890625 0.375 -2.015625 0.375q-0.703125 0 -1.265625 -0.234375q-0.546875 -0.234375 -0.8125 -0.59375q-0.25 -0.375 -0.34375 -1.0q-0.09375 -0.453125 -0.09375 -1.8125l0 -4.21875l-1.171875 0l0 -2.03125l1.171875 0l0 -1.921875l2.578125 -1.5l0 3.421875l1.75 0zm7.368927 6.59375l2.546875 0.421875q-0.484375 1.40625 -1.546875 2.140625q-1.0625 0.734375 -2.65625 0.734375q-2.515625 0 -3.734375 -1.65625q-0.953125 -1.3125 -0.953125 -3.328125q0 -2.40625 1.25 -3.765625q1.265625 -1.359375 3.1875 -1.359375q2.15625 0 3.40625 1.421875q1.25 1.421875 1.1875 4.375l-6.40625 0q0.03125 1.140625 0.609375 1.78125q0.59375 0.625 1.484375 0.625q0.59375 0 1.0 -0.328125q0.421875 -0.328125 0.625 -1.0625zm0.15625 -2.59375q-0.03125 -1.109375 -0.578125 -1.6875q-0.546875 -0.578125 -1.328125 -0.578125q-0.84375 0 -1.390625 0.609375q-0.546875 0.609375 -0.53125 1.65625l3.828125 0zm7.078827 5.671875l-2.5625 0l0 -9.671875l2.375 0l0 1.375q0.609375 -0.984375 1.09375 -1.28125q0.484375 -0.3125 1.109375 -0.3125q0.875 0 1.6875 0.484375l-0.796875 2.234375q-0.640625 -0.421875 -1.203125 -0.421875q-0.53125 0 -0.90625 0.296875q-0.375 0.296875 -0.59375 1.078125q-0.203125 0.765625 -0.203125 3.234375l0 2.984375zm3.6821594 -9.671875l1.421875 0l0 -0.734375q0 -1.21875 0.25 -1.8125q0.265625 -0.609375 0.953125 -0.984375q0.703125 -0.375 1.78125 -0.375q1.09375 0 2.140625 0.328125l-0.359375 1.78125q-0.609375 -0.140625 -1.171875 -0.140625q-0.546875 0 -0.796875 0.265625q-0.234375 0.25 -0.234375 0.984375l0 0.6875l1.90625 0l0 2.015625l-1.90625 0l0 7.65625l-2.5625 0l0 -7.65625l-1.421875 0l0 -2.015625zm9.243927 2.953125l-2.328125 -0.421875q0.40625 -1.40625 1.359375 -2.078125q0.953125 -0.671875 2.84375 -0.671875q1.703125 0 2.546875 0.40625q0.84375 0.40625 1.171875 1.03125q0.34375 0.625 0.34375 2.28125l-0.015625 3.0q0 1.265625 0.109375 1.875q0.125 0.609375 0.46875 1.296875l-2.53125 0q-0.109375 -0.25 -0.25 -0.75q-0.0625 -0.234375 -0.09375 -0.3125q-0.65625 0.640625 -1.40625 0.96875q-0.734375 0.3125 -1.59375 0.3125q-1.484375 0 -2.34375 -0.8125q-0.859375 -0.8125 -0.859375 -2.046875q0 -0.828125 0.390625 -1.46875q0.390625 -0.640625 1.09375 -0.96875q0.703125 -0.34375 2.03125 -0.609375q1.796875 -0.328125 2.484375 -0.625l0 -0.25q0 -0.75 -0.359375 -1.0625q-0.359375 -0.3125 -1.375 -0.3125q-0.6875 0 -1.078125 0.28125q-0.375 0.265625 -0.609375 0.9375zm3.421875 2.078125q-0.484375 0.15625 -1.5625 0.390625q-1.0625 0.21875 -1.390625 0.4375q-0.5 0.359375 -0.5 0.90625q0 0.53125 0.40625 0.9375q0.40625 0.390625 1.015625 0.390625q0.703125 0 1.328125 -0.46875q0.46875 -0.34375 0.609375 -0.84375q0.09375 -0.328125 0.09375 -1.25l0 -0.5zm13.485077 -2.171875l-2.53125 0.453125q-0.125 -0.75 -0.578125 -1.125q-0.453125 -0.390625 -1.171875 -0.390625q-0.953125 0 -1.53125 0.65625q-0.5625 0.65625 -0.5625 2.203125q0 1.734375 0.578125 2.4375q0.578125 0.703125 1.546875 0.703125q0.734375 0 1.203125 -0.40625q0.46875 -0.421875 0.65625 -1.421875l2.515625 0.421875q-0.390625 1.734375 -1.515625 2.625q-1.109375 0.875 -2.96875 0.875q-2.125 0 -3.390625 -1.328125q-1.25 -1.34375 -1.25 -3.71875q0 -2.390625 1.265625 -3.71875q1.265625 -1.34375 3.421875 -1.34375q1.765625 0 2.796875 0.765625q1.046875 0.75 1.515625 2.3125zm7.5319824 3.734375l2.546875 0.421875q-0.484375 1.40625 -1.546875 2.140625q-1.0625 0.734375 -2.65625 0.734375q-2.515625 0 -3.734375 -1.65625q-0.953125 -1.3125 -0.953125 -3.328125q0 -2.40625 1.25 -3.765625q1.265625 -1.359375 3.1875 -1.359375q2.15625 0 3.40625 1.421875q1.25 1.421875 1.1875 4.375l-6.40625 0q0.03125 1.140625 0.609375 1.78125q0.59375 0.625 1.484375 0.625q0.59375 0 1.0 -0.328125q0.421875 -0.328125 0.625 -1.0625zm0.15625 -2.59375q-0.03125 -1.109375 -0.578125 -1.6875q-0.546875 -0.578125 -1.328125 -0.578125q-0.84375 0 -1.390625 0.609375q-0.546875 0.609375 -0.53125 1.65625l3.828125 0zm3.9069824 9.59375q0.765625 -1.609375 1.0625 -2.484375q0.3125 -0.859375 0.578125 -1.984375q0.265625 -1.140625 0.390625 -2.15625q0.125 -1.015625 0.125 -2.078125q0 -2.171875 -0.46875 -4.109375q-0.453125 -1.9375 -1.703125 -4.6875l1.734375 0q1.375 1.953125 2.140625 4.15625q0.765625 2.1875 0.765625 4.453125q0 1.90625 -0.609375 4.078125q-0.671875 2.4375 -2.25 4.8125l-1.765625 0z" fill-rule="nonzero"/><path fill="#000000" fill-opacity="0.0" d="m199.25984 52.480316l193.38582 0" fill-rule="evenodd"/><path stroke="#3d85c6" stroke-width="3.0" stroke-linejoin="round" stroke-linecap="butt" d="m199.25984 52.480316l183.10457 0" fill-rule="evenodd"/><path fill="#3d85c6" stroke="#3d85c6" stroke-width="3.0" stroke-linecap="butt" d="m382.3644 52.480316l-3.3737488 3.3737488l9.269287 -3.3737488l-9.269287 -3.3737526z" fill-rule="evenodd"/><path fill="#cfe2f3" d="m301.3071 213.32545l106.11023 0l0 64.9449l-106.11023 0z" fill-rule="evenodd"/><path stroke="#3d85c6" stroke-width="3.0" stroke-linejoin="round" stroke-linecap="butt" d="m301.3071 213.32545l106.11023 0l0 64.9449l-106.11023 0z" fill-rule="evenodd"/><path fill="#3d85c6" d="m323.83594 236.81165l2.609375 0.828125q-0.59375 2.1875 -2.0 3.25q-1.390625 1.0625 -3.546875 1.0625q-2.65625 0 -4.375 -1.8125q-1.703125 -1.828125 -1.703125 -4.984375q0 -3.328125 1.71875 -5.171875q1.71875 -1.84375 4.515625 -1.84375q2.453125 0 3.984375 1.4375q0.921875 0.859375 1.375 2.46875l-2.671875 0.640625q-0.234375 -1.046875 -0.984375 -1.640625q-0.75 -0.609375 -1.828125 -0.609375q-1.484375 0 -2.421875 1.078125q-0.921875 1.0625 -0.921875 3.4375q0 2.53125 0.90625 3.609375q0.921875 1.078125 2.375 1.078125q1.078125 0 1.84375 -0.671875q0.78125 -0.6875 1.125 -2.15625zm4.3167114 -0.0625q0 -1.28125 0.625 -2.46875q0.625 -1.203125 1.78125 -1.828125q1.15625 -0.625 2.578125 -0.625q2.1875 0 3.59375 1.421875q1.40625 1.421875 1.40625 3.609375q0 2.1875 -1.421875 3.640625q-1.421875 1.4375 -3.5625 1.4375q-1.328125 0 -2.546875 -0.59375q-1.203125 -0.609375 -1.828125 -1.765625q-0.625 -1.171875 -0.625 -2.828125zm2.625 0.125q0 1.453125 0.671875 2.21875q0.6875 0.75 1.6875 0.75q1.0 0 1.671875 -0.75q0.6875 -0.765625 0.6875 -2.234375q0 -1.421875 -0.6875 -2.1875q-0.671875 -0.765625 -1.671875 -0.765625q-1.0 0 -1.6875 0.765625q-0.671875 0.765625 -0.671875 2.203125zm18.16159 4.84375l-2.5625 0l0 -4.9375q0 -1.5625 -0.171875 -2.015625q-0.15625 -0.46875 -0.53125 -0.71875q-0.359375 -0.265625 -0.875 -0.265625q-0.671875 0 -1.203125 0.375q-0.53125 0.359375 -0.734375 0.96875q-0.1875 0.59375 -0.1875 2.21875l0 4.375l-2.546875 0l0 -9.671875l2.375 0l0 1.421875q1.265625 -1.640625 3.1875 -1.640625q0.84375 0 1.546875 0.3125q0.703125 0.296875 1.0625 0.78125q0.359375 0.46875 0.5 1.078125q0.140625 0.59375 0.140625 1.703125l0 6.015625zm11.036621 -6.8125l-2.53125 0.453125q-0.125 -0.75 -0.578125 -1.125q-0.453125 -0.390625 -1.171875 -0.390625q-0.953125 0 -1.53125 0.65625q-0.5625 0.65625 -0.5625 2.203125q0 1.734375 0.578125 2.4375q0.578125 0.703125 1.546875 0.703125q0.734375 0 1.203125 -0.40625q0.46875 -0.421875 0.65625 -1.421875l2.515625 0.421875q-0.390625 1.734375 -1.515625 2.625q-1.109375 0.875 -2.96875 0.875q-2.125 0 -3.390625 -1.328125q-1.25 -1.34375 -1.25 -3.71875q0 -2.390625 1.265625 -3.71875q1.265625 -1.34375 3.421875 -1.34375q1.765625 0 2.796875 0.765625q1.046875 0.75 1.515625 2.3125zm4.391327 6.8125l-2.5625 0l0 -9.671875l2.375 0l0 1.375q0.609375 -0.984375 1.09375 -1.28125q0.48440552 -0.3125 1.1094055 -0.3125q0.875 0 1.6875 0.484375l-0.796875 2.234375q-0.640625 -0.421875 -1.203125 -0.421875q-0.53125 0 -0.9062805 0.296875q-0.375 0.296875 -0.59375 1.078125q-0.203125 0.765625 -0.203125 3.234375l0 2.984375zm10.400909 -3.078125l2.546875 0.421875q-0.484375 1.40625 -1.546875 2.140625q-1.0625 0.734375 -2.65625 0.734375q-2.515625 0 -3.734375 -1.65625q-0.953125 -1.3125 -0.953125 -3.328125q0 -2.40625 1.25 -3.765625q1.265625 -1.359375 3.1875 -1.359375q2.15625 0 3.40625 1.421875q1.25 1.421875 1.1875 4.375l-6.40625 0q0.03125 1.140625 0.609375 1.78125q0.59375 0.625 1.484375 0.625q0.59375 0 1.0 -0.328125q0.421875 -0.328125 0.625 -1.0625zm0.15625 -2.59375q-0.03125 -1.109375 -0.578125 -1.6875q-0.546875 -0.578125 -1.328125 -0.578125q-0.84375 0 -1.390625 0.609375q-0.546875 0.609375 -0.53125 1.65625l3.828125 0zm9.063232 -4.0l0 2.03125l-1.75 0l0 3.90625q0 1.1875 0.046875 1.390625q0.046875 0.1875 0.21875 0.3125q0.1875 0.125 0.4375 0.125q0.359375 0 1.03125 -0.25l0.21875 2.0q-0.890625 0.375 -2.015625 0.375q-0.703125 0 -1.265625 -0.234375q-0.546875 -0.234375 -0.8125 -0.59375q-0.25 -0.375 -0.34375 -1.0q-0.09375 -0.453125 -0.09375 -1.8125l0 -4.21875l-1.171875 0l0 -2.03125l1.171875 0l0 -1.921875l2.578125 -1.5l0 3.421875l1.75 0zm7.368927 6.59375l2.546875 0.421875q-0.484375 1.40625 -1.546875 2.140625q-1.0625 0.734375 -2.65625 0.734375q-2.515625 0 -3.734375 -1.65625q-0.953125 -1.3125 -0.953125 -3.328125q0 -2.40625 1.25 -3.765625q1.265625 -1.359375 3.1875 -1.359375q2.15625 0 3.40625 1.421875q1.25 1.421875 1.1875 4.375l-6.40625 0q0.03125 1.140625 0.609375 1.78125q0.59375 0.625 1.484375 0.625q0.59375 0 1.0 -0.328125q0.421875 -0.328125 0.625 -1.0625zm0.15625 -2.59375q-0.03125 -1.109375 -0.578125 -1.6875q-0.546875 -0.578125 -1.328125 -0.578125q-0.84375 0 -1.390625 0.609375q-0.546875 0.609375 -0.53125 1.65625l3.828125 0z" fill-rule="nonzero"/><path fill="#3d85c6" d="m339.37674 258.81165l2.609375 0.828125q-0.59375 2.1875 -2.0 3.25q-1.390625 1.0625 -3.546875 1.0625q-2.65625 0 -4.375 -1.8125q-1.703125 -1.828125 -1.703125 -4.984375q0 -3.328125 1.71875 -5.171875q1.71875 -1.84375 4.515625 -1.84375q2.453125 0 3.984375 1.4375q0.921875 0.859375 1.375 2.46875l-2.671875 0.640625q-0.234375 -1.046875 -0.984375 -1.640625q-0.75 -0.609375 -1.828125 -0.609375q-1.484375 0 -2.421875 1.078125q-0.921875 1.0625 -0.921875 3.4375q0 2.53125 0.90625 3.609375q0.921875 1.078125 2.375 1.078125q1.078125 0 1.84375 -0.671875q0.78125 -0.6875 1.125 -2.15625zm4.9104614 4.90625l0 -13.359375l2.5625 0l0 13.359375l-2.5625 0zm7.0895386 -6.71875l-2.328125 -0.421875q0.40625 -1.40625 1.359375 -2.078125q0.953125 -0.671875 2.84375 -0.671875q1.703125 0 2.546875 0.40625q0.84375 0.40625 1.171875 1.03125q0.34375 0.625 0.34375 2.28125l-0.015625 3.0q0 1.265625 0.109375 1.875q0.125 0.609375 0.46875 1.296875l-2.53125 0q-0.109375 -0.25 -0.25 -0.75q-0.0625 -0.234375 -0.09375 -0.3125q-0.65625 0.640625 -1.40625 0.96875q-0.734375 0.3125 -1.59375 0.3125q-1.484375 0 -2.34375 -0.8125q-0.859375 -0.8125 -0.859375 -2.046875q0 -0.828125 0.390625 -1.46875q0.390625 -0.640625 1.09375 -0.96875q0.703125 -0.34375 2.03125 -0.609375q1.796875 -0.328125 2.484375 -0.625l0 -0.25q0 -0.75 -0.359375 -1.0625q-0.359375 -0.3125 -1.375 -0.3125q-0.6875 0 -1.078125 0.28125q-0.375 0.265625 -0.609375 0.9375zm3.421875 2.078125q-0.484375 0.15625 -1.5625 0.390625q-1.0625 0.21875 -1.390625 0.4375q-0.5 0.359375 -0.5 0.90625q0 0.53125 0.40625 0.9375q0.40625 0.390625 1.015625 0.390625q0.703125 0 1.328125 -0.46875q0.46875 -0.34375 0.609375 -0.84375q0.09375 -0.328125 0.09375 -1.25l0 -0.5zm4.1413574 1.875l2.5625 -0.390625q0.171875 0.75 0.671875 1.140625q0.5 0.390625 1.40625 0.390625q0.984375 0 1.484375 -0.375q0.34375 -0.25 0.34375 -0.671875q0 -0.296875 -0.1875 -0.484375q-0.1875 -0.1875 -0.859375 -0.34375q-3.09375 -0.6875 -3.921875 -1.25q-1.140625 -0.78125 -1.140625 -2.171875q0 -1.265625 0.984375 -2.109375q1.0 -0.859375 3.078125 -0.859375q1.984375 0 2.953125 0.65625q0.96875 0.640625 1.328125 1.90625l-2.40625 0.4375q-0.15625 -0.5625 -0.59375 -0.859375q-0.421875 -0.296875 -1.234375 -0.296875q-1.0 0 -1.4375 0.28125q-0.296875 0.203125 -0.296875 0.515625q0 0.265625 0.25 0.46875q0.34375 0.25 2.390625 0.71875q2.046875 0.453125 2.859375 1.140625q0.796875 0.671875 0.796875 1.890625q0 1.34375 -1.109375 2.296875q-1.109375 0.953125 -3.28125 0.953125q-1.984375 0 -3.140625 -0.796875q-1.140625 -0.8125 -1.5 -2.1875zm10.375732 0l2.5625 -0.390625q0.171875 0.75 0.671875 1.140625q0.5 0.390625 1.40625 0.390625q0.984375 0 1.484375 -0.375q0.34375 -0.25 0.34375 -0.671875q0 -0.296875 -0.1875 -0.484375q-0.1875 -0.1875 -0.859375 -0.34375q-3.09375 -0.6875 -3.921875 -1.25q-1.140625 -0.78125 -1.140625 -2.171875q0 -1.265625 0.984375 -2.109375q1.0 -0.859375 3.078125 -0.859375q1.984375 0 2.953125 0.65625q0.96875 0.640625 1.328125 1.90625l-2.40625 0.4375q-0.15625 -0.5625 -0.59375 -0.859375q-0.421875 -0.296875 -1.234375 -0.296875q-1.0 0 -1.4375 0.28125q-0.296875 0.203125 -0.296875 0.515625q0 0.265625 0.25 0.46875q0.34375 0.25 2.390625 0.71875q2.046875 0.453125 2.859375 1.140625q0.796875 0.671875 0.796875 1.890625q0 1.34375 -1.109375 2.296875q-1.109375 0.953125 -3.28125 0.953125q-1.984375 0 -3.140625 -0.796875q-1.140625 -0.8125 -1.5 -2.1875z" fill-rule="nonzero"/><path fill="#cfe2f3" d="m428.99213 213.32545l106.11023 0l0 64.9449l-106.11023 0z" fill-rule="evenodd"/><path stroke="#3d85c6" stroke-width="3.0" stroke-linejoin="round" stroke-linecap="butt" d="m428.99213 213.32545l106.11023 0l0 64.9449l-106.11023 0z" fill-rule="evenodd"/><path fill="#3d85c6" d="m451.521 236.81165l2.609375 0.828125q-0.59375 2.1875 -2.0 3.25q-1.390625 1.0625 -3.546875 1.0625q-2.65625 0 -4.375 -1.8125q-1.703125 -1.828125 -1.703125 -4.984375q0 -3.328125 1.71875 -5.171875q1.71875 -1.84375 4.515625 -1.84375q2.453125 0 3.984375 1.4375q0.921875 0.859375 1.375 2.46875l-2.671875 0.640625q-0.234375 -1.046875 -0.984375 -1.640625q-0.75 -0.609375 -1.828125 -0.609375q-1.484375 0 -2.421875 1.078125q-0.921875 1.0625 -0.921875 3.4375q0 2.53125 0.90625 3.609375q0.921875 1.078125 2.375 1.078125q1.078125 0 1.84375 -0.671875q0.78125 -0.6875 1.125 -2.15625zm4.316681 -0.0625q0 -1.28125 0.625 -2.46875q0.625 -1.203125 1.78125 -1.828125q1.15625 -0.625 2.578125 -0.625q2.1875 0 3.59375 1.421875q1.40625 1.421875 1.40625 3.609375q0 2.1875 -1.421875 3.640625q-1.421875 1.4375 -3.5625 1.4375q-1.328125 0 -2.546875 -0.59375q-1.203125 -0.609375 -1.828125 -1.765625q-0.625 -1.171875 -0.625 -2.828125zm2.625 0.125q0 1.453125 0.671875 2.21875q0.6875 0.75 1.6875 0.75q1.0 0 1.671875 -0.75q0.6875 -0.765625 0.6875 -2.234375q0 -1.421875 -0.6875 -2.1875q-0.671875 -0.765625 -1.671875 -0.765625q-1.0 0 -1.6875 0.765625q-0.671875 0.765625 -0.671875 2.203125zm18.161621 4.84375l-2.5625 0l0 -4.9375q0 -1.5625 -0.171875 -2.015625q-0.15625 -0.46875 -0.53125 -0.71875q-0.359375 -0.265625 -0.875 -0.265625q-0.671875 0 -1.203125 0.375q-0.53125 0.359375 -0.734375 0.96875q-0.1875 0.59375 -0.1875 2.21875l0 4.375l-2.546875 0l0 -9.671875l2.375 0l0 1.421875q1.265625 -1.640625 3.1875 -1.640625q0.84375 0 1.546875 0.3125q0.703125 0.296875 1.0625 0.78125q0.359375 0.46875 0.5 1.078125q0.140625 0.59375 0.140625 1.703125l0 6.015625zm11.036591 -6.8125l-2.53125 0.453125q-0.125 -0.75 -0.578125 -1.125q-0.453125 -0.390625 -1.171875 -0.390625q-0.953125 0 -1.53125 0.65625q-0.5625 0.65625 -0.5625 2.203125q0 1.734375 0.578125 2.4375q0.578125 0.703125 1.546875 0.703125q0.734375 0 1.203125 -0.40625q0.46875 -0.421875 0.65625 -1.421875l2.515625 0.421875q-0.390625 1.734375 -1.515625 2.625q-1.109375 0.875 -2.96875 0.875q-2.125 0 -3.390625 -1.328125q-1.25 -1.34375 -1.25 -3.71875q0 -2.390625 1.265625 -3.71875q1.265625 -1.34375 3.421875 -1.34375q1.765625 0 2.796875 0.765625q1.046875 0.75 1.515625 2.3125zm4.3913574 6.8125l-2.5625 0l0 -9.671875l2.375 0l0 1.375q0.609375 -0.984375 1.09375 -1.28125q0.484375 -0.3125 1.109375 -0.3125q0.875 0 1.6875 0.484375l-0.796875 2.234375q-0.640625 -0.421875 -1.203125 -0.421875q-0.53125 0 -0.90625 0.296875q-0.375 0.296875 -0.59375 1.078125q-0.203125 0.765625 -0.203125 3.234375l0 2.984375zm10.400879 -3.078125l2.546875 0.421875q-0.484375 1.40625 -1.546875 2.140625q-1.0625 0.734375 -2.65625 0.734375q-2.515625 0 -3.734375 -1.65625q-0.953125 -1.3125 -0.953125 -3.328125q0 -2.40625 1.25 -3.765625q1.265625 -1.359375 3.1875 -1.359375q2.15625 0 3.40625 1.421875q1.25 1.421875 1.1875 4.375l-6.40625 0q0.03125 1.140625 0.609375 1.78125q0.59375 0.625 1.484375 0.625q0.59375 0 1.0 -0.328125q0.421875 -0.328125 0.625 -1.0625zm0.15625 -2.59375q-0.03125 -1.109375 -0.578125 -1.6875q-0.546875 -0.578125 -1.328125 -0.578125q-0.84375 0 -1.390625 0.609375q-0.546875 0.609375 -0.53125 1.65625l3.828125 0zm9.063232 -4.0l0 2.03125l-1.75 0l0 3.90625q0 1.1875 0.046875 1.390625q0.046875 0.1875 0.21875 0.3125q0.1875 0.125 0.4375 0.125q0.359375 0 1.03125 -0.25l0.21875 2.0q-0.890625 0.375 -2.015625 0.375q-0.703125 0 -1.265625 -0.234375q-0.546875 -0.234375 -0.8125 -0.59375q-0.25 -0.375 -0.34375 -1.0q-0.09375 -0.453125 -0.09375 -1.8125l0 -4.21875l-1.171875 0l0 -2.03125l1.171875 0l0 -1.921875l2.578125 -1.5l0 3.421875l1.75 0zm7.3688965 6.59375l2.546875 0.421875q-0.484375 1.40625 -1.546875 2.140625q-1.0625 0.734375 -2.65625 0.734375q-2.515625 0 -3.734375 -1.65625q-0.953125 -1.3125 -0.953125 -3.328125q0 -2.40625 1.25 -3.765625q1.265625 -1.359375 3.1875 -1.359375q2.15625 0 3.40625 1.421875q1.25 1.421875 1.1875 4.375l-6.40625 0q0.03125 1.140625 0.609375 1.78125q0.59375 0.625 1.484375 0.625q0.59375 0 1.0 -0.328125q0.421875 -0.328125 0.625 -1.0625zm0.15625 -2.59375q-0.03125 -1.109375 -0.578125 -1.6875q-0.546875 -0.578125 -1.328125 -0.578125q-0.84375 0 -1.390625 0.609375q-0.546875 0.609375 -0.53125 1.65625l3.828125 0z" fill-rule="nonzero"/><path fill="#3d85c6" d="m467.0618 258.81165l2.609375 0.828125q-0.59375 2.1875 -2.0 3.25q-1.390625 1.0625 -3.546875 1.0625q-2.65625 0 -4.375 -1.8125q-1.703125 -1.828125 -1.703125 -4.984375q0 -3.328125 1.71875 -5.171875q1.71875 -1.84375 4.515625 -1.84375q2.453125 0 3.984375 1.4375q0.921875 0.859375 1.375 2.46875l-2.671875 0.640625q-0.234375 -1.046875 -0.984375 -1.640625q-0.75 -0.609375 -1.828125 -0.609375q-1.484375 0 -2.421875 1.078125q-0.921875 1.0625 -0.921875 3.4375q0 2.53125 0.90625 3.609375q0.921875 1.078125 2.375 1.078125q1.078125 0 1.84375 -0.671875q0.78125 -0.6875 1.125 -2.15625zm4.910431 4.90625l0 -13.359375l2.5625 0l0 13.359375l-2.5625 0zm7.089569 -6.71875l-2.328125 -0.421875q0.40625 -1.40625 1.359375 -2.078125q0.953125 -0.671875 2.84375 -0.671875q1.703125 0 2.546875 0.40625q0.84375 0.40625 1.171875 1.03125q0.34375 0.625 0.34375 2.28125l-0.015625 3.0q0 1.265625 0.109375 1.875q0.125 0.609375 0.46875 1.296875l-2.53125 0q-0.109375 -0.25 -0.25 -0.75q-0.0625 -0.234375 -0.09375 -0.3125q-0.65625 0.640625 -1.40625 0.96875q-0.734375 0.3125 -1.59375 0.3125q-1.484375 0 -2.34375 -0.8125q-0.859375 -0.8125 -0.859375 -2.046875q0 -0.828125 0.390625 -1.46875q0.390625 -0.640625 1.09375 -0.96875q0.703125 -0.34375 2.03125 -0.609375q1.796875 -0.328125 2.484375 -0.625l0 -0.25q0 -0.75 -0.359375 -1.0625q-0.359375 -0.3125 -1.375 -0.3125q-0.6875 0 -1.078125 0.28125q-0.375 0.265625 -0.609375 0.9375zm3.421875 2.078125q-0.484375 0.15625 -1.5625 0.390625q-1.0625 0.21875 -1.390625 0.4375q-0.5 0.359375 -0.5 0.90625q0 0.53125 0.40625 0.9375q0.40625 0.390625 1.015625 0.390625q0.703125 0 1.328125 -0.46875q0.46875 -0.34375 0.609375 -0.84375q0.09375 -0.328125 0.09375 -1.25l0 -0.5zm4.141327 1.875l2.5625 -0.390625q0.171875 0.75 0.671875 1.140625q0.5 0.390625 1.40625 0.390625q0.984375 0 1.484375 -0.375q0.34375 -0.25 0.34375 -0.671875q0 -0.296875 -0.1875 -0.484375q-0.1875 -0.1875 -0.859375 -0.34375q-3.09375 -0.6875 -3.921875 -1.25q-1.140625 -0.78125 -1.140625 -2.171875q0 -1.265625 0.984375 -2.109375q1.0 -0.859375 3.078125 -0.859375q1.984375 0 2.953125 0.65625q0.96875 0.640625 1.328125 1.90625l-2.40625 0.4375q-0.15625 -0.5625 -0.59375 -0.859375q-0.421875 -0.296875 -1.234375 -0.296875q-1.0 0 -1.4375 0.28125q-0.296875 0.203125 -0.296875 0.515625q0 0.265625 0.25 0.46875q0.34375 0.25 2.390625 0.71875q2.046875 0.453125 2.859375 1.140625q0.796875 0.671875 0.796875 1.890625q0 1.34375 -1.109375 2.296875q-1.109375 0.953125 -3.28125 0.953125q-1.984375 0 -3.140625 -0.796875q-1.140625 -0.8125 -1.5 -2.1875zm10.375732 0l2.5625 -0.390625q0.171875 0.75 0.671875 1.140625q0.5 0.390625 1.40625 0.390625q0.984375 0 1.484375 -0.375q0.34375 -0.25 0.34375 -0.671875q0 -0.296875 -0.1875 -0.484375q-0.1875 -0.1875 -0.859375 -0.34375q-3.09375 -0.6875 -3.921875 -1.25q-1.140625 -0.78125 -1.140625 -2.171875q0 -1.265625 0.984375 -2.109375q1.0 -0.859375 3.078125 -0.859375q1.984375 0 2.953125 0.65625q0.96875 0.640625 1.328125 1.90625l-2.40625 0.4375q-0.15625 -0.5625 -0.59375 -0.859375q-0.421875 -0.296875 -1.234375 -0.296875q-1.0 0 -1.4375 0.28125q-0.296875 0.203125 -0.296875 0.515625q0 0.265625 0.25 0.46875q0.34375 0.25 2.390625 0.71875q2.046875 0.453125 2.859375 1.140625q0.796875 0.671875 0.796875 1.890625q0 1.34375 -1.109375 2.296875q-1.109375 0.953125 -3.28125 0.953125q-1.984375 0 -3.140625 -0.796875q-1.140625 -0.8125 -1.5 -2.1875z" fill-rule="nonzero"/><path fill="#000000" fill-opacity="0.0" d="m354.3622 213.32545l127.68503 -128.37794" fill-rule="evenodd"/><path stroke="#3d85c6" stroke-width="3.0" stroke-linejoin="round" stroke-linecap="butt" d="m354.3622 213.32545l120.434784 -121.088356" fill-rule="evenodd"/><path fill="#3d85c6" stroke="#3d85c6" stroke-width="3.0" stroke-linecap="butt" d="m474.797 92.2371l0.012908936 4.771187l4.1445923 -8.951233l-8.92868 4.1929626z" fill-rule="evenodd"/><path fill="#000000" fill-opacity="0.0" d="m482.04724 213.32545l0 -128.37794" fill-rule="evenodd"/><path stroke="#3d85c6" stroke-width="3.0" stroke-linejoin="round" stroke-linecap="butt" d="m482.04724 213.32545l0 -118.09669" fill-rule="evenodd"/><path fill="#3d85c6" stroke="#3d85c6" stroke-width="3.0" stroke-linecap="butt" d="m482.04724 95.22877l3.3737488 3.3737488l-3.3737488 -9.269302l-3.3737488 9.269302z" fill-rule="evenodd"/><path fill="#cfe2f3" d="m556.6772 213.33858l106.11023 0l0 64.9449l-106.11023 0z" fill-rule="evenodd"/><path stroke="#3d85c6" stroke-width="3.0" stroke-linejoin="round" stroke-linecap="butt" d="m556.6772 213.33858l106.11023 0l0 64.9449l-106.11023 0z" fill-rule="evenodd"/><path fill="#3d85c6" d="m579.20605 236.82477l2.609375 0.828125q-0.59375 2.1875 -2.0 3.25q-1.390625 1.0625 -3.546875 1.0625q-2.65625 0 -4.375 -1.8125q-1.703125 -1.828125 -1.703125 -4.984375q0 -3.328125 1.71875 -5.171875q1.71875 -1.84375 4.515625 -1.84375q2.453125 0 3.984375 1.4375q0.921875 0.859375 1.375 2.46875l-2.671875 0.640625q-0.234375 -1.046875 -0.984375 -1.640625q-0.75 -0.609375 -1.828125 -0.609375q-1.484375 0 -2.421875 1.078125q-0.921875 1.0625 -0.921875 3.4375q0 2.53125 0.90625 3.609375q0.921875 1.078125 2.375 1.078125q1.078125 0 1.84375 -0.671875q0.78125 -0.6875 1.125 -2.15625zm4.3166504 -0.0625q0 -1.28125 0.625 -2.46875q0.625 -1.203125 1.78125 -1.828125q1.15625 -0.625 2.578125 -0.625q2.1875 0 3.59375 1.421875q1.40625 1.421875 1.40625 3.609375q0 2.1875 -1.421875 3.640625q-1.421875 1.4375 -3.5625 1.4375q-1.328125 0 -2.546875 -0.59375q-1.203125 -0.609375 -1.828125 -1.765625q-0.625 -1.171875 -0.625 -2.828125zm2.625 0.125q0 1.453125 0.671875 2.21875q0.6875 0.75 1.6875 0.75q1.0 0 1.671875 -0.75q0.6875 -0.765625 0.6875 -2.234375q0 -1.421875 -0.6875 -2.1875q-0.671875 -0.765625 -1.671875 -0.765625q-1.0 0 -1.6875 0.765625q-0.671875 0.765625 -0.671875 2.203125zm18.161621 4.84375l-2.5625 0l0 -4.9375q0 -1.5625 -0.171875 -2.015625q-0.15625 -0.46875 -0.53125 -0.71875q-0.359375 -0.265625 -0.875 -0.265625q-0.671875 0 -1.203125 0.375q-0.53125 0.359375 -0.734375 0.96875q-0.1875 0.59375 -0.1875 2.21875l0 4.375l-2.546875 0l0 -9.671875l2.375 0l0 1.421875q1.265625 -1.640625 3.1875 -1.640625q0.84375 0 1.546875 0.3125q0.703125 0.296875 1.0625 0.78125q0.359375 0.46875 0.5 1.078125q0.140625 0.59375 0.140625 1.703125l0 6.015625zm11.036621 -6.8125l-2.53125 0.453125q-0.125 -0.75 -0.578125 -1.125q-0.453125 -0.390625 -1.171875 -0.390625q-0.953125 0 -1.53125 0.65625q-0.5625 0.65625 -0.5625 2.203125q0 1.734375 0.578125 2.4375q0.578125 0.703125 1.546875 0.703125q0.734375 0 1.203125 -0.40625q0.46875 -0.421875 0.65625 -1.421875l2.515625 0.421875q-0.390625 1.734375 -1.515625 2.625q-1.109375 0.875 -2.96875 0.875q-2.125 0 -3.390625 -1.328125q-1.25 -1.34375 -1.25 -3.71875q0 -2.390625 1.265625 -3.71875q1.265625 -1.34375 3.421875 -1.34375q1.765625 0 2.796875 0.765625q1.046875 0.75 1.515625 2.3125zm4.3913574 6.8125l-2.5625 0l0 -9.671875l2.375 0l0 1.375q0.609375 -0.984375 1.09375 -1.28125q0.484375 -0.3125 1.109375 -0.3125q0.875 0 1.6875 0.484375l-0.796875 2.234375q-0.640625 -0.421875 -1.203125 -0.421875q-0.53125 0 -0.90625 0.296875q-0.375 0.296875 -0.59375 1.078125q-0.203125 0.765625 -0.203125 3.234375l0 2.984375zm10.400879 -3.078125l2.546875 0.421875q-0.484375 1.40625 -1.546875 2.140625q-1.0625 0.734375 -2.65625 0.734375q-2.515625 0 -3.734375 -1.65625q-0.953125 -1.3125 -0.953125 -3.328125q0 -2.40625 1.25 -3.765625q1.265625 -1.359375 3.1875 -1.359375q2.15625 0 3.40625 1.421875q1.25 1.421875 1.1875 4.375l-6.40625 0q0.03125 1.140625 0.609375 1.78125q0.59375 0.625 1.484375 0.625q0.59375 0 1.0 -0.328125q0.421875 -0.328125 0.625 -1.0625zm0.15625 -2.59375q-0.03125 -1.109375 -0.578125 -1.6875q-0.546875 -0.578125 -1.328125 -0.578125q-0.84375 0 -1.390625 0.609375q-0.546875 0.609375 -0.53125 1.65625l3.828125 0zm9.063232 -4.0l0 2.03125l-1.75 0l0 3.90625q0 1.1875 0.046875 1.390625q0.046875 0.1875 0.21875 0.3125q0.1875 0.125 0.4375 0.125q0.359375 0 1.03125 -0.25l0.21875 2.0q-0.890625 0.375 -2.015625 0.375q-0.703125 0 -1.265625 -0.234375q-0.546875 -0.234375 -0.8125 -0.59375q-0.25 -0.375 -0.34375 -1.0q-0.09375 -0.453125 -0.09375 -1.8125l0 -4.21875l-1.171875 0l0 -2.03125l1.171875 0l0 -1.921875l2.578125 -1.5l0 3.421875l1.75 0zm7.3688965 6.59375l2.546875 0.421875q-0.484375 1.40625 -1.546875 2.140625q-1.0625 0.734375 -2.65625 0.734375q-2.515625 0 -3.734375 -1.65625q-0.953125 -1.3125 -0.953125 -3.328125q0 -2.40625 1.25 -3.765625q1.265625 -1.359375 3.1875 -1.359375q2.15625 0 3.40625 1.421875q1.25 1.421875 1.1875 4.375l-6.40625 0q0.03125 1.140625 0.609375 1.78125q0.59375 0.625 1.484375 0.625q0.59375 0 1.0 -0.328125q0.421875 -0.328125 0.625 -1.0625zm0.15625 -2.59375q-0.03125 -1.109375 -0.578125 -1.6875q-0.546875 -0.578125 -1.328125 -0.578125q-0.84375 0 -1.390625 0.609375q-0.546875 0.609375 -0.53125 1.65625l3.828125 0z" fill-rule="nonzero"/><path fill="#3d85c6" d="m594.7468 258.82477l2.609375 0.828125q-0.59375 2.1875 -2.0 3.25q-1.390625 1.0625 -3.546875 1.0625q-2.65625 0 -4.375 -1.8125q-1.703125 -1.828125 -1.703125 -4.984375q0 -3.328125 1.71875 -5.171875q1.71875 -1.84375 4.515625 -1.84375q2.453125 0 3.984375 1.4375q0.921875 0.859375 1.375 2.46875l-2.671875 0.640625q-0.234375 -1.046875 -0.984375 -1.640625q-0.75 -0.609375 -1.828125 -0.609375q-1.484375 0 -2.421875 1.078125q-0.921875 1.0625 -0.921875 3.4375q0 2.53125 0.90625 3.609375q0.921875 1.078125 2.375 1.078125q1.078125 0 1.84375 -0.671875q0.78125 -0.6875 1.125 -2.15625zm4.9104614 4.90625l0 -13.359375l2.5625 0l0 13.359375l-2.5625 0zm7.0895386 -6.71875l-2.328125 -0.421875q0.40625 -1.40625 1.359375 -2.078125q0.953125 -0.671875 2.84375 -0.671875q1.703125 0 2.546875 0.40625q0.84375 0.40625 1.171875 1.03125q0.34375 0.625 0.34375 2.28125l-0.015625 3.0q0 1.265625 0.109375 1.875q0.125 0.609375 0.46875 1.296875l-2.53125 0q-0.109375 -0.25 -0.25 -0.75q-0.0625 -0.234375 -0.09375 -0.3125q-0.65625 0.640625 -1.40625 0.96875q-0.734375 0.3125 -1.59375 0.3125q-1.484375 0 -2.34375 -0.8125q-0.859375 -0.8125 -0.859375 -2.046875q0 -0.828125 0.390625 -1.46875q0.390625 -0.640625 1.09375 -0.96875q0.703125 -0.34375 2.03125 -0.609375q1.796875 -0.328125 2.484375 -0.625l0 -0.25q0 -0.75 -0.359375 -1.0625q-0.359375 -0.3125 -1.375 -0.3125q-0.6875 0 -1.078125 0.28125q-0.375 0.265625 -0.609375 0.9375zm3.421875 2.078125q-0.484375 0.15625 -1.5625 0.390625q-1.0625 0.21875 -1.390625 0.4375q-0.5 0.359375 -0.5 0.90625q0 0.53125 0.40625 0.9375q0.40625 0.390625 1.015625 0.390625q0.703125 0 1.328125 -0.46875q0.46875 -0.34375 0.609375 -0.84375q0.09375 -0.328125 0.09375 -1.25l0 -0.5zm4.1413574 1.875l2.5625 -0.390625q0.171875 0.75 0.671875 1.140625q0.5 0.390625 1.40625 0.390625q0.984375 0 1.484375 -0.375q0.34375 -0.25 0.34375 -0.671875q0 -0.296875 -0.1875 -0.484375q-0.1875 -0.1875 -0.859375 -0.34375q-3.09375 -0.6875 -3.921875 -1.25q-1.140625 -0.78125 -1.140625 -2.171875q0 -1.265625 0.984375 -2.109375q1.0 -0.859375 3.078125 -0.859375q1.984375 0 2.953125 0.65625q0.96875 0.640625 1.328125 1.90625l-2.40625 0.4375q-0.15625 -0.5625 -0.59375 -0.859375q-0.421875 -0.296875 -1.234375 -0.296875q-1.0 0 -1.4375 0.28125q-0.296875 0.203125 -0.296875 0.515625q0 0.265625 0.25 0.46875q0.34375 0.25 2.390625 0.71875q2.046875 0.453125 2.859375 1.140625q0.796875 0.671875 0.796875 1.890625q0 1.34375 -1.109375 2.296875q-1.109375 0.953125 -3.28125 0.953125q-1.984375 0 -3.140625 -0.796875q-1.140625 -0.8125 -1.5 -2.1875zm10.375732 0l2.5625 -0.390625q0.171875 0.75 0.671875 1.140625q0.5 0.390625 1.40625 0.390625q0.984375 0 1.484375 -0.375q0.34375 -0.25 0.34375 -0.671875q0 -0.296875 -0.1875 -0.484375q-0.1875 -0.1875 -0.859375 -0.34375q-3.09375 -0.6875 -3.921875 -1.25q-1.140625 -0.78125 -1.140625 -2.171875q0 -1.265625 0.984375 -2.109375q1.0 -0.859375 3.078125 -0.859375q1.984375 0 2.953125 0.65625q0.96875 0.640625 1.328125 1.90625l-2.40625 0.4375q-0.15625 -0.5625 -0.59375 -0.859375q-0.421875 -0.296875 -1.234375 -0.296875q-1.0 0 -1.4375 0.28125q-0.296875 0.203125 -0.296875 0.515625q0 0.265625 0.25 0.46875q0.34375 0.25 2.390625 0.71875q2.046875 0.453125 2.859375 1.140625q0.796875 0.671875 0.796875 1.890625q0 1.34375 -1.109375 2.296875q-1.109375 0.953125 -3.28125 0.953125q-1.984375 0 -3.140625 -0.796875q-1.140625 -0.8125 -1.5 -2.1875z" fill-rule="nonzero"/><path fill="#000000" fill-opacity="0.0" d="m609.7323 213.33858l-127.68506 -128.37794" fill-rule="evenodd"/><path stroke="#3d85c6" stroke-width="3.0" stroke-linejoin="round" stroke-linecap="butt" d="m609.7323 213.33858l-120.434814 -121.08835" fill-rule="evenodd"/><path fill="#3d85c6" stroke="#3d85c6" stroke-width="3.0" stroke-linecap="butt" d="m489.2975 92.25022l4.7712097 0.012916565l-8.92868 -4.1929626l4.144562 8.951233z" fill-rule="evenodd"/><path fill="#000000" fill-opacity="0.0" d="m221.82414 20.007874l137.29134 0l0 42.015747l-137.29134 0z" fill-rule="evenodd"/><path fill="#3d85c6" d="m248.3454 46.92787l-2.390625 0l0 -1.421875q-0.59375 0.828125 -1.40625 1.234375q-0.796875 0.40625 -1.609375 0.40625q-1.671875 0 -2.859375 -1.34375q-1.1875 -1.34375 -1.1875 -3.75q0 -2.453125 1.15625 -3.734375q1.15625 -1.28125 2.921875 -1.28125q1.625 0 2.8125 1.34375l0 -4.8125l2.5625 0l0 13.359375zm-6.84375 -5.046875q0 1.546875 0.4375 2.234375q0.609375 1.015625 1.71875 1.015625q0.890625 0 1.5 -0.75q0.625 -0.765625 0.625 -2.25q0 -1.671875 -0.609375 -2.40625q-0.59375 -0.734375 -1.53125 -0.734375q-0.90625 0 -1.53125 0.734375q-0.609375 0.71875 -0.609375 2.15625zm14.958466 1.96875l2.546875 0.421875q-0.484375 1.40625 -1.546875 2.140625q-1.0625 0.734375 -2.6562347 0.734375q-2.515625 0 -3.734375 -1.65625q-0.953125 -1.3125 -0.953125 -3.328125q0 -2.40625 1.25 -3.765625q1.265625 -1.359375 3.1875 -1.359375q2.1562347 0 3.4062347 1.421875q1.25 1.421875 1.1875 4.375l-6.4062347 0q0.03125 1.140625 0.609375 1.78125q0.59375 0.625 1.484375 0.625q0.59375 0 1.0 -0.328125q0.42185974 -0.328125 0.62498474 -1.0625zm0.15625 -2.59375q-0.03125 -1.109375 -0.578125 -1.6875q-0.54685974 -0.578125 -1.3281097 -0.578125q-0.84375 0 -1.390625 0.609375q-0.546875 0.609375 -0.53125 1.65625l3.8281097 0zm4.5476074 -4.0l2.390625 0l0 1.421875q0.46875 -0.734375 1.25 -1.1875q0.796875 -0.453125 1.765625 -0.453125q1.6875 0 2.859375 1.328125q1.171875 1.3125 1.171875 3.671875q0 2.421875 -1.1875 3.765625q-1.1875 1.34375 -2.859375 1.34375q-0.8125 0 -1.46875 -0.3125q-0.640625 -0.328125 -1.359375 -1.09375l0 4.875l-2.5625 0l0 -13.359375zm2.53125 4.671875q0 1.625 0.640625 2.40625q0.65625 0.78125 1.578125 0.78125q0.90625 0 1.484375 -0.71875q0.59375 -0.71875 0.59375 -2.34375q0 -1.515625 -0.609375 -2.25q-0.609375 -0.75 -1.515625 -0.75q-0.9375 0 -1.5625 0.734375q-0.609375 0.71875 -0.609375 2.140625zm14.536591 1.921875l2.546875 0.421875q-0.484375 1.40625 -1.546875 2.140625q-1.0625 0.734375 -2.65625 0.734375q-2.515625 0 -3.734375 -1.65625q-0.953125 -1.3125 -0.953125 -3.328125q0 -2.40625 1.25 -3.765625q1.265625 -1.359375 3.1875 -1.359375q2.15625 0 3.40625 1.421875q1.25 1.421875 1.1875 4.375l-6.40625 0q0.03125 1.140625 0.609375 1.78125q0.59375 0.625 1.484375 0.625q0.59375 0 1.0 -0.328125q0.421875 -0.328125 0.625 -1.0625zm0.15625 -2.59375q-0.03125 -1.109375 -0.578125 -1.6875q-0.546875 -0.578125 -1.328125 -0.578125q-0.84375 0 -1.390625 0.609375q-0.546875 0.609375 -0.53125 1.65625l3.828125 0zm13.422607 5.671875l-2.5625 0l0 -4.9375q0 -1.5625 -0.171875 -2.015625q-0.15625 -0.46875 -0.53125 -0.71875q-0.359375 -0.265625 -0.875 -0.265625q-0.671875 0 -1.203125 0.375q-0.53125 0.359375 -0.734375 0.96875q-0.1875 0.59375 -0.1875 2.21875l0 4.375l-2.546875 0l0 -9.671875l2.375 0l0 1.421875q1.265625 -1.640625 3.1875 -1.640625q0.84375 0 1.546875 0.3125q0.703125 0.296875 1.0625 0.78125q0.359375 0.46875 0.5 1.078125q0.140625 0.59375 0.140625 1.703125l0 6.015625zm11.474091 0l-2.390625 0l0 -1.421875q-0.59375 0.828125 -1.40625 1.234375q-0.796875 0.40625 -1.609375 0.40625q-1.671875 0 -2.859375 -1.34375q-1.1875 -1.34375 -1.1875 -3.75q0 -2.453125 1.15625 -3.734375q1.15625 -1.28125 2.921875 -1.28125q1.625 0 2.8125 1.34375l0 -4.8125l2.5625 0l0 13.359375zm-6.84375 -5.046875q0 1.546875 0.4375 2.234375q0.609375 1.015625 1.71875 1.015625q0.890625 0 1.5 -0.75q0.625 -0.765625 0.625 -2.25q0 -1.671875 -0.609375 -2.40625q-0.59375 -0.734375 -1.53125 -0.734375q-0.90625 0 -1.53125 0.734375q-0.609375 0.71875 -0.609375 2.15625zm8.458496 2.28125l2.5625 -0.390625q0.171875 0.75 0.671875 1.140625q0.5 0.390625 1.40625 0.390625q0.984375 0 1.484375 -0.375q0.34375 -0.25 0.34375 -0.671875q0 -0.296875 -0.1875 -0.484375q-0.1875 -0.1875 -0.859375 -0.34375q-3.09375 -0.6875 -3.921875 -1.25q-1.140625 -0.78125 -1.140625 -2.171875q0 -1.265625 0.984375 -2.109375q1.0 -0.859375 3.078125 -0.859375q1.984375 0 2.953125 0.65625q0.96875 0.640625 1.328125 1.90625l-2.40625 0.4375q-0.15625 -0.5625 -0.59375 -0.859375q-0.421875 -0.296875 -1.234375 -0.296875q-1.0 0 -1.4375 0.28125q-0.296875 0.203125 -0.296875 0.515625q0 0.265625 0.25 0.46875q0.34375 0.25 2.390625 0.71875q2.046875 0.453125 2.859375 1.140625q0.796875 0.671875 0.796875 1.890625q0 1.34375 -1.109375 2.296875q-1.109375 0.953125 -3.28125 0.953125q-1.984375 0 -3.140625 -0.796875q-1.140625 -0.8125 -1.5 -2.1875zm15.871521 -2.203125q0 -1.28125 0.625 -2.46875q0.625 -1.203125 1.78125 -1.828125q1.15625 -0.625 2.578125 -0.625q2.1875 0 3.59375 1.421875q1.40625 1.421875 1.40625 3.609375q0 2.1875 -1.421875 3.640625q-1.421875 1.4375 -3.5625 1.4375q-1.328125 0 -2.546875 -0.59375q-1.203125 -0.609375 -1.828125 -1.765625q-0.625 -1.171875 -0.625 -2.828125zm2.625 0.125q0 1.453125 0.671875 2.21875q0.6875 0.75 1.6875 0.75q1.0 0 1.671875 -0.75q0.6875 -0.765625 0.6875 -2.234375q0 -1.421875 -0.6875 -2.1875q-0.671875 -0.765625 -1.671875 -0.765625q-1.0 0 -1.6875 0.765625q-0.671875 0.765625 -0.671875 2.203125zm18.16159 4.84375l-2.5625 0l0 -4.9375q0 -1.5625 -0.171875 -2.015625q-0.15625 -0.46875 -0.53125 -0.71875q-0.359375 -0.265625 -0.875 -0.265625q-0.671875 0 -1.203125 0.375q-0.53125 0.359375 -0.734375 0.96875q-0.1875 0.59375 -0.1875 2.21875l0 4.375l-2.546875 0l0 -9.671875l2.375 0l0 1.421875q1.265625 -1.640625 3.1875 -1.640625q0.84375 0 1.546875 0.3125q0.703125 0.296875 1.0625 0.78125q0.359375 0.46875 0.5 1.078125q0.140625 0.59375 0.140625 1.703125l0 6.015625z" fill-rule="nonzero"/><path fill="#000000" fill-opacity="0.0" d="m351.24524 173.50073l75.055115 -74.99213l26.26773 26.267715l-75.055145 74.99213z" fill-rule="evenodd"/><path fill="#3d85c6" d="m370.92676 174.2696l-1.3147888 -1.3147736l1.4258728 -1.4246674l1.3147888 1.3147736l-1.4258728 1.4246674zm6.0987854 6.0988007l-5.3695984 -5.3695984l1.4258728 -1.4246674l5.3695984 5.3695984l-1.4258728 1.4246674zm-2.5885315 -8.148315l1.3042603 -1.3031769l0.7292175 0.7292023q-0.14334106 -1.5575409 0.8293457 -2.5294037q0.51950073 -0.5190735 1.1052246 -0.6846466q0.5857239 -0.16555786 1.2597961 0.022369385q-0.077178955 -0.78430176 0.12185669 -1.4028473q0.21011353 -0.6295929 0.6743469 -1.0934448q0.5858154 -0.58532715 1.237854 -0.750885q0.6520386 -0.18763733 1.315033 0.0776062q0.48617554 0.19892883 1.2595825 0.9723358l3.4360962 3.4360962l-1.4258423 1.4246674l-3.0715027 -3.0715027q-0.7955017 -0.79548645 -1.1712036 -0.88394165q-0.5083313 -0.110565186 -0.91729736 0.29804993q-0.2984314 0.29818726 -0.375885 0.7510681q-0.07745361 0.43078613 0.1545105 0.90582275q0.23199463 0.47503662 0.98327637 1.2263336l2.5853577 2.5853577l-1.4147949 1.41362l-2.9499512 -2.9499512q-0.78445435 -0.78445435 -1.0827942 -0.92811584q-0.30941772 -0.15470886 -0.58569336 -0.09953308q-0.26522827 0.044128418 -0.54156494 0.32022095q-0.32052612 0.32028198 -0.4090271 0.7621002q-0.08850098 0.4418335 0.13241577 0.90582275q0.22091675 0.44189453 0.99432373 1.2153015l2.6074524 2.6074524l-1.4147949 1.41362l-5.3695984 -5.3695984zm9.285034 -9.277237l1.3263855 -1.3252716l0.7844238 0.78445435q-0.15457153 -0.6628113 0.04449463 -1.3476257q0.1880188 -0.6958771 0.7185669 -1.2259827q0.93951416 -0.93873596 2.3208618 -0.8611145q1.3813477 0.0776062 2.696106 1.3923798q1.3479309 1.3479309 1.4360352 2.761856q0.088134766 1.3918457 -0.8514099 2.3305817q-0.44210815 0.4417572 -0.9836426 0.62942505q-0.53048706 0.17663574 -1.3703308 0.15435791l2.7068787 2.706894l-1.4147949 1.41362l-7.413574 -7.413574zm4.0001526 1.1938324q0.90597534 0.9059906 1.6905823 0.98347473q0.7956543 0.06643677 1.315155 -0.45262146q0.4973755 -0.49697876 0.42016602 -1.2149963q-0.06613159 -0.72906494 -0.97213745 -1.6350403q-0.850708 -0.8507385 -1.6021729 -0.9171753q-0.74038696 -0.07748413 -1.2488403 0.430542q-0.51950073 0.5190582 -0.45333862 1.2702179q0.05508423 0.7401123 0.85058594 1.5355988zm7.735718 -2.1851654l-7.413574 -7.413574l1.4258423 -1.4246674l7.413574 7.413574l-1.4258423 1.4246674zm4.2850037 -7.705017l1.6578674 -1.1705627q0.5081177 1.0384521 0.32003784 2.0436249q-0.17700195 0.99412537 -1.0612793 1.8776398q-1.4037476 1.4025726 -2.9950256 1.1592255q-1.2597351 -0.19909668 -2.3866882 -1.3260498q-1.3258362 -1.3258209 -1.3807983 -2.7728882q-0.065979004 -1.4581146 1.0061646 -2.5293884q1.1937561 -1.1927338 2.685608 -1.0930023q1.4807739 0.08868408 3.0827942 1.7569885l-3.5591125 3.556137q0.6408081 0.61872864 1.3259583 0.6409607q0.68515015 0.022247314 1.1715088 -0.46368408q0.3315735 -0.33132935 0.375885 -0.7289734q0.044281006 -0.41975403 -0.24291992 -0.95002747zm-1.3589478 -1.5136261q-0.62976074 -0.607666 -1.2596741 -0.6188507q-0.61883545 -0.022216797 -1.0499268 0.40849304q-0.47528076 0.47488403 -0.43121338 1.1155701q0.03302002 0.62965393 0.6185913 1.2152252l2.122223 -2.1204376zm0.25152588 -4.6909485l1.3042603 -1.3031921l0.7292175 0.7292175q-0.14334106 -1.5575562 0.8293457 -2.529419q0.51950073 -0.5190582 1.1052246 -0.68463135q0.5857239 -0.16557312 1.2597961 0.022354126q-0.07720947 -0.78430176 0.12185669 -1.4028473q0.21008301 -0.6295929 0.6743164 -1.0934296q0.5858154 -0.58532715 1.237854 -0.750885q0.6520386 -0.18765259 1.315033 0.0776062q0.48620605 0.19892883 1.259613 0.97232056l3.4360962 3.4360962l-1.4258728 1.4246674l-3.0715027 -3.0714874q-0.7954712 -0.7955017 -1.1712036 -0.8839569q-0.5083008 -0.110565186 -0.91726685 0.2980652q-0.2984314 0.29818726 -0.375885 0.7510681q-0.07745361 0.43078613 0.1545105 0.90582275q0.23196411 0.47503662 0.98327637 1.2263336l2.5853577 2.5853577l-1.4147949 1.41362l-2.9499817 -2.9499664q-0.78445435 -0.7844391 -1.0827942 -0.9281006q-0.3093872 -0.15472412 -0.58566284 -0.09954834q-0.26522827 0.044128418 -0.54156494 0.3202362q-0.32052612 0.32026672 -0.4090271 0.7621002q-0.08850098 0.4418335 0.13241577 0.90582275q0.22091675 0.44189453 0.99432373 1.2152863l2.6074524 2.6074524l-1.4147949 1.41362l-5.3695984 -5.369583zm16.092255 -8.767685l1.6578674 -1.1705475q0.5081177 1.0384521 0.32003784 2.0436096q-0.17700195 0.99412537 -1.0612793 1.8776398q-1.4037476 1.4025726 -2.9950256 1.1592255q-1.2597351 -0.19909668 -2.3866882 -1.3260498q-1.3258362 -1.3258209 -1.3807983 -2.7728882q-0.065979004 -1.4581146 1.0061646 -2.5293732q1.1937561 -1.192749 2.685608 -1.0930176q1.4807739 0.08868408 3.0828247 1.7569885l-3.559143 3.556137q0.6408386 0.61872864 1.3259583 0.6409607q0.68515015 0.022247314 1.1715088 -0.46368408q0.331604 -0.33132935 0.375885 -0.7289734q0.044281006 -0.41975403 -0.24291992 -0.95002747zm-1.3589478 -1.5136261q-0.62976074 -0.607666 -1.2596741 -0.6188507q-0.61883545 -0.022216797 -1.0498962 0.40849304q-0.47531128 0.47488403 -0.4312439 1.1155853q0.03302002 0.6296387 0.6185913 1.21521l2.122223 -2.1204376zm10.617157 -4.313202l-1.4258728 1.4246674l-2.7400208 -2.7400513q-0.87283325 -0.87283325 -1.2153931 -1.0385895q-0.3425293 -0.16577148 -0.696167 -0.0995636q-0.3536682 0.06619263 -0.64105225 0.35334778q-0.3647461 0.36444092 -0.45324707 0.87254333q-0.08850098 0.48602295 0.13241577 0.9279175q0.22091675 0.44189453 1.1268921 1.3478699l2.4306946 2.4306793l-1.4258728 1.4246674l-5.3695984 -5.369583l1.3263855 -1.3252716l0.78445435 0.7844391q-0.19857788 -1.612793 0.8625183 -2.6730042q0.47528076 -0.47488403 1.0278931 -0.69569397q0.5525818 -0.22080994 1.0166931 -0.1544342q0.4751892 0.05532837 0.8840027 0.30947876q0.408844 0.2541504 1.0386047 0.88391113l3.33667 3.33667zm-1.4681702 -9.267738l1.1269531 1.1269531l-0.97268677 0.9718628l2.1654968 2.1655197q0.66293335 0.66290283 0.7955017 0.75131226q0.13259888 0.06629944 0.30941772 0.04425049q0.16577148 -0.033111572 0.30947876 -0.17668152q0.19894409 -0.1987915 0.4421692 -0.7068634l1.2264404 0.9833679q-0.2874756 0.7068939 -0.917511 1.3363953q-0.38684082 0.38653564 -0.8178711 0.574234q-0.43103027 0.16560364 -0.78463745 0.12135315q-0.35360718 -0.06636047 -0.76242065 -0.36468506q-0.29833984 -0.20994568 -1.0496521 -0.9612427l-2.3422852 -2.3422928l-0.6521301 0.65158844l-1.1269531 -1.1269531l0.6521301 -0.65158844l-1.0717163 -1.0717087l0.597229 -2.2533035l1.9003601 1.9003448l0.97268677 -0.9718628zm4.3241577 3.3439255l1.2159424 -1.6345901q0.4972229 0.32044983 0.99453735 0.26531982q0.49728394 -0.0772171 0.99468994 -0.57419586q0.5526428 -0.5521927 0.63009644 -1.0271683q0.044281006 -0.33137512 -0.1987915 -0.57444q-0.15466309 -0.15467834 -0.36462402 -0.16577148q-0.20999146 0.011001587 -0.66311646 0.2870636q-2.099945 1.3471985 -2.8735352 1.4795914q-1.071991 0.20964813 -1.8453674 -0.5637436q-0.69607544 -0.6960602 -0.61849976 -1.7233429q0.07757568 -1.0272827 1.2381592 -2.1868973q1.0942688 -1.0933456 2.0004578 -1.2698898q0.8951721 -0.18759918 1.7901917 0.3096695l-1.0943909 1.601471q-0.3977661 -0.24310303 -0.80667114 -0.16586304q-0.40890503 0.07723999 -0.8510132 0.5189972q-0.5637207 0.56324005 -0.6522217 0.9608841q-0.05529785 0.2761383 0.12149048 0.452919q0.15466309 0.15467834 0.408844 0.12159729q0.34259033 -0.055160522 1.7241211 -0.92752075q1.3926086 -0.8834076 2.2214355 -0.96055603q0.8288269 -0.05506134 1.5027771 0.6189041q0.7402649 0.74024963 0.6516113 1.8890381q-0.0776062 1.1377487 -1.293457 2.3525772q-1.0942383 1.0933456 -2.1772766 1.2919464q-1.0940857 0.1875534 -2.0553894 -0.37599945z" fill-rule="nonzero"/><path fill="#000000" fill-opacity="0.0" d="m536.7274 97.11272l74.96063 75.11812l-26.2677 26.267715l-74.96063 -75.11812z" fill-rule="evenodd"/><path fill="#3d85c6" d="m535.96045 116.80809l1.3148193 -1.3147812l1.4237671 1.4267578l-1.3148193 1.3147812l-1.4237671 -1.4267578zm-6.098755 6.0988007l5.369568 -5.3695984l1.4237671 1.4267578l-5.369568 5.3695908l-1.4237671 -1.4267502zm8.146545 -2.5867996l1.3023682 1.3050995l-0.72924805 0.7292023q1.5571289 -0.14289093 2.5283813 0.83039856q0.5187378 0.5198288 0.68408203 1.1057968q0.16534424 0.585968 -0.022766113 1.2601852q0.7840576 -0.07697296 1.4023438 0.12232971q0.6293335 0.2103653 1.0928955 0.6748886q0.58496094 0.58618927 0.75024414 1.2384796q0.18743896 0.652298 -0.077941895 1.3154297q-0.19903564 0.48628235 -0.97247314 1.2596741l-3.4360962 3.4361115l-1.4237671 -1.4267578l3.0715332 -3.0715027q0.7954712 -0.7955017 0.8840332 -1.1712952q0.11065674 -0.50844574 -0.29766846 -0.9176636q-0.29803467 -0.29862976 -0.7507324 -0.3762436q-0.43060303 -0.0776062 -0.9055786 0.15428162q-0.4749756 0.23189545 -1.2262573 0.9832001l-2.5853882 2.58535l-1.4127197 -1.4156952l2.9499512 -2.9499588q0.78448486 -0.7844467 0.9281616 -1.08284q0.15478516 -0.3094406 0.099731445 -0.58582306q-0.044067383 -0.26532745 -0.3199463 -0.541832q-0.32006836 -0.32074738 -0.7617798 -0.40940857q-0.4416504 -0.08866882 -0.9055786 0.13217163q-0.44177246 0.22085571 -1.21521 0.99425507l-2.6074219 2.60746l-1.4127808 -1.4156952l5.369629 -5.3695984zm9.271362 9.290871l1.3244629 1.3272095l-0.78448486 0.78445435q0.6626587 -0.15441895 1.347229 0.044921875q0.69555664 0.18829346 1.2253418 0.71917725q0.9381714 0.94010925 0.8601074 2.3218536q-0.07800293 1.3817596 -1.3927612 2.6965332q-1.3479614 1.3479309 -2.7614746 1.4356232q-1.3914185 0.08769226 -2.3295288 -0.852417q-0.44152832 -0.44239807 -0.6289673 -0.9841614q-0.1763916 -0.5307007 -0.15386963 -1.3708191l-2.7069092 2.706894l-1.4127197 -1.4156952l7.413574 -7.413574zm-1.1947021 4.0010376q-0.90600586 0.9059906 -0.9837036 1.6908112q-0.06665039 0.7958679 0.4520874 1.3156891q0.49664307 0.49771118 1.2144775 0.42071533q0.7288208 -0.06594849 1.6348267 -0.9719238q0.85076904 -0.8507385 0.91741943 -1.6024017q0.07763672 -0.7406006 -0.4300537 -1.2493744q-0.5187378 -0.51982117 -1.2696533 -0.45388794q-0.7399292 0.054885864 -1.5354004 0.8503723zm2.1820679 7.7388306l7.413574 -7.413574l1.4237671 1.4267578l-7.413574 7.413574l-1.4237671 -1.4267578zm7.701233 4.2887726l1.1696777 1.6587677q-1.0383301 0.5079498 -2.0430908 0.31950378q-0.9937744 -0.17738342 -1.876709 -1.0621948q-1.4016724 -1.4046478 -1.157898 -2.996338q0.19940186 -1.260086 1.326355 -2.3870392q1.3258057 -1.3258362 2.772461 -1.3803406q1.4576416 -0.06556702 2.5282593 1.0072632q1.1919556 1.1945038 1.0917969 2.6867828q-0.08911133 1.4812317 -1.7573853 3.0832367l-3.553894 -3.5613556q-0.6187134 0.64082336 -0.6411743 1.3261871q-0.022460938 0.6853485 0.4631958 1.1719971q0.3310547 0.33180237 0.72857666 0.37623596q0.4196167 0.044433594 0.9498291 -0.2427063zm1.5135498 -1.3588867q0.607666 -0.629776 0.6190796 -1.2598724q0.022399902 -0.6190338 -0.40802002 -1.0503693q-0.47460938 -0.47558594 -1.1151123 -0.43171692q-0.62945557 0.032836914 -1.2150269 0.6184082l2.1190796 2.1235504zm4.689392 0.25306702l1.3023682 1.3050995l-0.729187 0.7292023q1.5571289 -0.1428833 2.5283203 0.83039856q0.5187378 0.5198364 0.68408203 1.1058044q0.16534424 0.58595276 -0.022705078 1.2601776q0.7840576 -0.07696533 1.4023438 0.12232971q0.6293335 0.21035767 1.0928955 0.67489624q0.58496094 0.58618164 0.75024414 1.2384796q0.18737793 0.652298 -0.07800293 1.3154144q-0.19903564 0.4862976 -0.9724121 1.2596893l-3.4360962 3.4360962l-1.4237671 -1.4267578l3.0714722 -3.0714874q0.7955322 -0.7955017 0.8840332 -1.1712952q0.11071777 -0.50845337 -0.29766846 -0.91767883q-0.29797363 -0.2986145 -0.7506714 -0.37623596q-0.43066406 -0.0776062 -0.90563965 0.15428162q-0.47491455 0.23190308 -1.2262573 0.9832001l-2.5853271 2.5853577l-1.4127197 -1.4156952l2.9499512 -2.9499664q0.7844238 -0.7844391 0.9281616 -1.08284q0.15472412 -0.30943298 0.09967041 -0.5858307q-0.044006348 -0.26531982 -0.3199463 -0.54182434q-0.32006836 -0.32073975 -0.76171875 -0.40940857q-0.4416504 -0.08866882 -0.9055786 0.13217163q-0.4418335 0.22085571 -1.21521 0.9942627l-2.607483 2.6074524l-1.4127197 -1.4156952l5.369568 -5.3695984zm8.759888 16.100082l1.1696167 1.6587524q-1.038269 0.5079651 -2.0430298 0.31951904q-0.9937744 -0.17739868 -1.876709 -1.0622101q-1.4017334 -1.4046326 -1.157959 -2.996338q0.19946289 -1.260086 1.326416 -2.3870392q1.3258057 -1.3258209 2.772461 -1.3803406q1.4576416 -0.06555176 2.5282593 1.0072784q1.1919556 1.1944885 1.0917969 2.6867676q-0.08911133 1.481247 -1.7573853 3.083252l-3.553894 -3.5613708q-0.6187744 0.64082336 -0.6411743 1.3261871q-0.022460938 0.68536377 0.46313477 1.1719971q0.33111572 0.33181763 0.7286377 0.37623596q0.4196167 0.044433594 0.9498291 -0.24269104zm1.5135498 -1.358902q0.607666 -0.629776 0.6190796 -1.2598572q0.022399902 -0.6190338 -0.40808105 -1.0503845q-0.47454834 -0.47558594 -1.1150513 -0.43170166q-0.62945557 0.032836914 -1.2150269 0.6184082l2.1190796 2.1235352zm4.3085327 10.621857l-1.4237671 -1.4267578l2.7399902 -2.7400513q0.87286377 -0.87283325 1.0386963 -1.2154236q0.16583252 -0.3426056 0.099731445 -0.6963806q-0.06604004 -0.35377502 -0.35302734 -0.6413269q-0.36419678 -0.36499023 -0.87213135 -0.45368958q-0.48583984 -0.08868408 -0.92767334 0.13217163q-0.4418335 0.22085571 -1.3477783 1.126831l-2.430725 2.4306793l-1.4237671 -1.4267578l5.369629 -5.3695984l1.3244019 1.3272247l-0.7844238 0.7844391q1.6123657 -0.19813538 2.671875 0.86364746q0.47460938 0.47558594 0.6951904 1.0284119q0.22052002 0.5528412 0.15405273 1.0170898q-0.055480957 0.47529602 -0.30969238 0.8841858q-0.2541504 0.4088745 -0.88397217 1.0386353l-3.336609 3.33667zm9.265259 -1.4657288l-1.1269531 1.1269531l-0.97125244 -0.9732971l-2.1655273 2.165512q-0.66290283 0.6629181 -0.7513428 0.7955322q-0.06628418 0.13261414 -0.044311523 0.30949402q0.03302002 0.16583252 0.17651367 0.3096161q0.19866943 0.19908142 0.70654297 0.4425354l-0.9834595 1.2265167q-0.706604 -0.28778076 -1.3356934 -0.9182129q-0.3862915 -0.38710022 -0.5737915 -0.8183136q-0.16540527 -0.43121338 -0.12109375 -0.78492737q0.066467285 -0.35369873 0.36480713 -0.762558q0.21002197 -0.2983551 0.9613037 -1.0496521l2.3422852 -2.3423004l-0.6511841 -0.6525421l1.1269531 -1.1269531l0.6511841 0.6525421l1.0717163 -1.071701l2.2523804 0.598114l-1.9003296 1.9003448l0.97125244 0.9732971zm-3.3442383 4.3244934l1.633667 1.2168274q-0.3204956 0.49728394 -0.26550293 0.994751q0.07702637 0.4974823 0.57366943 0.9951935q0.5518799 0.55300903 1.0266724 0.6306305q0.3312378 0.044403076 0.5742798 -0.19866943q0.15472412 -0.15467834 0.16583252 -0.36471558q-0.010925293 -0.21003723 -0.28674316 -0.6634064q-1.3461304 -2.1010284 -1.4782104 -2.8749084q-0.20922852 -1.0723724 0.56414795 -1.8457794q0.6960449 -0.6960602 1.7230225 -0.61813354q1.0269165 0.07791138 2.185791 1.2392273q1.0926514 1.0949554 1.2688599 2.0015106q0.18725586 0.89549255 -0.31011963 1.7906342l-1.600647 -1.0952148q0.24316406 -0.39782715 0.16607666 -0.80688477q-0.0770874 -0.40904236 -0.5185547 -0.8514557q-0.56292725 -0.56407166 -0.9603882 -0.65270996q-0.276062 -0.055419922 -0.45281982 0.12136841q-0.15466309 0.15467834 -0.1217041 0.40893555q0.05505371 0.3427124 0.9266968 1.7249756q0.8826904 1.3933105 0.9595337 2.222412q0.05480957 0.8291168 -0.6191406 1.503067q-0.7402954 0.7402649 -1.8886719 0.6512146q-1.1373291 -0.07797241 -2.3514404 -1.2945862q-1.0926514 -1.0949554 -1.2908325 -2.1783752q-0.18713379 -1.0944824 0.37652588 -2.0559082z" fill-rule="nonzero"/><path fill="#000000" fill-opacity="0.0" d="m511.5288 104.43042l-0.12597656 106.110245l-37.165375 0l0.12597656 -106.110245z" fill-rule="evenodd"/><path fill="#3d85c6" d="m497.05792 117.809105l1.859375 0l-0.0024108887 2.015625l-1.859375 0l0.0024108887 -2.015625zm-8.6250305 0l7.59375 0l-0.002380371 2.015625l-7.59375 0l0.002380371 -2.015625zm7.5891113 3.9313507l-0.0021972656 1.84375l-1.03125 0q1.2019348 1.0 1.2002869 2.375q-8.544922E-4 0.734375 -0.29837036 1.265625q-0.29751587 0.5312424 -0.9072876 0.8749924q0.60879517 0.5 0.90496826 1.078125q0.2961731 0.59375 0.29541016 1.25q-0.0010070801 0.828125 -0.34542847 1.40625q-0.3288269 0.59375 -0.9854126 0.875q-0.48461914 0.203125 -1.5783691 0.203125l-4.859375 0l0.002380371 -2.015625l4.34375 0q1.125 0 1.4533691 -0.203125q0.4378357 -0.28125 0.4385376 -0.859375q4.8828125E-4 -0.421875 -0.26467896 -0.796875q-0.24957275 -0.359375 -0.74938965 -0.53125q-0.49978638 -0.171875 -1.5622864 -0.171875l-3.65625 0l0.002380371 -1.9999924l4.171875 0q1.109375 0 1.4219971 -0.109375q0.32824707 -0.109375 0.48477173 -0.34375q0.15652466 -0.21875 0.15698242 -0.609375q5.493164E-4 -0.453125 -0.24902344 -0.828125q-0.24954224 -0.375 -0.7337036 -0.546875q-0.4685669 -0.15625 -1.5623169 -0.15625l-3.6875 0l0.0023498535 -2.0l7.5937805 0zm-0.015594482 13.125496l-0.0022277832 1.875l-1.109375 0q0.57769775 0.359375 0.92071533 0.984375q0.35861206 0.625 0.35772705 1.375q-0.0015869141 1.328125 -1.033905 2.25q-1.0323486 0.921875 -2.8917236 0.921875q-1.90625 0 -2.9676514 -0.9375q-1.0457764 -0.921875 -1.0441895 -2.25q7.324219E-4 -0.625 0.25134277 -1.140625q0.25057983 -0.5 0.86065674 -1.078125l-3.828125 0l0.002380371 -2.0l10.484375 0zm-3.6742249 1.984375q-1.28125 0 -1.8912354 0.5q-0.60998535 0.515625 -0.61087036 1.25q-8.239746E-4 0.703125 0.5611267 1.15625q0.5619507 0.46875 1.8432007 0.46875q1.203125 0 1.7818298 -0.484375q0.5786743 -0.46875 0.5795288 -1.1875q8.8500977E-4 -0.734375 -0.57666016 -1.21875q-0.56192017 -0.484375 -1.6869202 -0.484375zm-3.9302063 7.015106l10.484375 0l-0.0024108887 2.015625l-10.484375 0l0.0024108887 -2.015625zm2.4118042 8.478226l-0.34613037 2.0q-1.0932922 -0.375 -1.6704407 -1.21875q-0.5771179 -0.828125 -0.5756531 -2.078125q0.0023498535 -1.984375 1.3003845 -2.9375q1.032135 -0.75 2.625885 -0.75q1.875 0 2.9363403 0.984375q1.0769348 0.984375 1.0751343 2.5q-0.0019836426 1.6875 -1.1281738 2.671875q-1.1105347 0.984375 -3.4229736 0.9375l0.0059509277 -5.03125q-0.890625 0.015625 -1.3911743 0.484375q-0.50057983 0.46875 -0.5013733 1.15625q-5.79834E-4 0.46875 0.24905396 0.78125q0.26522827 0.328125 0.84317017 0.5zm2.031128 0.109375q0.875 -0.015625 1.3286438 -0.453125q0.4536438 -0.421875 0.4543457 -1.03125q8.239746E-4 -0.671875 -0.48306274 -1.09375q-0.46826172 -0.421875 -1.2963867 -0.421875l-0.003540039 3.0zm3.1364746 3.4948578l-0.0021972656 1.84375l-1.03125 0q1.2019348 1.0 1.2003174 2.375q-8.8500977E-4 0.734375 -0.29840088 1.265625q-0.29748535 0.53125 -0.9072876 0.875q0.60879517 0.5 0.90496826 1.078125q0.2961731 0.59375 0.29541016 1.25q-0.0010070801 0.828125 -0.34542847 1.4062347q-0.3288269 0.59375 -0.9854126 0.875q-0.48461914 0.203125 -1.5783691 0.203125l-4.859375 0l0.002380371 -2.0156097l4.34375 0q1.125 0 1.4533691 -0.203125q0.4378357 -0.28125 0.4385376 -0.859375q4.8828125E-4 -0.421875 -0.26467896 -0.796875q-0.24957275 -0.359375 -0.74938965 -0.53125q-0.49978638 -0.171875 -1.5622864 -0.171875l-3.65625 0l0.002380371 -2.0l4.171875 0q1.109375 0 1.4219971 -0.109375q0.32824707 -0.109375 0.48480225 -0.34375q0.15649414 -0.21875 0.1569519 -0.609375q5.493164E-4 -0.453125 -0.24902344 -0.828125q-0.24954224 -0.375 -0.7337036 -0.546875q-0.4685669 -0.15625 -1.5623169 -0.15625l-3.6875 0l0.002380371 -2.0l7.59375 0zm-5.192749 17.578613l-0.34613037 2.0q-1.0933228 -0.375 -1.6704407 -1.21875q-0.57714844 -0.828125 -0.5756531 -2.078125q0.0023498535 -1.984375 1.300354 -2.9375q1.0321655 -0.75 2.6259155 -0.75q1.875 0 2.9363098 0.984375q1.0769653 0.984375 1.0751648 2.5q-0.0019836426 1.6875 -1.1281738 2.671875q-1.1105347 0.984375 -3.4229736 0.9375l0.0059509277 -5.03125q-0.890625 0.015625 -1.3912048 0.484375q-0.5005493 0.46875 -0.5013733 1.15625q-5.493164E-4 0.46875 0.24908447 0.78125q0.26522827 0.328125 0.84317017 0.5zm2.0310974 0.109375q0.8750305 -0.015625 1.3286743 -0.453125q0.4536438 -0.421875 0.4543457 -1.03125q7.9345703E-4 -0.671875 -0.48306274 -1.09375q-0.46826172 -0.421875 -1.2963867 -0.421875l-0.0035705566 3.0zm-4.465637 10.557343l0.002380371 -2.015625l3.875 0q1.234375 0 1.5939026 -0.125q0.3595276 -0.125 0.5629883 -0.42185974q0.20349121 -0.296875 0.20397949 -0.703125q6.1035156E-4 -0.515625 -0.29577637 -0.9375q-0.28076172 -0.40625 -0.7493286 -0.5625q-0.4685669 -0.15625 -1.7498169 -0.15625l-3.4375 0l0.0024108887 -2.015625l7.59375 0l-0.0022277832 1.875l-1.109375 0q1.2800598 1.0 1.2782898 2.5q-8.239746E-4 0.67185974 -0.23583984 1.2187347q-0.23501587 0.546875 -0.61035156 0.828125q-0.3753662 0.296875 -0.8442383 0.40625q-0.46887207 0.109375 -1.3594971 0.109375l-4.71875 0zm7.5871887 5.5151215l-1.59375 0l0.0016479492 -1.375l-3.0625 0q-0.9375 0 -1.093811 0.03125q-0.14065552 0.046875 -0.25021362 0.1875q-0.09390259 0.140625 -0.09414673 0.34375q-3.3569336E-4 0.28125 0.18652344 0.8125l-1.5627136 0.171875q-0.2960205 -0.703125 -0.2949829 -1.59375q6.713867E-4 -0.546875 0.17306519 -0.984375q0.18798828 -0.421875 0.46951294 -0.640625q0.29711914 -0.203125 0.7972107 -0.28125q0.35943604 -0.0625 1.421936 -0.0625l3.3125 0l0.0010986328 -0.921875l1.59375 0l-0.0010986328 0.921875l1.515625 0l1.1694946 2.015625l-2.6875 0l-0.0016479492 1.375zm-5.422699 0.69314575l0.29449463 2.015625q-0.5782776 0.125 -0.89123535 0.515625q-0.29736328 0.40625 -0.29821777 1.109375q-9.1552734E-4 0.78125 0.2798767 1.171875q0.20281982 0.265625 0.5465698 0.265625q0.21875 0 0.3751526 -0.140625q0.1408081 -0.15625 0.26641846 -0.671875q0.53414917 -2.4375 0.9880371 -3.078125q0.6104431 -0.90625 1.7041931 -0.90625q0.984375 0 1.6553345 0.78125q0.6709595 0.78125 0.66900635 2.421875q-0.0018310547 1.546875 -0.5183716 2.3125q-0.5009155 0.765625 -1.4856262 1.046875l-0.3571167 -1.90625q0.45324707 -0.109375 0.6880493 -0.453125q0.23477173 -0.34375 0.23550415 -0.96875q9.460449E-4 -0.796875 -0.21737671 -1.140625q-0.15597534 -0.234375 -0.40597534 -0.234375q-0.21875 0 -0.37524414 0.203125q-0.2034607 0.28125 -0.5647278 1.875q-0.3612976 1.609375 -0.89328 2.25q-0.54763794 0.625 -1.5007629 0.625q-1.046875 0 -1.7958374 -0.875q-0.7489624 -0.859375 -0.74694824 -2.578125q0.0018615723 -1.546875 0.6279297 -2.453125q0.6416931 -0.90625 1.7201538 -1.1875z" fill-rule="nonzero"/></g></svg>