<svg version="1.1" viewBox="0.0 0.0 654.4645669291339 220.08136482939634" fill="none" stroke="none" stroke-linecap="square" stroke-miterlimit="10" xmlns:xlink="http://www.w3.org/1999/xlink" xmlns="http://www.w3.org/2000/svg"><clipPath id="p.0"><path d="m0 0l654.46454 0l0 220.08136l-654.46454 0l0 -220.08136z" clip-rule="nonzero"/></clipPath><g clip-path="url(#p.0)"><path fill="#000000" fill-opacity="0.0" d="m0 0l654.46454 0l0 220.08136l-654.46454 0z" fill-rule="evenodd"/><path fill="#cfe2f3" d="m175.51181 27.349907l0 0c0 -10.447479 8.46936 -18.916836 18.91684 -18.916836l288.938 0c5.0170593 0 9.828613 1.9930182 13.376221 5.540613c3.547577 3.547594 5.540619 8.359165 5.540619 13.376223l0 165.15845c0 10.447479 -8.46936 18.91684 -18.91684 18.91684l-288.938 0c-10.447479 0 -18.91684 -8.46936 -18.91684 -18.91684z" fill-rule="evenodd"/><path stroke="#1c4587" stroke-width="3.0" stroke-linejoin="round" stroke-linecap="butt" d="m175.51181 27.349907l0 0c0 -10.447479 8.46936 -18.916836 18.91684 -18.916836l288.938 0c5.0170593 0 9.828613 1.9930182 13.376221 5.540613c3.547577 3.547594 5.540619 8.359165 5.540619 13.376223l0 165.15845c0 10.447479 -8.46936 18.91684 -18.91684 18.91684l-288.938 0c-10.447479 0 -18.91684 -8.46936 -18.91684 -18.91684z" fill-rule="evenodd"/><path fill="#000000" d="m288.1377 119.24914l-3.984375 0l-1.578125 -4.125l-7.25 0l-1.484375 4.125l-3.890625 0l7.0625 -18.125l3.875 0l7.25 18.125zm-6.734375 -7.171875l-2.5 -6.734375l-2.453125 6.734375l4.953125 0zm8.556793 -5.96875l3.234375 0l0 1.9375q0.640625 -0.984375 1.703125 -1.609375q1.078125 -0.625 2.390625 -0.625q2.296875 0 3.890625 1.796875q1.59375 1.796875 1.59375 5.0q0 3.296875 -1.609375 5.125q-1.609375 1.8125 -3.890625 1.8125q-1.09375 0 -1.984375 -0.421875q-0.875 -0.4375 -1.859375 -1.5l0 6.625l-3.46875 0l0 -18.140625zm3.4375 6.34375q0 2.21875 0.875 3.28125q0.875 1.046875 2.140625 1.046875q1.21875 0 2.015625 -0.96875q0.8125 -0.96875 0.8125 -3.171875q0 -2.078125 -0.828125 -3.078125q-0.828125 -1.0 -2.0625 -1.0q-1.265625 0 -2.109375 0.984375q-0.84375 0.984375 -0.84375 2.90625zm12.033936 -6.34375l3.234375 0l0 1.9375q0.640625 -0.984375 1.703125 -1.609375q1.078125 -0.625 2.390625 -0.625q2.296875 0 3.890625 1.796875q1.59375 1.796875 1.59375 5.0q0 3.296875 -1.609375 5.125q-1.609375 1.8125 -3.890625 1.8125q-1.09375 0 -1.984375 -0.421875q-0.875 -0.4375 -1.859375 -1.5l0 6.625l-3.46875 0l0 -18.140625zm3.4375 6.34375q0 2.21875 0.875 3.28125q0.875 1.046875 2.140625 1.046875q1.21875 0 2.015625 -0.96875q0.8125 -0.96875 0.8125 -3.171875q0 -2.078125 -0.828125 -3.078125q-0.828125 -1.0 -2.0625 -1.0q-1.265625 0 -2.109375 0.984375q-0.84375 0.984375 -0.84375 2.90625zm12.127686 6.796875l0 -18.125l3.484375 0l0 18.125l-3.484375 0zm7.036957 -14.921875l0 -3.203125l3.484375 0l0 3.203125l-3.484375 0zm0 14.921875l0 -13.140625l3.484375 0l0 13.140625l-3.484375 0zm18.490112 -9.25l-3.421875 0.625q-0.171875 -1.03125 -0.78125 -1.546875q-0.609375 -0.53125 -1.59375 -0.53125q-1.296875 0 -2.078125 0.90625q-0.765625 0.890625 -0.765625 3.0q0 2.328125 0.78125 3.296875q0.796875 0.96875 2.109375 0.96875q1.0 0 1.625 -0.5625q0.625 -0.5625 0.890625 -1.9375l3.40625 0.578125q-0.53125 2.34375 -2.046875 3.546875q-1.5 1.203125 -4.03125 1.203125q-2.875 0 -4.59375 -1.8125q-1.71875 -1.828125 -1.71875 -5.03125q0 -3.265625 1.71875 -5.078125q1.71875 -1.8125 4.65625 -1.8125q2.390625 0 3.8125 1.046875q1.421875 1.03125 2.03125 3.140625zm5.2425537 0.125l-3.15625 -0.578125q0.53125 -1.890625 1.828125 -2.8125q1.296875 -0.921875 3.859375 -0.921875q2.328125 0 3.453125 0.5625q1.140625 0.546875 1.609375 1.390625q0.46875 0.84375 0.46875 3.109375l-0.046875 4.0625q0 1.734375 0.171875 2.5625q0.171875 0.8125 0.625 1.75l-3.4375 0q-0.140625 -0.34375 -0.328125 -1.03125q-0.09375 -0.296875 -0.125 -0.40625q-0.890625 0.875 -1.90625 1.3125q-1.015625 0.421875 -2.171875 0.421875q-2.03125 0 -3.203125 -1.09375q-1.15625 -1.109375 -1.15625 -2.796875q0 -1.109375 0.53125 -1.96875q0.53125 -0.875 1.484375 -1.34375q0.96875 -0.46875 2.765625 -0.8125q2.4375 -0.453125 3.375 -0.859375l0 -0.34375q0 -1.0 -0.5 -1.421875q-0.484375 -0.421875 -1.859375 -0.421875q-0.921875 0 -1.453125 0.359375q-0.515625 0.359375 -0.828125 1.28125zm4.640625 2.8125q-0.671875 0.234375 -2.125 0.546875q-1.4375 0.296875 -1.875 0.59375q-0.6875 0.484375 -0.6875 1.234375q0 0.71875 0.546875 1.25q0.546875 0.53125 1.390625 0.53125q0.9375 0 1.78125 -0.609375q0.640625 -0.46875 0.828125 -1.15625q0.140625 -0.4375 0.140625 -1.6875l0 -0.703125zm12.867554 -6.828125l0 2.78125l-2.375 0l0 5.28125q0 1.609375 0.0625 1.875q0.078125 0.265625 0.3125 0.453125q0.234375 0.171875 0.59375 0.171875q0.46875 0 1.390625 -0.34375l0.296875 2.703125q-1.21875 0.515625 -2.75 0.515625q-0.9375 0 -1.6875 -0.3125q-0.75 -0.3125 -1.109375 -0.8125q-0.359375 -0.5 -0.484375 -1.359375q-0.109375 -0.609375 -0.109375 -2.453125l0 -5.71875l-1.59375 0l0 -2.78125l1.59375 0l0 -2.609375l3.484375 -2.015625l0 4.625l2.375 0zm2.4031982 -1.78125l0 -3.203125l3.484375 0l0 3.203125l-3.484375 0zm0 14.921875l0 -13.140625l3.484375 0l0 13.140625l-3.484375 0zm6.2401123 -6.75q0 -1.734375 0.84375 -3.34375q0.859375 -1.625 2.421875 -2.484375q1.5625 -0.859375 3.5 -0.859375q2.984375 0 4.875 1.9375q1.90625 1.9375 1.90625 4.890625q0 2.984375 -1.921875 4.953125q-1.921875 1.953125 -4.84375 1.953125q-1.796875 0 -3.4375 -0.8125q-1.640625 -0.8125 -2.5 -2.390625q-0.84375 -1.578125 -0.84375 -3.84375zm3.5625 0.1875q0 1.953125 0.921875 3.0q0.9375 1.03125 2.296875 1.03125q1.359375 0 2.28125 -1.03125q0.921875 -1.046875 0.921875 -3.03125q0 -1.921875 -0.921875 -2.953125q-0.921875 -1.046875 -2.28125 -1.046875q-1.359375 0 -2.296875 1.046875q-0.921875 1.03125 -0.921875 2.984375zm24.658936 6.5625l-3.46875 0l0 -6.703125q0 -2.125 -0.234375 -2.75q-0.21875 -0.625 -0.71875 -0.96875q-0.5 -0.34375 -1.203125 -0.34375q-0.90625 0 -1.625 0.5q-0.71875 0.484375 -0.984375 1.296875q-0.265625 0.8125 -0.265625 3.015625l0 5.953125l-3.46875 0l0 -13.140625l3.21875 0l0 1.9375q1.71875 -2.234375 4.328125 -2.234375q1.15625 0 2.109375 0.421875q0.953125 0.40625 1.4375 1.0625q0.484375 0.640625 0.671875 1.453125q0.203125 0.8125 0.203125 2.34375l0 8.15625z" fill-rule="nonzero"/><path fill="#d9ead3" d="m7.4908137 30.278215l118.173225 0l0 61.889763l-118.173225 0z" fill-rule="evenodd"/><path stroke="#274e13" stroke-width="3.0" stroke-linejoin="round" stroke-linecap="butt" d="m7.4908137 30.278215l118.173225 0l0 61.889763l-118.173225 0z" fill-rule="evenodd"/><path fill="#000000" d="m58.593052 54.78372l2.6875 0l0 7.234375q0 1.71875 0.109375 2.2343788q0.171875 0.828125 0.8125 1.328125q0.65625 0.484375 1.78125 0.484375q1.1562462 0 1.7343712 -0.46875q0.59375 -0.46875 0.703125 -1.140625q0.125 -0.6875038 0.125 -2.2812538l0 -7.390625l2.6875 0l0 7.015625q0 2.4062538 -0.21875 3.4062538q-0.21875 0.984375 -0.8125 1.671875q-0.578125 0.6875 -1.5625 1.09375q-0.984375 0.40625 -2.5625 0.40625q-1.9218712 0 -2.9062462 -0.4375q-0.984375 -0.453125 -1.5625 -1.15625q-0.578125 -0.703125 -0.75 -1.484375q-0.265625 -1.140625 -0.265625 -3.3906288l0 -7.125zm13.410442 13.359379l0 -13.359379l2.6875 0l0 13.359379l-2.6875 0z" fill-rule="nonzero"/><path fill="#d9ead3" d="m8.734908 123.585304l115.685036 0l0 61.889763l-115.685036 0z" fill-rule="evenodd"/><path stroke="#274e13" stroke-width="3.0" stroke-linejoin="round" stroke-linecap="butt" d="m8.734908 123.585304l115.685036 0l0 61.889763l-115.685036 0z" fill-rule="evenodd"/><path fill="#000000" d="m61.45756 156.54393l2.6093712 0.828125q-0.5937462 2.1875 -1.9999962 3.25q-1.390625 1.0625 -3.546875 1.0625q-2.65625 0 -4.375 -1.8125q-1.703125 -1.828125 -1.703125 -4.984375q0 -3.328125 1.71875 -5.171875q1.71875 -1.84375 4.515625 -1.84375q2.453125 0 3.984375 1.4375q0.921875 0.859375 1.3749962 2.46875l-2.6718712 0.640625q-0.234375 -1.046875 -0.984375 -1.640625q-0.75 -0.609375 -1.828125 -0.609375q-1.484375 0 -2.421875 1.078125q-0.921875 1.0625 -0.921875 3.4375q0 2.53125 0.90625 3.609375q0.921875 1.078125 2.375 1.078125q1.078125 0 1.84375 -0.671875q0.78125 -0.6875 1.125 -2.15625zm5.0041924 4.90625l0 -13.25l2.6875 0l0 11.0l6.7031326 0l0 2.25l-9.390633 0zm11.239738 0l0 -13.359375l2.6875 0l0 13.359375l-2.6875 0z" fill-rule="nonzero"/><path fill="#000000" fill-opacity="0.0" d="m125.66404 61.2231l87.1811 0.9133835" fill-rule="evenodd"/><path stroke="#274e13" stroke-width="3.0" stroke-linejoin="round" stroke-linecap="butt" d="m125.66404 61.2231l69.18209 0.72481155" fill-rule="evenodd"/><path fill="#274e13" stroke="#274e13" stroke-width="3.0" stroke-linecap="butt" d="m194.79422 66.90283l13.665451 -4.812294l-13.56163 -5.0975533z" fill-rule="evenodd"/><path fill="#000000" fill-opacity="0.0" d="m122.95538 154.53018l88.97638 -0.47244263" fill-rule="evenodd"/><path stroke="#274e13" stroke-width="3.0" stroke-linejoin="round" stroke-linecap="butt" d="m122.95538 154.53018l70.97662 -0.37686157" fill-rule="evenodd"/><path fill="#274e13" stroke="#274e13" stroke-width="3.0" stroke-linecap="butt" d="m193.95833 159.10844l13.587784 -5.02742l-13.640411 -4.8828278z" fill-rule="evenodd"/><path fill="#000000" fill-opacity="0.0" d="m479.71127 109.92913l75.14963 0" fill-rule="evenodd"/><path stroke="#660000" stroke-width="3.0" stroke-linejoin="round" stroke-linecap="butt" d="m479.71127 109.92913l57.149628 0" fill-rule="evenodd"/><path fill="#660000" stroke="#660000" stroke-width="3.0" stroke-linecap="butt" d="m536.8609 114.88433l13.614258 -4.9552l-13.614258 -4.9551926z" fill-rule="evenodd"/><path fill="#f4cccc" d="m554.8609 76.86614l0 0c0 6.0577393 19.643066 10.968506 43.874023 10.968506c24.230957 0 43.874023 -4.9107666 43.874023 -10.968506l0 66.125984c0 6.0577393 -19.643066 10.968506 -43.874023 10.968506c-24.230957 0 -43.874023 -4.9107666 -43.874023 -10.968506z" fill-rule="evenodd"/><path fill="#f8e0e0" d="m554.8609 76.86614l0 0c0 -6.0577393 19.643066 -10.968506 43.874023 -10.968506c24.230957 0 43.874023 4.9107666 43.874023 10.968506l0 0c0 6.0577393 -19.643066 10.968506 -43.874023 10.968506c-24.230957 0 -43.874023 -4.9107666 -43.874023 -10.968506z" fill-rule="evenodd"/><path fill="#000000" fill-opacity="0.0" d="m642.60895 76.86614l0 0c0 6.0577393 -19.643066 10.968506 -43.874023 10.968506c-24.230957 0 -43.874023 -4.9107666 -43.874023 -10.968506l0 0c0 -6.0577393 19.643066 -10.968506 43.874023 -10.968506c24.230957 0 43.874023 4.9107666 43.874023 10.968506l0 66.125984c0 6.0577393 -19.643066 10.968506 -43.874023 10.968506c-24.230957 0 -43.874023 -4.9107666 -43.874023 -10.968506l0 -66.125984" fill-rule="evenodd"/><path stroke="#660000" stroke-width="3.0" stroke-linejoin="round" stroke-linecap="butt" d="m642.60895 76.86614l0 0c0 6.0577393 -19.643066 10.968506 -43.874023 10.968506c-24.230957 0 -43.874023 -4.9107666 -43.874023 -10.968506l0 0c0 -6.0577393 19.643066 -10.968506 43.874023 -10.968506c24.230957 0 43.874023 4.9107666 43.874023 10.968506l0 66.125984c0 6.0577393 -19.643066 10.968506 -43.874023 10.968506c-24.230957 0 -43.874023 -4.9107666 -43.874023 -10.968506l0 -66.125984" fill-rule="evenodd"/><path fill="#000000" d="m567.2109 110.00901l3.875 0q1.296875 0 1.984375 0.1875q0.921875 0.28125 1.578125 0.984375q0.671875 0.6875 1.015625 1.6875q0.34375 1.0 0.34375 2.484375q0 1.296875 -0.328125 2.234375q-0.390625 1.140625 -1.125 1.84375q-0.546875 0.546875 -1.484375 0.84375q-0.703125 0.21875 -1.875 0.21875l-3.984375 0l0 -10.484375zm2.109375 1.765625l0 6.953125l1.59375 0q0.875 0 1.28125 -0.109375q0.515625 -0.125 0.84375 -0.421875q0.34375 -0.3125 0.5625 -1.015625q0.21875 -0.703125 0.21875 -1.921875q0 -1.21875 -0.21875 -1.859375q-0.21875 -0.65625 -0.609375 -1.015625q-0.375 -0.375 -0.96875 -0.5q-0.453125 -0.109375 -1.75 -0.109375l-0.953125 0zm9.974915 3.4375l-1.828125 -0.328125q0.296875 -1.109375 1.046875 -1.625q0.765625 -0.53125 2.234375 -0.53125q1.359375 0 2.015625 0.3125q0.65625 0.3125 0.921875 0.8125q0.265625 0.484375 0.265625 1.796875l-0.015625 2.34375q0 1.0 0.09375 1.484375q0.09375 0.46875 0.359375 1.015625l-1.984375 0q-0.078125 -0.203125 -0.203125 -0.59375q-0.046875 -0.171875 -0.0625 -0.234375q-0.515625 0.5 -1.109375 0.75q-0.578125 0.25 -1.25 0.25q-1.171875 0 -1.859375 -0.640625q-0.671875 -0.640625 -0.671875 -1.609375q0 -0.640625 0.3125 -1.140625q0.3125 -0.515625 0.859375 -0.78125q0.5625 -0.265625 1.609375 -0.46875q1.40625 -0.265625 1.953125 -0.484375l0 -0.203125q0 -0.578125 -0.296875 -0.828125q-0.28125 -0.25 -1.078125 -0.25q-0.53125 0 -0.84375 0.21875q-0.296875 0.203125 -0.46875 0.734375zm2.6875 1.625q-0.390625 0.140625 -1.234375 0.328125q-0.828125 0.171875 -1.09375 0.34375q-0.390625 0.265625 -0.390625 0.703125q0 0.421875 0.3125 0.734375q0.3125 0.296875 0.8125 0.296875q0.53125 0 1.03125 -0.359375q0.359375 -0.265625 0.484375 -0.65625q0.078125 -0.265625 0.078125 -0.984375l0 -0.40625zm7.432312 -3.9375l0 1.59375l-1.375 0l0 3.0625q0 0.9375 0.03125 1.09375q0.046875 0.140625 0.1875 0.25q0.140625 0.09375 0.34375 0.09375q0.28125 0 0.8125 -0.1875l0.171875 1.5625q-0.703125 0.296875 -1.59375 0.296875q-0.546875 0 -0.984375 -0.171875q-0.421875 -0.1875 -0.640625 -0.46875q-0.203125 -0.296875 -0.28125 -0.796875q-0.0625 -0.359375 -0.0625 -1.421875l0 -3.3125l-0.921875 0l0 -1.59375l0.921875 0l0 -1.515625l2.015625 -1.171875l0 2.6875l1.375 0zm2.9119263 2.3125l-1.828125 -0.328125q0.296875 -1.109375 1.046875 -1.625q0.765625 -0.53125 2.234375 -0.53125q1.359375 0 2.015625 0.3125q0.65625 0.3125 0.921875 0.8125q0.265625 0.484375 0.265625 1.796875l-0.015625 2.34375q0 1.0 0.09375 1.484375q0.09375 0.46875 0.359375 1.015625l-1.984375 0q-0.078125 -0.203125 -0.203125 -0.59375q-0.046875 -0.171875 -0.0625 -0.234375q-0.515625 0.5 -1.109375 0.75q-0.578125 0.25 -1.25 0.25q-1.171875 0 -1.859375 -0.640625q-0.671875 -0.640625 -0.671875 -1.609375q0 -0.640625 0.3125 -1.140625q0.3125 -0.515625 0.859375 -0.78125q0.5625 -0.265625 1.609375 -0.46875q1.40625 -0.265625 1.953125 -0.484375l0 -0.203125q0 -0.578125 -0.296875 -0.828125q-0.28125 -0.25 -1.078125 -0.25q-0.53125 0 -0.84375 0.21875q-0.296875 0.203125 -0.46875 0.734375zm2.6875 1.625q-0.390625 0.140625 -1.234375 0.328125q-0.828125 0.171875 -1.09375 0.34375q-0.390625 0.265625 -0.390625 0.703125q0 0.421875 0.3125 0.734375q0.3125 0.296875 0.8125 0.296875q0.53125 0 1.03125 -0.359375q0.359375 -0.265625 0.484375 -0.65625q0.078125 -0.265625 0.078125 -0.984375l0 -0.40625zm3.869873 3.65625l0 -10.484375l2.015625 0l0 3.765625q0.921875 -1.046875 2.203125 -1.046875q1.375 0 2.28125 1.0q0.921875 1.0 0.921875 2.890625q0 1.9375 -0.9375 3.0q-0.921875 1.046875 -2.25 1.046875q-0.640625 0 -1.28125 -0.328125q-0.625 -0.328125 -1.09375 -0.953125l0 1.109375l-1.859375 0zm2.0 -3.96875q0 1.1875 0.359375 1.75q0.53125 0.796875 1.390625 0.796875q0.671875 0 1.140625 -0.5625q0.46875 -0.578125 0.46875 -1.796875q0 -1.296875 -0.484375 -1.875q-0.46875 -0.578125 -1.203125 -0.578125q-0.71875 0 -1.203125 0.5625q-0.46875 0.5625 -0.46875 1.703125zm8.546326 -1.3125l-1.828125 -0.328125q0.296875 -1.109375 1.046875 -1.625q0.765625 -0.53125 2.234375 -0.53125q1.359375 0 2.015625 0.3125q0.65625 0.3125 0.921875 0.8125q0.265625 0.484375 0.265625 1.796875l-0.015625 2.34375q0 1.0 0.09375 1.484375q0.09375 0.46875 0.359375 1.015625l-1.984375 0q-0.078125 -0.203125 -0.203125 -0.59375q-0.046875 -0.171875 -0.0625 -0.234375q-0.515625 0.5 -1.109375 0.75q-0.578125 0.25 -1.25 0.25q-1.171875 0 -1.859375 -0.640625q-0.671875 -0.640625 -0.671875 -1.609375q0 -0.640625 0.3125 -1.140625q0.3125 -0.515625 0.859375 -0.78125q0.5625 -0.265625 1.609375 -0.46875q1.40625 -0.265625 1.953125 -0.484375l0 -0.203125q0 -0.578125 -0.296875 -0.828125q-0.28125 -0.25 -1.078125 -0.25q-0.53125 0 -0.84375 0.21875q-0.296875 0.203125 -0.46875 0.734375zm2.6875 1.625q-0.390625 0.140625 -1.234375 0.328125q-0.828125 0.171875 -1.09375 0.34375q-0.390625 0.265625 -0.390625 0.703125q0 0.421875 0.3125 0.734375q0.3125 0.296875 0.8125 0.296875q0.53125 0 1.03125 -0.359375q0.359375 -0.265625 0.484375 -0.65625q0.078125 -0.265625 0.078125 -0.984375l0 -0.40625zm3.244873 1.484375l2.015625 -0.296875q0.125 0.578125 0.515625 0.890625q0.40625 0.296875 1.109375 0.296875q0.78125 0 1.171875 -0.28125q0.265625 -0.203125 0.265625 -0.546875q0 -0.21875 -0.140625 -0.375q-0.15625 -0.140625 -0.671875 -0.265625q-2.4375 -0.53125 -3.078125 -0.984375q-0.90625 -0.609375 -0.90625 -1.703125q0 -0.984375 0.78125 -1.65625q0.78125 -0.671875 2.421875 -0.671875q1.546875 0 2.3125 0.515625q0.765625 0.5 1.046875 1.484375l-1.90625 0.359375q-0.109375 -0.453125 -0.453125 -0.6875q-0.34375 -0.234375 -0.96875 -0.234375q-0.796875 0 -1.140625 0.21875q-0.234375 0.15625 -0.234375 0.40625q0 0.21875 0.203125 0.375q0.28125 0.203125 1.875 0.5625q1.609375 0.359375 2.25 0.890625q0.625 0.546875 0.625 1.5q0 1.046875 -0.875 1.796875q-0.859375 0.75 -2.578125 0.75q-1.546875 0 -2.453125 -0.625q-0.90625 -0.640625 -1.1875 -1.71875zm13.260498 -0.25l2.0 0.34375q-0.375 1.09375 -1.21875 1.671875q-0.828125 0.578125 -2.078125 0.578125q-1.984375 0 -2.9375 -1.296875q-0.75 -1.03125 -0.75 -2.625q0 -1.875 0.984375 -2.9375q0.984375 -1.078125 2.5 -1.078125q1.6875 0 2.671875 1.125q0.984375 1.109375 0.9375 3.421875l-5.03125 0q0.015625 0.890625 0.484375 1.390625q0.46875 0.5 1.15625 0.5q0.46875 0 0.78125 -0.25q0.328125 -0.265625 0.5 -0.84375zm0.109375 -2.03125q-0.015625 -0.875 -0.453125 -1.328125q-0.421875 -0.453125 -1.03125 -0.453125q-0.671875 0 -1.09375 0.484375q-0.421875 0.46875 -0.421875 1.296875l3.0 0z" fill-rule="nonzero"/></g></svg>