<svg version="1.1" viewBox="0.0 0.0 415.79265091863516 418.07086614173227" fill="none" stroke="none" stroke-linecap="square" stroke-miterlimit="10" xmlns:xlink="http://www.w3.org/1999/xlink" xmlns="http://www.w3.org/2000/svg"><clipPath id="p.0"><path d="m0 0l415.79266 0l0 418.07086l-415.79266 0l0 -418.07086z" clip-rule="nonzero"/></clipPath><g clip-path="url(#p.0)"><path fill="#000000" fill-opacity="0.0" d="m0 0l415.79266 0l0 418.07086l-415.79266 0z" fill-rule="evenodd"/><path fill="#cfe2f3" d="m129.89896 20.335958l159.37009 0l0 57.5748l-159.37009 0z" fill-rule="evenodd"/><path stroke="#3d85c6" stroke-width="3.0" stroke-linejoin="round" stroke-linecap="butt" d="m129.89896 20.335958l159.37009 0l0 57.5748l-159.37009 0z" fill-rule="evenodd"/><path fill="#3d85c6" d="m185.61676 44.637108l2.609375 0.828125q-0.59375 2.1875 -2.0 3.25q-1.390625 1.0625 -3.546875 1.0625q-2.65625 0 -4.375 -1.8125q-1.703125 -1.828125 -1.703125 -4.984375q0 -3.328125 1.71875 -5.171875q1.71875 -1.84375 4.515625 -1.84375q2.453125 0 3.984375 1.4375q0.921875 0.859375 1.375 2.46875l-2.671875 0.640625q-0.234375 -1.046875 -0.984375 -1.640625q-0.75 -0.609375 -1.828125 -0.609375q-1.484375 0 -2.421875 1.078125q-0.921875 1.0625 -0.921875 3.4375q0 2.53125 0.90625 3.609375q0.921875 1.078125 2.375 1.078125q1.078125 0 1.84375 -0.671875q0.78125 -0.6875 1.125 -2.15625zm4.910446 4.90625l0 -13.359375l2.5625 0l0 13.359375l-2.5625 0zm7.089554 -6.71875l-2.328125 -0.421875q0.40625 -1.40625 1.359375 -2.078125q0.953125 -0.671875 2.84375 -0.671875q1.703125 0 2.546875 0.40625q0.84375 0.40625 1.171875 1.03125q0.34375 0.625 0.34375 2.28125l-0.015625 3.0q0 1.265625 0.109375 1.875q0.125 0.609375 0.46875 1.296875l-2.53125 0q-0.109375 -0.25 -0.25 -0.75q-0.0625 -0.234375 -0.09375 -0.3125q-0.65625 0.640625 -1.40625 0.96875q-0.734375 0.3125 -1.59375 0.3125q-1.484375 0 -2.34375 -0.8125q-0.859375 -0.8125 -0.859375 -2.046875q0 -0.828125 0.390625 -1.46875q0.390625 -0.640625 1.09375 -0.96875q0.703125 -0.34375 2.03125 -0.609375q1.796875 -0.328125 2.484375 -0.625l0 -0.25q0 -0.75 -0.359375 -1.0625q-0.359375 -0.3125 -1.375 -0.3125q-0.6875 0 -1.078125 0.28125q-0.375 0.265625 -0.609375 0.9375zm3.421875 2.078125q-0.484375 0.15625 -1.5625 0.390625q-1.0625 0.21875 -1.390625 0.4375q-0.5 0.359375 -0.5 0.90625q0 0.53125 0.40625 0.9375q0.40625 0.390625 1.015625 0.390625q0.703125 0 1.328125 -0.46875q0.46875 -0.34375 0.609375 -0.84375q0.09375 -0.328125 0.09375 -1.25l0 -0.5zm4.141342 1.875l2.5625 -0.390625q0.171875 0.75 0.671875 1.140625q0.5 0.390625 1.40625 0.390625q0.984375 0 1.484375 -0.375q0.34375 -0.25 0.34375 -0.671875q0 -0.296875 -0.1875 -0.484375q-0.1875 -0.1875 -0.859375 -0.34375q-3.09375 -0.6875 -3.921875 -1.25q-1.140625 -0.78125 -1.140625 -2.171875q0 -1.265625 0.984375 -2.109375q1.0 -0.859375 3.078125 -0.859375q1.984375 0 2.953125 0.65625q0.96875 0.640625 1.328125 1.90625l-2.40625 0.4375q-0.15625 -0.5625 -0.59375 -0.859375q-0.421875 -0.296875 -1.234375 -0.296875q-1.0 0 -1.4375 0.28125q-0.296875 0.203125 -0.296875 0.515625q0 0.265625 0.25 0.46875q0.34375 0.25 2.390625 0.71875q2.046875 0.453125 2.859375 1.140625q0.796875 0.671875 0.796875 1.890625q0 1.34375 -1.109375 2.296875q-1.109375 0.953125 -3.28125 0.953125q-1.984375 0 -3.140625 -0.796875q-1.140625 -0.8125 -1.5 -2.1875zm10.375717 0l2.5625 -0.390625q0.171875 0.75 0.671875 1.140625q0.5 0.390625 1.40625 0.390625q0.984375 0 1.484375 -0.375q0.34375 -0.25 0.34375 -0.671875q0 -0.296875 -0.1875 -0.484375q-0.1875 -0.1875 -0.859375 -0.34375q-3.09375 -0.6875 -3.921875 -1.25q-1.140625 -0.78125 -1.140625 -2.171875q0 -1.265625 0.984375 -2.109375q1.0 -0.859375 3.078125 -0.859375q1.984375 0 2.953125 0.65625q0.96875 0.640625 1.328125 1.90625l-2.40625 0.4375q-0.15625 -0.5625 -0.59375 -0.859375q-0.421875 -0.296875 -1.234375 -0.296875q-1.0 0 -1.4375 0.28125q-0.296875 0.203125 -0.296875 0.515625q0 0.265625 0.25 0.46875q0.34375 0.25 2.390625 0.71875q2.046875 0.453125 2.859375 1.140625q0.796875 0.671875 0.796875 1.890625q0 1.34375 -1.109375 2.296875q-1.109375 0.953125 -3.28125 0.953125q-1.984375 0 -3.140625 -0.796875q-1.140625 -0.8125 -1.5 -2.1875zm27.835068 2.765625l-2.9375 0l-1.171875 -3.03125l-5.328125 0l-1.109375 3.03125l-2.859375 0l5.203125 -13.359375l2.84375 0l5.359375 13.359375zm-4.96875 -5.28125l-1.84375 -4.953125l-1.796875 4.953125l3.640625 0z" fill-rule="nonzero"/><path fill="#3d85c6" d="m193.43092 63.863354l0 -6.34375l-2.265625 0l0 -1.28125l6.0625 0l0 1.28125l-2.265625 0l0 6.34375l-1.53125 0zm7.1863403 -1.765625l1.453125 0.25q-0.28125 0.796875 -0.890625 1.21875q-0.609375 0.421875 -1.515625 0.421875q-1.4375 0 -2.125 -0.9375q-0.546875 -0.765625 -0.546875 -1.90625q0 -1.375 0.71875 -2.15625q0.71875 -0.78125 1.8125 -0.78125q1.234375 0 1.9375 0.828125q0.71875 0.8125 0.6875 2.484375l-3.65625 0q0.015625 0.65625 0.34375 1.015625q0.34375 0.359375 0.84375 0.359375q0.34375 0 0.578125 -0.1875q0.234375 -0.1875 0.359375 -0.609375zm0.078125 -1.46875q-0.015625 -0.640625 -0.328125 -0.96875q-0.3125 -0.328125 -0.765625 -0.328125q-0.46875 0 -0.78125 0.34375q-0.3125 0.359375 -0.3125 0.953125l2.1875 0zm3.7389984 -0.609375l-1.328125 -0.234375q0.21875 -0.796875 0.765625 -1.1875q0.546875 -0.390625 1.625 -0.390625q0.984375 0 1.453125 0.234375q0.484375 0.234375 0.671875 0.59375q0.203125 0.359375 0.203125 1.3125l-0.015625 1.703125q0 0.71875 0.0625 1.078125q0.078125 0.34375 0.265625 0.734375l-1.4375 0q-0.0625 -0.140625 -0.140625 -0.4375q-0.046875 -0.125 -0.0625 -0.171875q-0.375 0.375 -0.796875 0.5625q-0.421875 0.171875 -0.90625 0.171875q-0.859375 0 -1.359375 -0.453125q-0.484375 -0.46875 -0.484375 -1.1875q0 -0.46875 0.21875 -0.828125q0.234375 -0.359375 0.640625 -0.546875q0.40625 -0.203125 1.15625 -0.359375q1.03125 -0.1875 1.421875 -0.359375l0 -0.140625q0 -0.421875 -0.21875 -0.59375q-0.203125 -0.1875 -0.78125 -0.1875q-0.375 0 -0.59375 0.15625q-0.21875 0.15625 -0.359375 0.53125zm1.953125 1.1875q-0.28125 0.09375 -0.890625 0.234375q-0.609375 0.125 -0.796875 0.25q-0.28125 0.203125 -0.28125 0.515625q0 0.296875 0.21875 0.53125q0.234375 0.21875 0.59375 0.21875q0.390625 0 0.75 -0.265625q0.265625 -0.1875 0.34375 -0.484375q0.0625 -0.1875 0.0625 -0.703125l0 -0.296875zm2.7702484 -2.875l1.34375 0l0 0.765625q0.71875 -0.890625 1.71875 -0.890625q0.53125 0 0.921875 0.21875q0.390625 0.21875 0.640625 0.671875q0.375 -0.453125 0.796875 -0.671875q0.421875 -0.21875 0.890625 -0.21875q0.609375 0 1.03125 0.25q0.421875 0.25 0.625 0.734375q0.15625 0.34375 0.15625 1.140625l0 3.53125l-1.453125 0l0 -3.15625q0 -0.828125 -0.15625 -1.0625q-0.203125 -0.3125 -0.625 -0.3125q-0.3125 0 -0.578125 0.1875q-0.265625 0.1875 -0.390625 0.546875q-0.125 0.359375 -0.125 1.140625l0 2.65625l-1.453125 0l0 -3.03125q0 -0.796875 -0.078125 -1.03125q-0.078125 -0.234375 -0.25 -0.34375q-0.15625 -0.125 -0.4375 -0.125q-0.34375 0 -0.609375 0.1875q-0.265625 0.171875 -0.390625 0.515625q-0.109375 0.34375 -0.109375 1.140625l0 2.6875l-1.46875 0l0 -5.53125zm19.039932 5.53125l-1.671875 0l-0.671875 -1.734375l-3.046875 0l-0.625 1.734375l-1.640625 0l2.96875 -7.625l1.625 0l3.0625 7.625zm-2.84375 -3.015625l-1.046875 -2.828125l-1.03125 2.828125l2.078125 0z" fill-rule="nonzero"/><path fill="#d9ead3" d="m129.89896 123.47244l159.37009 0l0 57.5748l-159.37009 0z" fill-rule="evenodd"/><path stroke="#38761d" stroke-width="3.0" stroke-linejoin="round" stroke-linecap="butt" d="m129.89896 123.47244l159.37009 0l0 57.5748l-159.37009 0z" fill-rule="evenodd"/><path fill="#38761d" d="m185.27042 147.77359l2.609375 0.828125q-0.59375 2.1875 -2.0 3.25q-1.390625 1.0625 -3.546875 1.0625q-2.65625 0 -4.375 -1.8125q-1.703125 -1.828125 -1.703125 -4.984375q0 -3.328125 1.71875 -5.171875q1.71875 -1.84375 4.515625 -1.84375q2.453125 0 3.984375 1.4375q0.921875 0.859375 1.375 2.46875l-2.671875 0.640625q-0.234375 -1.046875 -0.984375 -1.640625q-0.75 -0.609375 -1.828125 -0.609375q-1.484375 0 -2.421875 1.078125q-0.921875 1.0625 -0.921875 3.4375q0 2.53125 0.90625 3.609375q0.921875 1.078125 2.375 1.078125q1.078125 0 1.84375 -0.671875q0.78125 -0.6875 1.125 -2.15625zm4.910446 4.90625l0 -13.359375l2.5625 0l0 13.359375l-2.5625 0zm7.089554 -6.71875l-2.328125 -0.421875q0.40625 -1.40625 1.359375 -2.078125q0.953125 -0.671875 2.84375 -0.671875q1.703125 0 2.546875 0.40625q0.84375 0.40625 1.171875 1.03125q0.34375 0.625 0.34375 2.28125l-0.015625 3.0q0 1.265625 0.109375 1.875q0.125 0.609375 0.46875 1.296875l-2.53125 0q-0.109375 -0.25 -0.25 -0.75q-0.0625 -0.234375 -0.09375 -0.3125q-0.65625 0.640625 -1.40625 0.96875q-0.734375 0.3125 -1.59375 0.3125q-1.484375 0 -2.34375 -0.8125q-0.859375 -0.8125 -0.859375 -2.046875q0 -0.828125 0.390625 -1.46875q0.390625 -0.640625 1.09375 -0.96875q0.703125 -0.34375 2.03125 -0.609375q1.796875 -0.328125 2.484375 -0.625l0 -0.25q0 -0.75 -0.359375 -1.0625q-0.359375 -0.3125 -1.375 -0.3125q-0.6875 0 -1.078125 0.28125q-0.375 0.265625 -0.609375 0.9375zm3.421875 2.078125q-0.484375 0.15625 -1.5625 0.390625q-1.0625 0.21875 -1.390625 0.4375q-0.5 0.359375 -0.5 0.90625q0 0.53125 0.40625 0.9375q0.40625 0.390625 1.015625 0.390625q0.703125 0 1.328125 -0.46875q0.46875 -0.34375 0.609375 -0.84375q0.09375 -0.328125 0.09375 -1.25l0 -0.5zm4.141342 1.875l2.5625 -0.390625q0.171875 0.75 0.671875 1.140625q0.5 0.390625 1.40625 0.390625q0.984375 0 1.484375 -0.375q0.34375 -0.25 0.34375 -0.671875q0 -0.296875 -0.1875 -0.484375q-0.1875 -0.1875 -0.859375 -0.34375q-3.09375 -0.6875 -3.921875 -1.25q-1.140625 -0.78125 -1.140625 -2.171875q0 -1.265625 0.984375 -2.109375q1.0 -0.859375 3.078125 -0.859375q1.984375 0 2.953125 0.65625q0.96875 0.640625 1.328125 1.90625l-2.40625 0.4375q-0.15625 -0.5625 -0.59375 -0.859375q-0.421875 -0.296875 -1.234375 -0.296875q-1.0 0 -1.4375 0.28125q-0.296875 0.203125 -0.296875 0.515625q0 0.265625 0.25 0.46875q0.34375 0.25 2.390625 0.71875q2.046875 0.453125 2.859375 1.140625q0.796875 0.671875 0.796875 1.890625q0 1.34375 -1.109375 2.296875q-1.109375 0.953125 -3.28125 0.953125q-1.984375 0 -3.140625 -0.796875q-1.140625 -0.8125 -1.5 -2.1875zm10.375717 0l2.5625 -0.390625q0.171875 0.75 0.671875 1.140625q0.5 0.390625 1.40625 0.390625q0.984375 0 1.484375 -0.375q0.34375 -0.25 0.34375 -0.671875q0 -0.296875 -0.1875 -0.484375q-0.1875 -0.1875 -0.859375 -0.34375q-3.09375 -0.6875 -3.921875 -1.25q-1.140625 -0.78125 -1.140625 -2.171875q0 -1.265625 0.984375 -2.109375q1.0 -0.859375 3.078125 -0.859375q1.984375 0 2.953125 0.65625q0.96875 0.640625 1.328125 1.90625l-2.40625 0.4375q-0.15625 -0.5625 -0.59375 -0.859375q-0.421875 -0.296875 -1.234375 -0.296875q-1.0 0 -1.4375 0.28125q-0.296875 0.203125 -0.296875 0.515625q0 0.265625 0.25 0.46875q0.34375 0.25 2.390625 0.71875q2.046875 0.453125 2.859375 1.140625q0.796875 0.671875 0.796875 1.890625q0 1.34375 -1.109375 2.296875q-1.109375 0.953125 -3.28125 0.953125q-1.984375 0 -3.140625 -0.796875q-1.140625 -0.8125 -1.5 -2.1875zm16.480896 -10.59375l5.34375 0q1.59375 0 2.359375 0.140625q0.78125 0.125 1.390625 0.546875q0.625 0.421875 1.03125 1.125q0.40625 0.6875 0.40625 1.546875q0 0.9375 -0.5 1.734375q-0.5 0.78125 -1.375 1.171875q1.21875 0.359375 1.875 1.21875q0.65625 0.84375 0.65625 2.0q0 0.921875 -0.421875 1.78125q-0.421875 0.859375 -1.15625 1.375q-0.734375 0.515625 -1.796875 0.625q-0.6875 0.078125 -3.265625 0.09375l-4.546875 0l0 -13.359375zm2.703125 2.234375l0 3.078125l1.765625 0q1.578125 0 1.953125 -0.046875q0.703125 -0.078125 1.09375 -0.46875q0.40625 -0.40625 0.40625 -1.046875q0 -0.625 -0.34375 -1.0q-0.34375 -0.390625 -1.015625 -0.484375q-0.40625 -0.03125 -2.3125 -0.03125l-1.546875 0zm0 5.296875l0 3.578125l2.5 0q1.453125 0 1.84375 -0.078125q0.609375 -0.109375 0.984375 -0.53125q0.375 -0.421875 0.375 -1.140625q0 -0.59375 -0.296875 -1.015625q-0.28125 -0.421875 -0.84375 -0.609375q-0.546875 -0.203125 -2.390625 -0.203125l-2.171875 0z" fill-rule="nonzero"/><path fill="#38761d" d="m193.23302 166.99983l0 -6.34375l-2.265625 0l0 -1.28125l6.0625 0l0 1.28125l-2.265625 0l0 6.34375l-1.53125 0zm7.1863403 -1.765625l1.453125 0.25q-0.28125 0.796875 -0.890625 1.21875q-0.609375 0.421875 -1.515625 0.421875q-1.4375 0 -2.125 -0.9375q-0.546875 -0.765625 -0.546875 -1.90625q0 -1.375 0.71875 -2.15625q0.71875 -0.78125 1.8125 -0.78125q1.234375 0 1.9375 0.828125q0.71875 0.8125 0.6875 2.484375l-3.65625 0q0.015625 0.65625 0.34375 1.015625q0.34375 0.359375 0.84375 0.359375q0.34375 0 0.578125 -0.1875q0.234375 -0.1875 0.359375 -0.609375zm0.078125 -1.46875q-0.015625 -0.640625 -0.328125 -0.96875q-0.3125 -0.328125 -0.765625 -0.328125q-0.46875 0 -0.78125 0.34375q-0.3125 0.359375 -0.3125 0.953125l2.1875 0zm3.7389984 -0.609375l-1.328125 -0.234375q0.21875 -0.796875 0.765625 -1.1875q0.546875 -0.390625 1.625 -0.390625q0.984375 0 1.453125 0.234375q0.484375 0.234375 0.671875 0.59375q0.203125 0.359375 0.203125 1.3125l-0.015625 1.703125q0 0.71875 0.0625 1.078125q0.078125 0.34375 0.265625 0.734375l-1.4375 0q-0.0625 -0.140625 -0.140625 -0.4375q-0.046875 -0.125 -0.0625 -0.171875q-0.375 0.375 -0.796875 0.5625q-0.421875 0.171875 -0.90625 0.171875q-0.859375 0 -1.359375 -0.453125q-0.484375 -0.46875 -0.484375 -1.1875q0 -0.46875 0.21875 -0.828125q0.234375 -0.359375 0.640625 -0.546875q0.40625 -0.203125 1.15625 -0.359375q1.03125 -0.1875 1.421875 -0.359375l0 -0.140625q0 -0.421875 -0.21875 -0.59375q-0.203125 -0.1875 -0.78125 -0.1875q-0.375 0 -0.59375 0.15625q-0.21875 0.15625 -0.359375 0.53125zm1.953125 1.1875q-0.28125 0.09375 -0.890625 0.234375q-0.609375 0.125 -0.796875 0.25q-0.28125 0.203125 -0.28125 0.515625q0 0.296875 0.21875 0.53125q0.234375 0.21875 0.59375 0.21875q0.390625 0 0.75 -0.265625q0.265625 -0.1875 0.34375 -0.484375q0.0625 -0.1875 0.0625 -0.703125l0 -0.296875zm2.7702484 -2.875l1.34375 0l0 0.765625q0.71875 -0.890625 1.71875 -0.890625q0.53125 0 0.921875 0.21875q0.390625 0.21875 0.640625 0.671875q0.375 -0.453125 0.796875 -0.671875q0.421875 -0.21875 0.890625 -0.21875q0.609375 0 1.03125 0.25q0.421875 0.25 0.625 0.734375q0.15625 0.34375 0.15625 1.140625l0 3.53125l-1.453125 0l0 -3.15625q0 -0.828125 -0.15625 -1.0625q-0.203125 -0.3125 -0.625 -0.3125q-0.3125 0 -0.578125 0.1875q-0.265625 0.1875 -0.390625 0.546875q-0.125 0.359375 -0.125 1.140625l0 2.65625l-1.453125 0l0 -3.03125q0 -0.796875 -0.078125 -1.03125q-0.078125 -0.234375 -0.25 -0.34375q-0.15625 -0.125 -0.4375 -0.125q-0.34375 0 -0.609375 0.1875q-0.265625 0.171875 -0.390625 0.515625q-0.109375 0.34375 -0.109375 1.140625l0 2.6875l-1.46875 0l0 -5.53125zm12.5607605 -2.09375l3.046875 0q0.90625 0 1.34375 0.078125q0.453125 0.0625 0.796875 0.3125q0.359375 0.234375 0.59375 0.640625q0.234375 0.390625 0.234375 0.890625q0 0.53125 -0.296875 0.984375q-0.28125 0.4375 -0.78125 0.671875q0.703125 0.203125 1.078125 0.6875q0.375 0.484375 0.375 1.140625q0 0.53125 -0.25 1.03125q-0.234375 0.484375 -0.65625 0.78125q-0.421875 0.28125 -1.03125 0.359375q-0.390625 0.03125 -1.859375 0.046875l-2.59375 0l0 -7.625zm1.546875 1.265625l0 1.765625l1.0 0q0.90625 0 1.125 -0.03125q0.390625 -0.046875 0.609375 -0.265625q0.234375 -0.234375 0.234375 -0.59375q0 -0.359375 -0.203125 -0.578125q-0.1875 -0.21875 -0.578125 -0.265625q-0.21875 -0.03125 -1.3125 -0.03125l-0.875 0zm0 3.03125l0 2.046875l1.421875 0q0.828125 0 1.046875 -0.046875q0.34375 -0.0625 0.5625 -0.296875q0.21875 -0.25 0.21875 -0.65625q0 -0.34375 -0.171875 -0.578125q-0.15625 -0.25 -0.484375 -0.359375q-0.3125 -0.109375 -1.359375 -0.109375l-1.234375 0z" fill-rule="nonzero"/><path fill="#000000" fill-opacity="0.0" d="m209.58398 123.47244l0 -45.574806" fill-rule="evenodd"/><path stroke="#38761d" stroke-width="3.0" stroke-linejoin="round" stroke-linecap="butt" d="m209.58398 123.47244l0 -35.29354" fill-rule="evenodd"/><path fill="#38761d" stroke="#38761d" stroke-width="3.0" stroke-linecap="butt" d="m209.58398 88.178894l3.3737488 3.3737564l-3.3737488 -9.26931l-3.3737488 9.26931z" fill-rule="evenodd"/><path fill="#d9d2e9" d="m129.89896 226.60892l159.37009 0l0 57.5748l-159.37009 0z" fill-rule="evenodd"/><path stroke="#351c75" stroke-width="3.0" stroke-linejoin="round" stroke-linecap="butt" d="m129.89896 226.60892l159.37009 0l0 57.5748l-159.37009 0z" fill-rule="evenodd"/><path fill="#351c75" d="m185.27042 250.91008l2.609375 0.828125q-0.59375 2.1875 -2.0 3.25q-1.390625 1.0624847 -3.546875 1.0624847q-2.65625 0 -4.375 -1.8124847q-1.703125 -1.828125 -1.703125 -4.984375q0 -3.328125 1.71875 -5.171875q1.71875 -1.84375 4.515625 -1.84375q2.453125 0 3.984375 1.4375q0.921875 0.859375 1.375 2.46875l-2.671875 0.640625q-0.234375 -1.046875 -0.984375 -1.640625q-0.75 -0.609375 -1.828125 -0.609375q-1.484375 0 -2.421875 1.078125q-0.921875 1.0625 -0.921875 3.4375q0 2.53125 0.90625 3.609375q0.921875 1.078125 2.375 1.078125q1.078125 0 1.84375 -0.671875q0.78125 -0.6875 1.125 -2.15625zm4.910446 4.90625l0 -13.359375l2.5625 0l0 13.359375l-2.5625 0zm7.089554 -6.71875l-2.328125 -0.421875q0.40625 -1.40625 1.359375 -2.078125q0.953125 -0.671875 2.84375 -0.671875q1.703125 0 2.546875 0.40625q0.84375 0.40625 1.171875 1.03125q0.34375 0.625 0.34375 2.28125l-0.015625 3.0q0 1.265625 0.109375 1.875q0.125 0.609375 0.46875 1.296875l-2.53125 0q-0.109375 -0.25 -0.25 -0.75q-0.0625 -0.234375 -0.09375 -0.3125q-0.65625 0.640625 -1.40625 0.96875q-0.734375 0.31248474 -1.59375 0.31248474q-1.484375 0 -2.34375 -0.81248474q-0.859375 -0.8125 -0.859375 -2.046875q0 -0.828125 0.390625 -1.46875q0.390625 -0.640625 1.09375 -0.96875q0.703125 -0.34375 2.03125 -0.609375q1.796875 -0.328125 2.484375 -0.625l0 -0.25q0 -0.75 -0.359375 -1.0625q-0.359375 -0.3125 -1.375 -0.3125q-0.6875 0 -1.078125 0.28125q-0.375 0.265625 -0.609375 0.9375zm3.421875 2.078125q-0.484375 0.15625 -1.5625 0.390625q-1.0625 0.21875 -1.390625 0.4375q-0.5 0.359375 -0.5 0.90625q0 0.53125 0.40625 0.9375q0.40625 0.390625 1.015625 0.390625q0.703125 0 1.328125 -0.46875q0.46875 -0.34375 0.609375 -0.84375q0.09375 -0.328125 0.09375 -1.25l0 -0.5zm4.141342 1.875l2.5625 -0.390625q0.171875 0.75 0.671875 1.140625q0.5 0.390625 1.40625 0.390625q0.984375 0 1.484375 -0.375q0.34375 -0.25 0.34375 -0.671875q0 -0.296875 -0.1875 -0.484375q-0.1875 -0.1875 -0.859375 -0.34375q-3.09375 -0.6875 -3.921875 -1.25q-1.140625 -0.78125 -1.140625 -2.171875q0 -1.265625 0.984375 -2.109375q1.0 -0.859375 3.078125 -0.859375q1.984375 0 2.953125 0.65625q0.96875 0.640625 1.328125 1.90625l-2.40625 0.4375q-0.15625 -0.5625 -0.59375 -0.859375q-0.421875 -0.296875 -1.234375 -0.296875q-1.0 0 -1.4375 0.28125q-0.296875 0.203125 -0.296875 0.515625q0 0.265625 0.25 0.46875q0.34375 0.25 2.390625 0.71875q2.046875 0.453125 2.859375 1.140625q0.796875 0.671875 0.796875 1.890625q0 1.34375 -1.109375 2.296875q-1.109375 0.95310974 -3.28125 0.95310974q-1.984375 0 -3.140625 -0.79685974q-1.140625 -0.8125 -1.5 -2.1875zm10.375717 0l2.5625 -0.390625q0.171875 0.75 0.671875 1.140625q0.5 0.390625 1.40625 0.390625q0.984375 0 1.484375 -0.375q0.34375 -0.25 0.34375 -0.671875q0 -0.296875 -0.1875 -0.484375q-0.1875 -0.1875 -0.859375 -0.34375q-3.09375 -0.6875 -3.921875 -1.25q-1.140625 -0.78125 -1.140625 -2.171875q0 -1.265625 0.984375 -2.109375q1.0 -0.859375 3.078125 -0.859375q1.984375 0 2.953125 0.65625q0.96875 0.640625 1.328125 1.90625l-2.40625 0.4375q-0.15625 -0.5625 -0.59375 -0.859375q-0.421875 -0.296875 -1.234375 -0.296875q-1.0 0 -1.4375 0.28125q-0.296875 0.203125 -0.296875 0.515625q0 0.265625 0.25 0.46875q0.34375 0.25 2.390625 0.71875q2.046875 0.453125 2.859375 1.140625q0.796875 0.671875 0.796875 1.890625q0 1.34375 -1.109375 2.296875q-1.109375 0.95310974 -3.28125 0.95310974q-1.984375 0 -3.140625 -0.79685974q-1.140625 -0.8125 -1.5 -2.1875zm25.027771 -2.140625l2.609375 0.828125q-0.59375 2.1875 -2.0 3.25q-1.390625 1.0624847 -3.546875 1.0624847q-2.65625 0 -4.375 -1.8124847q-1.703125 -1.828125 -1.703125 -4.984375q0 -3.328125 1.71875 -5.171875q1.71875 -1.84375 4.515625 -1.84375q2.453125 0 3.984375 1.4375q0.921875 0.859375 1.375 2.46875l-2.671875 0.640625q-0.234375 -1.046875 -0.984375 -1.640625q-0.75 -0.609375 -1.828125 -0.609375q-1.484375 0 -2.421875 1.078125q-0.921875 1.0625 -0.921875 3.4375q0 2.53125 0.90625 3.609375q0.921875 1.078125 2.375 1.078125q1.078125 0 1.84375 -0.671875q0.78125 -0.6875 1.125 -2.15625z" fill-rule="nonzero"/><path fill="#351c75" d="m193.23302 270.13632l0 -6.34375l-2.265625 0l0 -1.28125l6.0625 0l0 1.28125l-2.265625 0l0 6.34375l-1.53125 0zm7.1863403 -1.765625l1.453125 0.25q-0.28125 0.796875 -0.890625 1.21875q-0.609375 0.421875 -1.515625 0.421875q-1.4375 0 -2.125 -0.9375q-0.546875 -0.765625 -0.546875 -1.90625q0 -1.375 0.71875 -2.15625q0.71875 -0.78125 1.8125 -0.78125q1.234375 0 1.9375 0.828125q0.71875 0.8125 0.6875 2.484375l-3.65625 0q0.015625 0.65625 0.34375 1.015625q0.34375 0.359375 0.84375 0.359375q0.34375 0 0.578125 -0.1875q0.234375 -0.1875 0.359375 -0.609375zm0.078125 -1.46875q-0.015625 -0.640625 -0.328125 -0.96875q-0.3125 -0.328125 -0.765625 -0.328125q-0.46875 0 -0.78125 0.34375q-0.3125 0.359375 -0.3125 0.953125l2.1875 0zm3.7389984 -0.609375l-1.328125 -0.234375q0.21875 -0.796875 0.765625 -1.1875q0.546875 -0.390625 1.625 -0.390625q0.984375 0 1.453125 0.234375q0.484375 0.234375 0.671875 0.59375q0.203125 0.359375 0.203125 1.3125l-0.015625 1.703125q0 0.71875 0.0625 1.078125q0.078125 0.34375 0.265625 0.734375l-1.4375 0q-0.0625 -0.140625 -0.140625 -0.4375q-0.046875 -0.125 -0.0625 -0.171875q-0.375 0.375 -0.796875 0.5625q-0.421875 0.171875 -0.90625 0.171875q-0.859375 0 -1.359375 -0.453125q-0.484375 -0.46875 -0.484375 -1.1875q0 -0.46875 0.21875 -0.828125q0.234375 -0.359375 0.640625 -0.546875q0.40625 -0.203125 1.15625 -0.359375q1.03125 -0.1875 1.421875 -0.359375l0 -0.140625q0 -0.421875 -0.21875 -0.59375q-0.203125 -0.1875 -0.78125 -0.1875q-0.375 0 -0.59375 0.15625q-0.21875 0.15625 -0.359375 0.53125zm1.953125 1.1875q-0.28125 0.09375 -0.890625 0.234375q-0.609375 0.125 -0.796875 0.25q-0.28125 0.203125 -0.28125 0.515625q0 0.296875 0.21875 0.53125q0.234375 0.21875 0.59375 0.21875q0.390625 0 0.75 -0.265625q0.265625 -0.1875 0.34375 -0.484375q0.0625 -0.1875 0.0625 -0.703125l0 -0.296875zm2.7702484 -2.875l1.34375 0l0 0.765625q0.71875 -0.890625 1.71875 -0.890625q0.53125 0 0.921875 0.21875q0.390625 0.21875 0.640625 0.671875q0.375 -0.453125 0.796875 -0.671875q0.421875 -0.21875 0.890625 -0.21875q0.609375 0 1.03125 0.25q0.421875 0.25 0.625 0.734375q0.15625 0.34375 0.15625 1.140625l0 3.53125l-1.453125 0l0 -3.15625q0 -0.828125 -0.15625 -1.0625q-0.203125 -0.3125 -0.625 -0.3125q-0.3125 0 -0.578125 0.1875q-0.265625 0.1875 -0.390625 0.546875q-0.125 0.359375 -0.125 1.140625l0 2.65625l-1.453125 0l0 -3.03125q0 -0.796875 -0.078125 -1.03125q-0.078125 -0.234375 -0.25 -0.34375q-0.15625 -0.125 -0.4375 -0.125q-0.34375 0 -0.609375 0.1875q-0.265625 0.171875 -0.390625 0.515625q-0.109375 0.34375 -0.109375 1.140625l0 2.6875l-1.46875 0l0 -5.53125zm17.43576 2.734375l1.5 0.46875q-0.34375 1.25 -1.15625 1.859375q-0.796875 0.59375 -2.015625 0.59375q-1.515625 0 -2.5 -1.03125q-0.984375 -1.046875 -0.984375 -2.84375q0 -1.90625 0.984375 -2.953125q0.984375 -1.0625 2.59375 -1.0625q1.390625 0 2.265625 0.828125q0.53125 0.5 0.78125 1.40625l-1.515625 0.375q-0.140625 -0.59375 -0.578125 -0.9375q-0.421875 -0.34375 -1.03125 -0.34375q-0.859375 0 -1.390625 0.609375q-0.515625 0.609375 -0.515625 1.96875q0 1.4375 0.515625 2.0625q0.515625 0.609375 1.359375 0.609375q0.609375 0 1.046875 -0.390625q0.453125 -0.390625 0.640625 -1.21875z" fill-rule="nonzero"/><path fill="#000000" fill-opacity="0.0" d="m209.58398 226.60892l0 -45.5748" fill-rule="evenodd"/><path stroke="#38761d" stroke-width="3.0" stroke-linejoin="round" stroke-linecap="butt" d="m209.58398 226.60892l0 -35.29355" fill-rule="evenodd"/><path fill="#38761d" stroke="#38761d" stroke-width="3.0" stroke-linecap="butt" d="m209.58398 191.31538l3.3737488 3.3737488l-3.3737488 -9.269302l-3.3737488 9.269302z" fill-rule="evenodd"/><path fill="#ead1dc" d="m129.89896 329.7454l159.37009 0l0 57.57483l-159.37009 0z" fill-rule="evenodd"/><path stroke="#741b47" stroke-width="3.0" stroke-linejoin="round" stroke-linecap="butt" d="m129.89896 329.7454l159.37009 0l0 57.57483l-159.37009 0z" fill-rule="evenodd"/><path fill="#741b47" d="m185.27042 354.04657l2.609375 0.828125q-0.59375 2.1875 -2.0 3.25q-1.390625 1.0625 -3.546875 1.0625q-2.65625 0 -4.375 -1.8125q-1.703125 -1.828125 -1.703125 -4.984375q0 -3.328125 1.71875 -5.171875q1.71875 -1.84375 4.515625 -1.84375q2.453125 0 3.984375 1.4375q0.921875 0.859375 1.375 2.46875l-2.671875 0.640625q-0.234375 -1.046875 -0.984375 -1.640625q-0.75 -0.609375 -1.828125 -0.609375q-1.484375 0 -2.421875 1.078125q-0.921875 1.0625 -0.921875 3.4375q0 2.53125 0.90625 3.609375q0.921875 1.078125 2.375 1.078125q1.078125 0 1.84375 -0.671875q0.78125 -0.6875 1.125 -2.15625zm4.910446 4.90625l0 -13.359375l2.5625 0l0 13.359375l-2.5625 0zm7.089554 -6.71875l-2.328125 -0.421875q0.40625 -1.40625 1.359375 -2.078125q0.953125 -0.671875 2.84375 -0.671875q1.703125 0 2.546875 0.40625q0.84375 0.40625 1.171875 1.03125q0.34375 0.625 0.34375 2.28125l-0.015625 3.0q0 1.265625 0.109375 1.875q0.125 0.609375 0.46875 1.296875l-2.53125 0q-0.109375 -0.25 -0.25 -0.75q-0.0625 -0.234375 -0.09375 -0.3125q-0.65625 0.640625 -1.40625 0.96875q-0.734375 0.3125 -1.59375 0.3125q-1.484375 0 -2.34375 -0.8125q-0.859375 -0.8125 -0.859375 -2.046875q0 -0.828125 0.390625 -1.46875q0.390625 -0.640625 1.09375 -0.96875q0.703125 -0.34375 2.03125 -0.609375q1.796875 -0.328125 2.484375 -0.625l0 -0.25q0 -0.75 -0.359375 -1.0625q-0.359375 -0.3125 -1.375 -0.3125q-0.6875 0 -1.078125 0.28125q-0.375 0.265625 -0.609375 0.9375zm3.421875 2.078125q-0.484375 0.15625 -1.5625 0.390625q-1.0625 0.21875 -1.390625 0.4375q-0.5 0.359375 -0.5 0.90625q0 0.53125 0.40625 0.9375q0.40625 0.390625 1.015625 0.390625q0.703125 0 1.328125 -0.46875q0.46875 -0.34375 0.609375 -0.84375q0.09375 -0.328125 0.09375 -1.25l0 -0.5zm4.141342 1.875l2.5625 -0.390625q0.171875 0.75 0.671875 1.140625q0.5 0.390625 1.40625 0.390625q0.984375 0 1.484375 -0.375q0.34375 -0.25 0.34375 -0.671875q0 -0.296875 -0.1875 -0.484375q-0.1875 -0.1875 -0.859375 -0.34375q-3.09375 -0.6875 -3.921875 -1.25q-1.140625 -0.78125 -1.140625 -2.171875q0 -1.265625 0.984375 -2.109375q1.0 -0.859375 3.078125 -0.859375q1.984375 0 2.953125 0.65625q0.96875 0.640625 1.328125 1.90625l-2.40625 0.4375q-0.15625 -0.5625 -0.59375 -0.859375q-0.421875 -0.296875 -1.234375 -0.296875q-1.0 0 -1.4375 0.28125q-0.296875 0.203125 -0.296875 0.515625q0 0.265625 0.25 0.46875q0.34375 0.25 2.390625 0.71875q2.046875 0.453125 2.859375 1.140625q0.796875 0.671875 0.796875 1.890625q0 1.34375 -1.109375 2.296875q-1.109375 0.953125 -3.28125 0.953125q-1.984375 0 -3.140625 -0.796875q-1.140625 -0.8125 -1.5 -2.1875zm10.375717 0l2.5625 -0.390625q0.171875 0.75 0.671875 1.140625q0.5 0.390625 1.40625 0.390625q0.984375 0 1.484375 -0.375q0.34375 -0.25 0.34375 -0.671875q0 -0.296875 -0.1875 -0.484375q-0.1875 -0.1875 -0.859375 -0.34375q-3.09375 -0.6875 -3.921875 -1.25q-1.140625 -0.78125 -1.140625 -2.171875q0 -1.265625 0.984375 -2.109375q1.0 -0.859375 3.078125 -0.859375q1.984375 0 2.953125 0.65625q0.96875 0.640625 1.328125 1.90625l-2.40625 0.4375q-0.15625 -0.5625 -0.59375 -0.859375q-0.421875 -0.296875 -1.234375 -0.296875q-1.0 0 -1.4375 0.28125q-0.296875 0.203125 -0.296875 0.515625q0 0.265625 0.25 0.46875q0.34375 0.25 2.390625 0.71875q2.046875 0.453125 2.859375 1.140625q0.796875 0.671875 0.796875 1.890625q0 1.34375 -1.109375 2.296875q-1.109375 0.953125 -3.28125 0.953125q-1.984375 0 -3.140625 -0.796875q-1.140625 -0.8125 -1.5 -2.1875zm16.465271 -10.59375l4.9375 0q1.65625 0 2.53125 0.265625q1.1875 0.34375 2.015625 1.234375q0.84375 0.875 1.28125 2.15625q0.4375 1.28125 0.4375 3.15625q0 1.640625 -0.40625 2.84375q-0.5 1.453125 -1.4375 2.359375q-0.703125 0.671875 -1.890625 1.0625q-0.890625 0.28125 -2.390625 0.28125l-5.078125 0l0 -13.359375zm2.703125 2.265625l0 8.84375l2.015625 0q1.125 0 1.625 -0.125q0.65625 -0.171875 1.078125 -0.5625q0.4375 -0.390625 0.703125 -1.28125q0.28125 -0.90625 0.28125 -2.453125q0 -1.546875 -0.28125 -2.375q-0.265625 -0.828125 -0.765625 -1.28125q-0.484375 -0.46875 -1.234375 -0.640625q-0.5625 -0.125 -2.21875 -0.125l-1.203125 0z" fill-rule="nonzero"/><path fill="#741b47" d="m193.23302 373.2728l0 -6.34375l-2.265625 0l0 -1.28125l6.0625 0l0 1.28125l-2.265625 0l0 6.34375l-1.53125 0zm7.1863403 -1.765625l1.453125 0.25q-0.28125 0.796875 -0.890625 1.21875q-0.609375 0.421875 -1.515625 0.421875q-1.4375 0 -2.125 -0.9375q-0.546875 -0.765625 -0.546875 -1.90625q0 -1.375 0.71875 -2.15625q0.71875 -0.78125 1.8125 -0.78125q1.234375 0 1.9375 0.828125q0.71875 0.8125 0.6875 2.484375l-3.65625 0q0.015625 0.65625 0.34375 1.015625q0.34375 0.359375 0.84375 0.359375q0.34375 0 0.578125 -0.1875q0.234375 -0.1875 0.359375 -0.609375zm0.078125 -1.46875q-0.015625 -0.640625 -0.328125 -0.96875q-0.3125 -0.328125 -0.765625 -0.328125q-0.46875 0 -0.78125 0.34375q-0.3125 0.359375 -0.3125 0.953125l2.1875 0zm3.7389984 -0.609375l-1.328125 -0.234375q0.21875 -0.796875 0.765625 -1.1875q0.546875 -0.390625 1.625 -0.390625q0.984375 0 1.453125 0.234375q0.484375 0.234375 0.671875 0.59375q0.203125 0.359375 0.203125 1.3125l-0.015625 1.703125q0 0.71875 0.0625 1.078125q0.078125 0.34375 0.265625 0.734375l-1.4375 0q-0.0625 -0.140625 -0.140625 -0.4375q-0.046875 -0.125 -0.0625 -0.171875q-0.375 0.375 -0.796875 0.5625q-0.421875 0.171875 -0.90625 0.171875q-0.859375 0 -1.359375 -0.453125q-0.484375 -0.46875 -0.484375 -1.1875q0 -0.46875 0.21875 -0.828125q0.234375 -0.359375 0.640625 -0.546875q0.40625 -0.203125 1.15625 -0.359375q1.03125 -0.1875 1.421875 -0.359375l0 -0.140625q0 -0.421875 -0.21875 -0.59375q-0.203125 -0.1875 -0.78125 -0.1875q-0.375 0 -0.59375 0.15625q-0.21875 0.15625 -0.359375 0.53125zm1.953125 1.1875q-0.28125 0.09375 -0.890625 0.234375q-0.609375 0.125 -0.796875 0.25q-0.28125 0.203125 -0.28125 0.515625q0 0.296875 0.21875 0.53125q0.234375 0.21875 0.59375 0.21875q0.390625 0 0.75 -0.265625q0.265625 -0.1875 0.34375 -0.484375q0.0625 -0.1875 0.0625 -0.703125l0 -0.296875zm2.7702484 -2.875l1.34375 0l0 0.765625q0.71875 -0.890625 1.71875 -0.890625q0.53125 0 0.921875 0.21875q0.390625 0.21875 0.640625 0.671875q0.375 -0.453125 0.796875 -0.671875q0.421875 -0.21875 0.890625 -0.21875q0.609375 0 1.03125 0.25q0.421875 0.25 0.625 0.734375q0.15625 0.34375 0.15625 1.140625l0 3.53125l-1.453125 0l0 -3.15625q0 -0.828125 -0.15625 -1.0625q-0.203125 -0.3125 -0.625 -0.3125q-0.3125 0 -0.578125 0.1875q-0.265625 0.1875 -0.390625 0.546875q-0.125 0.359375 -0.125 1.140625l0 2.65625l-1.453125 0l0 -3.03125q0 -0.796875 -0.078125 -1.03125q-0.078125 -0.234375 -0.25 -0.34375q-0.15625 -0.125 -0.4375 -0.125q-0.34375 0 -0.609375 0.1875q-0.265625 0.171875 -0.390625 0.515625q-0.109375 0.34375 -0.109375 1.140625l0 2.6875l-1.46875 0l0 -5.53125zm12.5451355 -2.09375l2.8125 0q0.953125 0 1.453125 0.140625q0.671875 0.203125 1.15625 0.703125q0.484375 0.5 0.734375 1.234375q0.25 0.734375 0.25 1.8125q0 0.9375 -0.234375 1.609375q-0.296875 0.84375 -0.828125 1.359375q-0.390625 0.390625 -1.078125 0.609375q-0.515625 0.15625 -1.359375 0.15625l-2.90625 0l0 -7.625zm1.546875 1.28125l0 5.0625l1.140625 0q0.65625 0 0.9375 -0.078125q0.375 -0.09375 0.625 -0.3125q0.25 -0.234375 0.40625 -0.734375q0.15625 -0.515625 0.15625 -1.40625q0 -0.875 -0.15625 -1.34375q-0.15625 -0.484375 -0.4375 -0.75q-0.28125 -0.265625 -0.71875 -0.359375q-0.328125 -0.078125 -1.265625 -0.078125l-0.6875 0z" fill-rule="nonzero"/><path fill="#000000" fill-opacity="0.0" d="m209.58398 329.7454l0 -45.5748" fill-rule="evenodd"/><path stroke="#38761d" stroke-width="3.0" stroke-linejoin="round" stroke-linecap="butt" d="m209.58398 329.7454l0 -35.29355" fill-rule="evenodd"/><path fill="#38761d" stroke="#38761d" stroke-width="3.0" stroke-linecap="butt" d="m209.58398 294.45187l3.3737488 3.3737488l-3.3737488 -9.269318l-3.3737488 9.269318z" fill-rule="evenodd"/><path fill="#f4cccc" d="m262.61023 171.06494l13.348419 -13.348404l20.98822 0l13.348419 13.348404l0 18.87799l-13.348419 13.348404l-20.98822 0l-13.348419 -13.348404z" fill-rule="evenodd"/><path stroke="#990000" stroke-width="2.0" stroke-linejoin="round" stroke-linecap="butt" d="m262.61023 171.06494l13.348419 -13.348404l20.98822 0l13.348419 13.348404l0 18.87799l-13.348419 13.348404l-20.98822 0l-13.348419 -13.348404z" fill-rule="evenodd"/><path fill="#990000" d="m272.70718 178.21768l0.75 0.234375q-0.171875 0.625 -0.578125 0.9375q-0.390625 0.296875 -1.015625 0.296875q-0.75 0 -1.25 -0.515625q-0.484375 -0.515625 -0.484375 -1.421875q0 -0.953125 0.484375 -1.46875q0.5 -0.53125 1.296875 -0.53125q0.703125 0 1.140625 0.40625q0.265625 0.25 0.390625 0.703125l-0.765625 0.1875q-0.0625 -0.296875 -0.28125 -0.46875q-0.203125 -0.171875 -0.515625 -0.171875q-0.421875 0 -0.6875 0.3125q-0.265625 0.296875 -0.265625 0.96875q0 0.734375 0.25 1.046875q0.265625 0.296875 0.6875 0.296875q0.3125 0 0.53125 -0.1875q0.21875 -0.203125 0.3125 -0.625zm1.2384338 -0.015625q0 -0.359375 0.171875 -0.703125q0.1875 -0.34375 0.515625 -0.515625q0.328125 -0.1875 0.734375 -0.1875q0.625 0 1.015625 0.40625q0.40625 0.40625 0.40625 1.03125q0 0.625 -0.40625 1.046875q-0.40625 0.40625 -1.015625 0.40625q-0.375 0 -0.71875 -0.171875q-0.34375 -0.171875 -0.53125 -0.5q-0.171875 -0.328125 -0.171875 -0.8125zm0.75 0.046875q0 0.40625 0.1875 0.625q0.203125 0.21875 0.484375 0.21875q0.28125 0 0.46875 -0.21875q0.203125 -0.21875 0.203125 -0.640625q0 -0.40625 -0.203125 -0.625q-0.1875 -0.21875 -0.46875 -0.21875q-0.28125 0 -0.484375 0.21875q-0.1875 0.21875 -0.1875 0.640625zm2.5046387 -0.046875q0 -0.359375 0.171875 -0.703125q0.1875 -0.34375 0.515625 -0.515625q0.328125 -0.1875 0.734375 -0.1875q0.625 0 1.015625 0.40625q0.40625 0.40625 0.40625 1.03125q0 0.625 -0.40625 1.046875q-0.40625 0.40625 -1.015625 0.40625q-0.375 0 -0.71875 -0.171875q-0.34375 -0.171875 -0.53125 -0.5q-0.171875 -0.328125 -0.171875 -0.8125zm0.75 0.046875q0 0.40625 0.1875 0.625q0.203125 0.21875 0.484375 0.21875q0.28125 0 0.46875 -0.21875q0.203125 -0.21875 0.203125 -0.640625q0 -0.40625 -0.203125 -0.625q-0.1875 -0.21875 -0.46875 -0.21875q-0.28125 0 -0.484375 0.21875q-0.1875 0.21875 -0.1875 0.640625zm3.3640137 1.375l-0.734375 0l0 -2.765625l0.6875 0l0 0.390625q0.171875 -0.28125 0.3125 -0.359375q0.140625 -0.09375 0.3125 -0.09375q0.25 0 0.484375 0.140625l-0.21875 0.640625q-0.1875 -0.125 -0.34375 -0.125q-0.15625 0 -0.265625 0.09375q-0.109375 0.078125 -0.171875 0.296875q-0.0625 0.21875 -0.0625 0.921875l0 0.859375zm3.9172668 0l-0.6875 0l0 -0.40625q-0.171875 0.234375 -0.40625 0.359375q-0.21875 0.109375 -0.453125 0.109375q-0.484375 0 -0.828125 -0.375q-0.328125 -0.390625 -0.328125 -1.078125q0 -0.703125 0.328125 -1.0625q0.328125 -0.375 0.84375 -0.375q0.453125 0 0.796875 0.390625l0 -1.375l0.734375 0l0 3.8125zm-1.953125 -1.4375q0 0.4375 0.125 0.640625q0.171875 0.28125 0.484375 0.28125q0.25 0 0.421875 -0.203125q0.1875 -0.21875 0.1875 -0.65625q0 -0.46875 -0.171875 -0.671875q-0.171875 -0.21875 -0.4375 -0.21875q-0.265625 0 -0.4375 0.203125q-0.171875 0.203125 -0.171875 0.625zm2.6608887 -1.703125l0 -0.671875l0.734375 0l0 0.671875l-0.734375 0zm0 3.140625l0 -2.765625l0.734375 0l0 2.765625l-0.734375 0zm3.9959412 0l-0.71875 0l0 -1.40625q0 -0.453125 -0.046875 -0.578125q-0.046875 -0.140625 -0.15625 -0.203125q-0.109375 -0.078125 -0.25 -0.078125q-0.203125 0 -0.359375 0.109375q-0.140625 0.09375 -0.203125 0.265625q-0.046875 0.171875 -0.046875 0.640625l0 1.25l-0.734375 0l0 -2.765625l0.6875 0l0 0.40625q0.359375 -0.46875 0.90625 -0.46875q0.234375 0 0.4375 0.09375q0.203125 0.078125 0.296875 0.21875q0.109375 0.140625 0.140625 0.3125q0.046875 0.171875 0.046875 0.484375l0 1.71875zm1.2858887 -1.921875l-0.65625 -0.125q0.109375 -0.390625 0.375 -0.578125q0.28125 -0.203125 0.828125 -0.203125q0.484375 0 0.71875 0.125q0.25 0.109375 0.34375 0.296875q0.09375 0.171875 0.09375 0.640625l0 0.859375q0 0.359375 0.03125 0.53125q0.03125 0.171875 0.125 0.375l-0.71875 0q-0.03125 -0.078125 -0.078125 -0.21875q-0.015625 -0.0625 -0.015625 -0.078125q-0.1875 0.171875 -0.40625 0.265625q-0.21875 0.09375 -0.453125 0.09375q-0.421875 0 -0.671875 -0.234375q-0.25 -0.234375 -0.25 -0.578125q0 -0.234375 0.109375 -0.421875q0.109375 -0.1875 0.3125 -0.28125q0.203125 -0.09375 0.59375 -0.171875q0.5 -0.09375 0.703125 -0.171875l0 -0.078125q0 -0.21875 -0.109375 -0.296875q-0.09375 -0.09375 -0.390625 -0.09375q-0.1875 0 -0.296875 0.078125q-0.109375 0.078125 -0.1875 0.265625zm0.984375 0.59375q-0.140625 0.046875 -0.453125 0.109375q-0.296875 0.0625 -0.390625 0.125q-0.140625 0.109375 -0.140625 0.265625q0 0.15625 0.109375 0.265625q0.125 0.109375 0.296875 0.109375q0.203125 0 0.375 -0.125q0.140625 -0.109375 0.171875 -0.25q0.03125 -0.09375 0.03125 -0.359375l0 -0.140625zm2.7132568 -1.4375l0 0.578125l-0.5 0l0 1.125q0 0.328125 0 0.390625q0.015625 0.0625 0.0625 0.09375q0.0625 0.03125 0.140625 0.03125q0.09375 0 0.28125 -0.0625l0.0625 0.5625q-0.25 0.109375 -0.578125 0.109375q-0.1875 0 -0.359375 -0.0625q-0.15625 -0.0625 -0.234375 -0.171875q-0.0625 -0.109375 -0.09375 -0.28125q-0.015625 -0.140625 -0.015625 -0.515625l0 -1.21875l-0.34375 0l0 -0.578125l0.34375 0l0 -0.546875l0.734375 -0.421875l0 0.96875l0.5 0zm0.4930725 -0.375l0 -0.671875l0.734375 0l0 0.671875l-0.734375 0zm0 3.140625l0 -2.765625l0.734375 0l0 2.765625l-0.734375 0zm1.3240662 -1.421875q0 -0.359375 0.171875 -0.703125q0.1875 -0.34375 0.515625 -0.515625q0.328125 -0.1875 0.734375 -0.1875q0.625 0 1.015625 0.40625q0.40625 0.40625 0.40625 1.03125q0 0.625 -0.40625 1.046875q-0.40625 0.40625 -1.015625 0.40625q-0.375 0 -0.71875 -0.171875q-0.34375 -0.171875 -0.53125 -0.5q-0.171875 -0.328125 -0.171875 -0.8125zm0.75 0.046875q0 0.40625 0.1875 0.625q0.203125 0.21875 0.484375 0.21875q0.28125 0 0.46875 -0.21875q0.203125 -0.21875 0.203125 -0.640625q0 -0.40625 -0.203125 -0.625q-0.1875 -0.21875 -0.46875 -0.21875q-0.28125 0 -0.484375 0.21875q-0.1875 0.21875 -0.1875 0.640625zm5.1765137 1.375l-0.71875 0l0 -1.40625q0 -0.453125 -0.046875 -0.578125q-0.046875 -0.140625 -0.15625 -0.203125q-0.109375 -0.078125 -0.25 -0.078125q-0.203125 0 -0.359375 0.109375q-0.140625 0.09375 -0.203125 0.265625q-0.046875 0.171875 -0.046875 0.640625l0 1.25l-0.734375 0l0 -2.765625l0.6875 0l0 0.40625q0.359375 -0.46875 0.90625 -0.46875q0.234375 0 0.4375 0.09375q0.203125 0.078125 0.296875 0.21875q0.109375 0.140625 0.140625 0.3125q0.046875 0.171875 0.046875 0.484375l0 1.71875z" fill-rule="nonzero"/><path fill="#990000" d="m276.872 185.62393l-0.734375 0l0 -2.765625l0.6875 0l0 0.390625q0.171875 -0.28125 0.3125 -0.359375q0.140625 -0.09375 0.3125 -0.09375q0.25 0 0.484375 0.140625l-0.21875 0.640625q-0.1875 -0.125 -0.34375 -0.125q-0.15625 0 -0.265625 0.09375q-0.109375 0.078125 -0.171875 0.296875q-0.0625 0.21875 -0.0625 0.921875l0 0.859375zm2.9797363 -0.875l0.71875 0.125q-0.125 0.390625 -0.4375 0.609375q-0.296875 0.203125 -0.75 0.203125q-0.734375 0 -1.078125 -0.46875q-0.265625 -0.375 -0.265625 -0.953125q0 -0.6875 0.359375 -1.078125q0.359375 -0.390625 0.90625 -0.390625q0.609375 0 0.96875 0.40625q0.359375 0.40625 0.34375 1.25l-1.828125 0q0 0.328125 0.171875 0.515625q0.171875 0.171875 0.421875 0.171875q0.171875 0 0.28125 -0.09375q0.125 -0.09375 0.1875 -0.296875zm0.046875 -0.75q-0.015625 -0.3125 -0.171875 -0.46875q-0.15625 -0.171875 -0.375 -0.171875q-0.25 0 -0.40625 0.171875q-0.15625 0.171875 -0.140625 0.46875l1.09375 0zm3.1195068 2.671875l0 -1.390625q-0.140625 0.1875 -0.359375 0.296875q-0.203125 0.109375 -0.453125 0.109375q-0.46875 0 -0.78125 -0.359375q-0.359375 -0.40625 -0.359375 -1.109375q0 -0.671875 0.328125 -1.046875q0.34375 -0.375 0.84375 -0.375q0.28125 0 0.484375 0.125q0.203125 0.109375 0.359375 0.34375l0 -0.40625l0.671875 0l0 3.8125l-0.734375 0zm0.03125 -2.46875q0 -0.421875 -0.1875 -0.625q-0.171875 -0.203125 -0.421875 -0.203125q-0.265625 0 -0.453125 0.21875q-0.171875 0.203125 -0.171875 0.65625q0 0.453125 0.171875 0.65625q0.171875 0.203125 0.421875 0.203125q0.25 0 0.4375 -0.21875q0.203125 -0.234375 0.203125 -0.6875zm3.2390137 1.421875l0 -0.40625q-0.15625 0.21875 -0.40625 0.34375q-0.234375 0.125 -0.515625 0.125q-0.28125 0 -0.5 -0.125q-0.21875 -0.125 -0.328125 -0.34375q-0.09375 -0.21875 -0.09375 -0.609375l0 -1.75l0.734375 0l0 1.265625q0 0.59375 0.03125 0.734375q0.046875 0.125 0.15625 0.203125q0.109375 0.0625 0.28125 0.0625q0.1875 0 0.328125 -0.09375q0.15625 -0.109375 0.203125 -0.25q0.0625 -0.15625 0.0625 -0.75l0 -1.171875l0.71875 0l0 2.765625l-0.671875 0zm1.4265137 -3.140625l0 -0.671875l0.734375 0l0 0.671875l-0.734375 0zm0 3.140625l0 -2.765625l0.734375 0l0 2.765625l-0.734375 0zm2.1834717 0l-0.734375 0l0 -2.765625l0.6875 0l0 0.390625q0.171875 -0.28125 0.3125 -0.359375q0.140625 -0.09375 0.3125 -0.09375q0.25 0 0.484375 0.140625l-0.21875 0.640625q-0.1875 -0.125 -0.34375 -0.125q-0.15625 0 -0.265625 0.09375q-0.109375 0.078125 -0.171875 0.296875q-0.0625 0.21875 -0.0625 0.921875l0 0.859375zm2.9797363 -0.875l0.71875 0.125q-0.125 0.390625 -0.4375 0.609375q-0.296875 0.203125 -0.75 0.203125q-0.734375 0 -1.078125 -0.46875q-0.265625 -0.375 -0.265625 -0.953125q0 -0.6875 0.359375 -1.078125q0.359375 -0.390625 0.90625 -0.390625q0.609375 0 0.96875 0.40625q0.359375 0.40625 0.34375 1.25l-1.828125 0q0 0.328125 0.171875 0.515625q0.171875 0.171875 0.421875 0.171875q0.171875 0 0.28125 -0.09375q0.125 -0.09375 0.1875 -0.296875zm0.046875 -0.75q-0.015625 -0.3125 -0.171875 -0.46875q-0.15625 -0.171875 -0.375 -0.171875q-0.25 0 -0.40625 0.171875q-0.15625 0.171875 -0.140625 0.46875l1.09375 0zm3.8538818 1.625l-0.6875 0l0 -0.40625q-0.171875 0.234375 -0.40625 0.359375q-0.21875 0.109375 -0.453125 0.109375q-0.484375 0 -0.828125 -0.375q-0.328125 -0.390625 -0.328125 -1.078125q0 -0.703125 0.328125 -1.0625q0.328125 -0.375 0.84375 -0.375q0.453125 0 0.796875 0.390625l0 -1.375l0.734375 0l0 3.8125zm-1.953125 -1.4375q0 0.4375 0.125 0.640625q0.171875 0.28125 0.484375 0.28125q0.25 0 0.421875 -0.203125q0.1875 -0.21875 0.1875 -0.65625q0 -0.46875 -0.171875 -0.671875q-0.171875 -0.21875 -0.4375 -0.21875q-0.265625 0 -0.4375 0.203125q-0.171875 0.203125 -0.171875 0.625z" fill-rule="nonzero"/><path fill="#f4cccc" d="m262.61023 276.7736l13.348419 -13.348389l20.98822 0l13.348419 13.348389l0 18.87799l-13.348419 13.348419l-20.98822 0l-13.348419 -13.348419z" fill-rule="evenodd"/><path stroke="#990000" stroke-width="2.0" stroke-linejoin="round" stroke-linecap="butt" d="m262.61023 276.7736l13.348419 -13.348389l20.98822 0l13.348419 13.348389l0 18.87799l-13.348419 13.348419l-20.98822 0l-13.348419 -13.348419z" fill-rule="evenodd"/><path fill="#990000" d="m272.70718 283.92636l0.75 0.234375q-0.171875 0.625 -0.578125 0.9375q-0.390625 0.296875 -1.015625 0.296875q-0.75 0 -1.25 -0.515625q-0.484375 -0.515625 -0.484375 -1.421875q0 -0.953125 0.484375 -1.46875q0.5 -0.53125 1.296875 -0.53125q0.703125 0 1.140625 0.40625q0.265625 0.25 0.390625 0.703125l-0.765625 0.1875q-0.0625 -0.296875 -0.28125 -0.46875q-0.203125 -0.171875 -0.515625 -0.171875q-0.421875 0 -0.6875 0.3125q-0.265625 0.296875 -0.265625 0.96875q0 0.734375 0.25 1.046875q0.265625 0.296875 0.6875 0.296875q0.3125 0 0.53125 -0.1875q0.21875 -0.203125 0.3125 -0.625zm1.2384338 -0.015625q0 -0.359375 0.171875 -0.703125q0.1875 -0.34375 0.515625 -0.515625q0.328125 -0.1875 0.734375 -0.1875q0.625 0 1.015625 0.40625q0.40625 0.40625 0.40625 1.03125q0 0.625 -0.40625 1.046875q-0.40625 0.40625 -1.015625 0.40625q-0.375 0 -0.71875 -0.171875q-0.34375 -0.171875 -0.53125 -0.5q-0.171875 -0.328125 -0.171875 -0.8125zm0.75 0.046875q0 0.40625 0.1875 0.625q0.203125 0.21875 0.484375 0.21875q0.28125 0 0.46875 -0.21875q0.203125 -0.21875 0.203125 -0.640625q0 -0.40625 -0.203125 -0.625q-0.1875 -0.21875 -0.46875 -0.21875q-0.28125 0 -0.484375 0.21875q-0.1875 0.21875 -0.1875 0.640625zm2.5046387 -0.046875q0 -0.359375 0.171875 -0.703125q0.1875 -0.34375 0.515625 -0.515625q0.328125 -0.1875 0.734375 -0.1875q0.625 0 1.015625 0.40625q0.40625 0.40625 0.40625 1.03125q0 0.625 -0.40625 1.046875q-0.40625 0.40625 -1.015625 0.40625q-0.375 0 -0.71875 -0.171875q-0.34375 -0.171875 -0.53125 -0.5q-0.171875 -0.328125 -0.171875 -0.8125zm0.75 0.046875q0 0.40625 0.1875 0.625q0.203125 0.21875 0.484375 0.21875q0.28125 0 0.46875 -0.21875q0.203125 -0.21875 0.203125 -0.640625q0 -0.40625 -0.203125 -0.625q-0.1875 -0.21875 -0.46875 -0.21875q-0.28125 0 -0.484375 0.21875q-0.1875 0.21875 -0.1875 0.640625zm3.3640137 1.375l-0.734375 0l0 -2.765625l0.6875 0l0 0.390625q0.171875 -0.28125 0.3125 -0.359375q0.140625 -0.09375 0.3125 -0.09375q0.25 0 0.484375 0.140625l-0.21875 0.640625q-0.1875 -0.125 -0.34375 -0.125q-0.15625 0 -0.265625 0.09375q-0.109375 0.078125 -0.171875 0.296875q-0.0625 0.21875 -0.0625 0.921875l0 0.859375zm3.9172668 0l-0.6875 0l0 -0.40625q-0.171875 0.234375 -0.40625 0.359375q-0.21875 0.109375 -0.453125 0.109375q-0.484375 0 -0.828125 -0.375q-0.328125 -0.390625 -0.328125 -1.078125q0 -0.703125 0.328125 -1.0625q0.328125 -0.375 0.84375 -0.375q0.453125 0 0.796875 0.390625l0 -1.375l0.734375 0l0 3.8125zm-1.953125 -1.4375q0 0.4375 0.125 0.640625q0.171875 0.28125 0.484375 0.28125q0.25 0 0.421875 -0.203125q0.1875 -0.21875 0.1875 -0.65625q0 -0.46875 -0.171875 -0.671875q-0.171875 -0.21875 -0.4375 -0.21875q-0.265625 0 -0.4375 0.203125q-0.171875 0.203125 -0.171875 0.625zm2.6608887 -1.703125l0 -0.671875l0.734375 0l0 0.671875l-0.734375 0zm0 3.140625l0 -2.765625l0.734375 0l0 2.765625l-0.734375 0zm3.9959412 0l-0.71875 0l0 -1.40625q0 -0.453125 -0.046875 -0.578125q-0.046875 -0.140625 -0.15625 -0.203125q-0.109375 -0.078125 -0.25 -0.078125q-0.203125 0 -0.359375 0.109375q-0.140625 0.09375 -0.203125 0.265625q-0.046875 0.171875 -0.046875 0.640625l0 1.25l-0.734375 0l0 -2.765625l0.6875 0l0 0.40625q0.359375 -0.46875 0.90625 -0.46875q0.234375 0 0.4375 0.09375q0.203125 0.078125 0.296875 0.21875q0.109375 0.140625 0.140625 0.3125q0.046875 0.171875 0.046875 0.484375l0 1.71875zm1.2858887 -1.921875l-0.65625 -0.125q0.109375 -0.390625 0.375 -0.578125q0.28125 -0.203125 0.828125 -0.203125q0.484375 0 0.71875 0.125q0.25 0.109375 0.34375 0.296875q0.09375 0.171875 0.09375 0.640625l0 0.859375q0 0.359375 0.03125 0.53125q0.03125 0.171875 0.125 0.375l-0.71875 0q-0.03125 -0.078125 -0.078125 -0.21875q-0.015625 -0.0625 -0.015625 -0.078125q-0.1875 0.171875 -0.40625 0.265625q-0.21875 0.09375 -0.453125 0.09375q-0.421875 0 -0.671875 -0.234375q-0.25 -0.234375 -0.25 -0.578125q0 -0.234375 0.109375 -0.421875q0.109375 -0.1875 0.3125 -0.28125q0.203125 -0.09375 0.59375 -0.171875q0.5 -0.09375 0.703125 -0.171875l0 -0.078125q0 -0.21875 -0.109375 -0.296875q-0.09375 -0.09375 -0.390625 -0.09375q-0.1875 0 -0.296875 0.078125q-0.109375 0.078125 -0.1875 0.265625zm0.984375 0.59375q-0.140625 0.046875 -0.453125 0.109375q-0.296875 0.0625 -0.390625 0.125q-0.140625 0.109375 -0.140625 0.265625q0 0.15625 0.109375 0.265625q0.125 0.109375 0.296875 0.109375q0.203125 0 0.375 -0.125q0.140625 -0.109375 0.171875 -0.25q0.03125 -0.09375 0.03125 -0.359375l0 -0.140625zm2.7132568 -1.4375l0 0.578125l-0.5 0l0 1.125q0 0.328125 0 0.390625q0.015625 0.0625 0.0625 0.09375q0.0625 0.03125 0.140625 0.03125q0.09375 0 0.28125 -0.0625l0.0625 0.5625q-0.25 0.109375 -0.578125 0.109375q-0.1875 0 -0.359375 -0.0625q-0.15625 -0.0625 -0.234375 -0.171875q-0.0625 -0.109375 -0.09375 -0.28125q-0.015625 -0.140625 -0.015625 -0.515625l0 -1.21875l-0.34375 0l0 -0.578125l0.34375 0l0 -0.546875l0.734375 -0.421875l0 0.96875l0.5 0zm0.4930725 -0.375l0 -0.671875l0.734375 0l0 0.671875l-0.734375 0zm0 3.140625l0 -2.765625l0.734375 0l0 2.765625l-0.734375 0zm1.3240662 -1.421875q0 -0.359375 0.171875 -0.703125q0.1875 -0.34375 0.515625 -0.515625q0.328125 -0.1875 0.734375 -0.1875q0.625 0 1.015625 0.40625q0.40625 0.40625 0.40625 1.03125q0 0.625 -0.40625 1.046875q-0.40625 0.40625 -1.015625 0.40625q-0.375 0 -0.71875 -0.171875q-0.34375 -0.171875 -0.53125 -0.5q-0.171875 -0.328125 -0.171875 -0.8125zm0.75 0.046875q0 0.40625 0.1875 0.625q0.203125 0.21875 0.484375 0.21875q0.28125 0 0.46875 -0.21875q0.203125 -0.21875 0.203125 -0.640625q0 -0.40625 -0.203125 -0.625q-0.1875 -0.21875 -0.46875 -0.21875q-0.28125 0 -0.484375 0.21875q-0.1875 0.21875 -0.1875 0.640625zm5.1765137 1.375l-0.71875 0l0 -1.40625q0 -0.453125 -0.046875 -0.578125q-0.046875 -0.140625 -0.15625 -0.203125q-0.109375 -0.078125 -0.25 -0.078125q-0.203125 0 -0.359375 0.109375q-0.140625 0.09375 -0.203125 0.265625q-0.046875 0.171875 -0.046875 0.640625l0 1.25l-0.734375 0l0 -2.765625l0.6875 0l0 0.40625q0.359375 -0.46875 0.90625 -0.46875q0.234375 0 0.4375 0.09375q0.203125 0.078125 0.296875 0.21875q0.109375 0.140625 0.140625 0.3125q0.046875 0.171875 0.046875 0.484375l0 1.71875z" fill-rule="nonzero"/><path fill="#990000" d="m276.872 291.3326l-0.734375 0l0 -2.765625l0.6875 0l0 0.390625q0.171875 -0.28125 0.3125 -0.359375q0.140625 -0.09375 0.3125 -0.09375q0.25 0 0.484375 0.140625l-0.21875 0.640625q-0.1875 -0.125 -0.34375 -0.125q-0.15625 0 -0.265625 0.09375q-0.109375 0.078125 -0.171875 0.296875q-0.0625 0.21875 -0.0625 0.921875l0 0.859375zm2.9797363 -0.875l0.71875 0.125q-0.125 0.390625 -0.4375 0.609375q-0.296875 0.203125 -0.75 0.203125q-0.734375 0 -1.078125 -0.46875q-0.265625 -0.375 -0.265625 -0.953125q0 -0.6875 0.359375 -1.078125q0.359375 -0.390625 0.90625 -0.390625q0.609375 0 0.96875 0.40625q0.359375 0.40625 0.34375 1.25l-1.828125 0q0 0.328125 0.171875 0.515625q0.171875 0.171875 0.421875 0.171875q0.171875 0 0.28125 -0.09375q0.125 -0.09375 0.1875 -0.296875zm0.046875 -0.75q-0.015625 -0.3125 -0.171875 -0.46875q-0.15625 -0.171875 -0.375 -0.171875q-0.25 0 -0.40625 0.171875q-0.15625 0.171875 -0.140625 0.46875l1.09375 0zm3.1195068 2.671875l0 -1.390625q-0.140625 0.1875 -0.359375 0.296875q-0.203125 0.109375 -0.453125 0.109375q-0.46875 0 -0.78125 -0.359375q-0.359375 -0.40625 -0.359375 -1.109375q0 -0.671875 0.328125 -1.046875q0.34375 -0.375 0.84375 -0.375q0.28125 0 0.484375 0.125q0.203125 0.109375 0.359375 0.34375l0 -0.40625l0.671875 0l0 3.8125l-0.734375 0zm0.03125 -2.46875q0 -0.421875 -0.1875 -0.625q-0.171875 -0.203125 -0.421875 -0.203125q-0.265625 0 -0.453125 0.21875q-0.171875 0.203125 -0.171875 0.65625q0 0.453125 0.171875 0.65625q0.171875 0.203125 0.421875 0.203125q0.25 0 0.4375 -0.21875q0.203125 -0.234375 0.203125 -0.6875zm3.2390137 1.421875l0 -0.40625q-0.15625 0.21875 -0.40625 0.34375q-0.234375 0.125 -0.515625 0.125q-0.28125 0 -0.5 -0.125q-0.21875 -0.125 -0.328125 -0.34375q-0.09375 -0.21875 -0.09375 -0.609375l0 -1.75l0.734375 0l0 1.265625q0 0.59375 0.03125 0.734375q0.046875 0.125 0.15625 0.203125q0.109375 0.0625 0.28125 0.0625q0.1875 0 0.328125 -0.09375q0.15625 -0.109375 0.203125 -0.25q0.0625 -0.15625 0.0625 -0.75l0 -1.171875l0.71875 0l0 2.765625l-0.671875 0zm1.4265137 -3.140625l0 -0.671875l0.734375 0l0 0.671875l-0.734375 0zm0 3.140625l0 -2.765625l0.734375 0l0 2.765625l-0.734375 0zm2.1834717 0l-0.734375 0l0 -2.765625l0.6875 0l0 0.390625q0.171875 -0.28125 0.3125 -0.359375q0.140625 -0.09375 0.3125 -0.09375q0.25 0 0.484375 0.140625l-0.21875 0.640625q-0.1875 -0.125 -0.34375 -0.125q-0.15625 0 -0.265625 0.09375q-0.109375 0.078125 -0.171875 0.296875q-0.0625 0.21875 -0.0625 0.921875l0 0.859375zm2.9797363 -0.875l0.71875 0.125q-0.125 0.390625 -0.4375 0.609375q-0.296875 0.203125 -0.75 0.203125q-0.734375 0 -1.078125 -0.46875q-0.265625 -0.375 -0.265625 -0.953125q0 -0.6875 0.359375 -1.078125q0.359375 -0.390625 0.90625 -0.390625q0.609375 0 0.96875 0.40625q0.359375 0.40625 0.34375 1.25l-1.828125 0q0 0.328125 0.171875 0.515625q0.171875 0.171875 0.421875 0.171875q0.171875 0 0.28125 -0.09375q0.125 -0.09375 0.1875 -0.296875zm0.046875 -0.75q-0.015625 -0.3125 -0.171875 -0.46875q-0.15625 -0.171875 -0.375 -0.171875q-0.25 0 -0.40625 0.171875q-0.15625 0.171875 -0.140625 0.46875l1.09375 0zm3.8538818 1.625l-0.6875 0l0 -0.40625q-0.171875 0.234375 -0.40625 0.359375q-0.21875 0.109375 -0.453125 0.109375q-0.484375 0 -0.828125 -0.375q-0.328125 -0.390625 -0.328125 -1.078125q0 -0.703125 0.328125 -1.0625q0.328125 -0.375 0.84375 -0.375q0.453125 0 0.796875 0.390625l0 -1.375l0.734375 0l0 3.8125zm-1.953125 -1.4375q0 0.4375 0.125 0.640625q0.171875 0.28125 0.484375 0.28125q0.25 0 0.421875 -0.203125q0.1875 -0.21875 0.1875 -0.65625q0 -0.46875 -0.171875 -0.671875q-0.171875 -0.21875 -0.4375 -0.21875q-0.265625 0 -0.4375 0.203125q-0.171875 0.203125 -0.171875 0.625z" fill-rule="nonzero"/><path fill="#f4cccc" d="m262.61023 378.03345l13.348419 -13.348419l20.98822 0l13.348419 13.348419l0 18.87799l-13.348419 13.348419l-20.98822 0l-13.348419 -13.348419z" fill-rule="evenodd"/><path stroke="#990000" stroke-width="2.0" stroke-linejoin="round" stroke-linecap="butt" d="m262.61023 378.03345l13.348419 -13.348419l20.98822 0l13.348419 13.348419l0 18.87799l-13.348419 13.348419l-20.98822 0l-13.348419 -13.348419z" fill-rule="evenodd"/><path fill="#990000" d="m272.70718 385.1862l0.75 0.234375q-0.171875 0.625 -0.578125 0.9375q-0.390625 0.296875 -1.015625 0.296875q-0.75 0 -1.25 -0.515625q-0.484375 -0.515625 -0.484375 -1.421875q0 -0.953125 0.484375 -1.46875q0.5 -0.53125 1.296875 -0.53125q0.703125 0 1.140625 0.40625q0.265625 0.25 0.390625 0.703125l-0.765625 0.1875q-0.0625 -0.296875 -0.28125 -0.46875q-0.203125 -0.171875 -0.515625 -0.171875q-0.421875 0 -0.6875 0.3125q-0.265625 0.296875 -0.265625 0.96875q0 0.734375 0.25 1.046875q0.265625 0.296875 0.6875 0.296875q0.3125 0 0.53125 -0.1875q0.21875 -0.203125 0.3125 -0.625zm1.2384338 -0.015625q0 -0.359375 0.171875 -0.703125q0.1875 -0.34375 0.515625 -0.515625q0.328125 -0.1875 0.734375 -0.1875q0.625 0 1.015625 0.40625q0.40625 0.40625 0.40625 1.03125q0 0.625 -0.40625 1.046875q-0.40625 0.40625 -1.015625 0.40625q-0.375 0 -0.71875 -0.171875q-0.34375 -0.171875 -0.53125 -0.5q-0.171875 -0.328125 -0.171875 -0.8125zm0.75 0.046875q0 0.40625 0.1875 0.625q0.203125 0.21875 0.484375 0.21875q0.28125 0 0.46875 -0.21875q0.203125 -0.21875 0.203125 -0.640625q0 -0.40625 -0.203125 -0.625q-0.1875 -0.21875 -0.46875 -0.21875q-0.28125 0 -0.484375 0.21875q-0.1875 0.21875 -0.1875 0.640625zm2.5046387 -0.046875q0 -0.359375 0.171875 -0.703125q0.1875 -0.34375 0.515625 -0.515625q0.328125 -0.1875 0.734375 -0.1875q0.625 0 1.015625 0.40625q0.40625 0.40625 0.40625 1.03125q0 0.625 -0.40625 1.046875q-0.40625 0.40625 -1.015625 0.40625q-0.375 0 -0.71875 -0.171875q-0.34375 -0.171875 -0.53125 -0.5q-0.171875 -0.328125 -0.171875 -0.8125zm0.75 0.046875q0 0.40625 0.1875 0.625q0.203125 0.21875 0.484375 0.21875q0.28125 0 0.46875 -0.21875q0.203125 -0.21875 0.203125 -0.640625q0 -0.40625 -0.203125 -0.625q-0.1875 -0.21875 -0.46875 -0.21875q-0.28125 0 -0.484375 0.21875q-0.1875 0.21875 -0.1875 0.640625zm3.3640137 1.375l-0.734375 0l0 -2.765625l0.6875 0l0 0.390625q0.171875 -0.28125 0.3125 -0.359375q0.140625 -0.09375 0.3125 -0.09375q0.25 0 0.484375 0.140625l-0.21875 0.640625q-0.1875 -0.125 -0.34375 -0.125q-0.15625 0 -0.265625 0.09375q-0.109375 0.078125 -0.171875 0.296875q-0.0625 0.21875 -0.0625 0.921875l0 0.859375zm3.9172668 0l-0.6875 0l0 -0.40625q-0.171875 0.234375 -0.40625 0.359375q-0.21875 0.109375 -0.453125 0.109375q-0.484375 0 -0.828125 -0.375q-0.328125 -0.390625 -0.328125 -1.078125q0 -0.703125 0.328125 -1.0625q0.328125 -0.375 0.84375 -0.375q0.453125 0 0.796875 0.390625l0 -1.375l0.734375 0l0 3.8125zm-1.953125 -1.4375q0 0.4375 0.125 0.640625q0.171875 0.28125 0.484375 0.28125q0.25 0 0.421875 -0.203125q0.1875 -0.21875 0.1875 -0.65625q0 -0.46875 -0.171875 -0.671875q-0.171875 -0.21875 -0.4375 -0.21875q-0.265625 0 -0.4375 0.203125q-0.171875 0.203125 -0.171875 0.625zm2.6608887 -1.703125l0 -0.671875l0.734375 0l0 0.671875l-0.734375 0zm0 3.140625l0 -2.765625l0.734375 0l0 2.765625l-0.734375 0zm3.9959412 0l-0.71875 0l0 -1.40625q0 -0.453125 -0.046875 -0.578125q-0.046875 -0.140625 -0.15625 -0.203125q-0.109375 -0.078125 -0.25 -0.078125q-0.203125 0 -0.359375 0.109375q-0.140625 0.09375 -0.203125 0.265625q-0.046875 0.171875 -0.046875 0.640625l0 1.25l-0.734375 0l0 -2.765625l0.6875 0l0 0.40625q0.359375 -0.46875 0.90625 -0.46875q0.234375 0 0.4375 0.09375q0.203125 0.078125 0.296875 0.21875q0.109375 0.140625 0.140625 0.3125q0.046875 0.171875 0.046875 0.484375l0 1.71875zm1.2858887 -1.921875l-0.65625 -0.125q0.109375 -0.390625 0.375 -0.578125q0.28125 -0.203125 0.828125 -0.203125q0.484375 0 0.71875 0.125q0.25 0.109375 0.34375 0.296875q0.09375 0.171875 0.09375 0.640625l0 0.859375q0 0.359375 0.03125 0.53125q0.03125 0.171875 0.125 0.375l-0.71875 0q-0.03125 -0.078125 -0.078125 -0.21875q-0.015625 -0.0625 -0.015625 -0.078125q-0.1875 0.171875 -0.40625 0.265625q-0.21875 0.09375 -0.453125 0.09375q-0.421875 0 -0.671875 -0.234375q-0.25 -0.234375 -0.25 -0.578125q0 -0.234375 0.109375 -0.421875q0.109375 -0.1875 0.3125 -0.28125q0.203125 -0.09375 0.59375 -0.171875q0.5 -0.09375 0.703125 -0.171875l0 -0.078125q0 -0.21875 -0.109375 -0.296875q-0.09375 -0.09375 -0.390625 -0.09375q-0.1875 0 -0.296875 0.078125q-0.109375 0.078125 -0.1875 0.265625zm0.984375 0.59375q-0.140625 0.046875 -0.453125 0.109375q-0.296875 0.0625 -0.390625 0.125q-0.140625 0.109375 -0.140625 0.265625q0 0.15625 0.109375 0.265625q0.125 0.109375 0.296875 0.109375q0.203125 0 0.375 -0.125q0.140625 -0.109375 0.171875 -0.25q0.03125 -0.09375 0.03125 -0.359375l0 -0.140625zm2.7132568 -1.4375l0 0.578125l-0.5 0l0 1.125q0 0.328125 0 0.390625q0.015625 0.0625 0.0625 0.09375q0.0625 0.03125 0.140625 0.03125q0.09375 0 0.28125 -0.0625l0.0625 0.5625q-0.25 0.109375 -0.578125 0.109375q-0.1875 0 -0.359375 -0.0625q-0.15625 -0.0625 -0.234375 -0.171875q-0.0625 -0.109375 -0.09375 -0.28125q-0.015625 -0.140625 -0.015625 -0.515625l0 -1.21875l-0.34375 0l0 -0.578125l0.34375 0l0 -0.546875l0.734375 -0.421875l0 0.96875l0.5 0zm0.4930725 -0.375l0 -0.671875l0.734375 0l0 0.671875l-0.734375 0zm0 3.140625l0 -2.765625l0.734375 0l0 2.765625l-0.734375 0zm1.3240662 -1.421875q0 -0.359375 0.171875 -0.703125q0.1875 -0.34375 0.515625 -0.515625q0.328125 -0.1875 0.734375 -0.1875q0.625 0 1.015625 0.40625q0.40625 0.40625 0.40625 1.03125q0 0.625 -0.40625 1.046875q-0.40625 0.40625 -1.015625 0.40625q-0.375 0 -0.71875 -0.171875q-0.34375 -0.171875 -0.53125 -0.5q-0.171875 -0.328125 -0.171875 -0.8125zm0.75 0.046875q0 0.40625 0.1875 0.625q0.203125 0.21875 0.484375 0.21875q0.28125 0 0.46875 -0.21875q0.203125 -0.21875 0.203125 -0.640625q0 -0.40625 -0.203125 -0.625q-0.1875 -0.21875 -0.46875 -0.21875q-0.28125 0 -0.484375 0.21875q-0.1875 0.21875 -0.1875 0.640625zm5.1765137 1.375l-0.71875 0l0 -1.40625q0 -0.453125 -0.046875 -0.578125q-0.046875 -0.140625 -0.15625 -0.203125q-0.109375 -0.078125 -0.25 -0.078125q-0.203125 0 -0.359375 0.109375q-0.140625 0.09375 -0.203125 0.265625q-0.046875 0.171875 -0.046875 0.640625l0 1.25l-0.734375 0l0 -2.765625l0.6875 0l0 0.40625q0.359375 -0.46875 0.90625 -0.46875q0.234375 0 0.4375 0.09375q0.203125 0.078125 0.296875 0.21875q0.109375 0.140625 0.140625 0.3125q0.046875 0.171875 0.046875 0.484375l0 1.71875z" fill-rule="nonzero"/><path fill="#990000" d="m276.872 392.59244l-0.734375 0l0 -2.765625l0.6875 0l0 0.390625q0.171875 -0.28125 0.3125 -0.359375q0.140625 -0.09375 0.3125 -0.09375q0.25 0 0.484375 0.140625l-0.21875 0.640625q-0.1875 -0.125 -0.34375 -0.125q-0.15625 0 -0.265625 0.09375q-0.109375 0.078125 -0.171875 0.296875q-0.0625 0.21875 -0.0625 0.921875l0 0.859375zm2.9797363 -0.875l0.71875 0.125q-0.125 0.390625 -0.4375 0.609375q-0.296875 0.203125 -0.75 0.203125q-0.734375 0 -1.078125 -0.46875q-0.265625 -0.375 -0.265625 -0.953125q0 -0.6875 0.359375 -1.078125q0.359375 -0.390625 0.90625 -0.390625q0.609375 0 0.96875 0.40625q0.359375 0.40625 0.34375 1.25l-1.828125 0q0 0.328125 0.171875 0.515625q0.171875 0.171875 0.421875 0.171875q0.171875 0 0.28125 -0.09375q0.125 -0.09375 0.1875 -0.296875zm0.046875 -0.75q-0.015625 -0.3125 -0.171875 -0.46875q-0.15625 -0.171875 -0.375 -0.171875q-0.25 0 -0.40625 0.171875q-0.15625 0.171875 -0.140625 0.46875l1.09375 0zm3.1195068 2.671875l0 -1.390625q-0.140625 0.1875 -0.359375 0.296875q-0.203125 0.109375 -0.453125 0.109375q-0.46875 0 -0.78125 -0.359375q-0.359375 -0.40625 -0.359375 -1.109375q0 -0.671875 0.328125 -1.046875q0.34375 -0.375 0.84375 -0.375q0.28125 0 0.484375 0.125q0.203125 0.109375 0.359375 0.34375l0 -0.40625l0.671875 0l0 3.8125l-0.734375 0zm0.03125 -2.46875q0 -0.421875 -0.1875 -0.625q-0.171875 -0.203125 -0.421875 -0.203125q-0.265625 0 -0.453125 0.21875q-0.171875 0.203125 -0.171875 0.65625q0 0.453125 0.171875 0.65625q0.171875 0.203125 0.421875 0.203125q0.25 0 0.4375 -0.21875q0.203125 -0.234375 0.203125 -0.6875zm3.2390137 1.421875l0 -0.40625q-0.15625 0.21875 -0.40625 0.34375q-0.234375 0.125 -0.515625 0.125q-0.28125 0 -0.5 -0.125q-0.21875 -0.125 -0.328125 -0.34375q-0.09375 -0.21875 -0.09375 -0.609375l0 -1.75l0.734375 0l0 1.265625q0 0.59375 0.03125 0.734375q0.046875 0.125 0.15625 0.203125q0.109375 0.0625 0.28125 0.0625q0.1875 0 0.328125 -0.09375q0.15625 -0.109375 0.203125 -0.25q0.0625 -0.15625 0.0625 -0.75l0 -1.171875l0.71875 0l0 2.765625l-0.671875 0zm1.4265137 -3.140625l0 -0.671875l0.734375 0l0 0.671875l-0.734375 0zm0 3.140625l0 -2.765625l0.734375 0l0 2.765625l-0.734375 0zm2.1834717 0l-0.734375 0l0 -2.765625l0.6875 0l0 0.390625q0.171875 -0.28125 0.3125 -0.359375q0.140625 -0.09375 0.3125 -0.09375q0.25 0 0.484375 0.140625l-0.21875 0.640625q-0.1875 -0.125 -0.34375 -0.125q-0.15625 0 -0.265625 0.09375q-0.109375 0.078125 -0.171875 0.296875q-0.0625 0.21875 -0.0625 0.921875l0 0.859375zm2.9797363 -0.875l0.71875 0.125q-0.125 0.390625 -0.4375 0.609375q-0.296875 0.203125 -0.75 0.203125q-0.734375 0 -1.078125 -0.46875q-0.265625 -0.375 -0.265625 -0.953125q0 -0.6875 0.359375 -1.078125q0.359375 -0.390625 0.90625 -0.390625q0.609375 0 0.96875 0.40625q0.359375 0.40625 0.34375 1.25l-1.828125 0q0 0.328125 0.171875 0.515625q0.171875 0.171875 0.421875 0.171875q0.171875 0 0.28125 -0.09375q0.125 -0.09375 0.1875 -0.296875zm0.046875 -0.75q-0.015625 -0.3125 -0.171875 -0.46875q-0.15625 -0.171875 -0.375 -0.171875q-0.25 0 -0.40625 0.171875q-0.15625 0.171875 -0.140625 0.46875l1.09375 0zm3.8538818 1.625l-0.6875 0l0 -0.40625q-0.171875 0.234375 -0.40625 0.359375q-0.21875 0.109375 -0.453125 0.109375q-0.484375 0 -0.828125 -0.375q-0.328125 -0.390625 -0.328125 -1.078125q0 -0.703125 0.328125 -1.0625q0.328125 -0.375 0.84375 -0.375q0.453125 0 0.796875 0.390625l0 -1.375l0.734375 0l0 3.8125zm-1.953125 -1.4375q0 0.4375 0.125 0.640625q0.171875 0.28125 0.484375 0.28125q0.25 0 0.421875 -0.203125q0.1875 -0.21875 0.1875 -0.65625q0 -0.46875 -0.171875 -0.671875q-0.171875 -0.21875 -0.4375 -0.21875q-0.265625 0 -0.4375 0.203125q-0.171875 0.203125 -0.171875 0.625z" fill-rule="nonzero"/><path fill="#f4cccc" d="m105.49475 67.70011l13.348404 -13.348404l20.988235 0l13.348404 13.348404l0 18.87799l-13.348404 13.348404l-20.988235 0l-13.348404 -13.348404z" fill-rule="evenodd"/><path stroke="#990000" stroke-width="2.0" stroke-linejoin="round" stroke-linecap="butt" d="m105.49475 67.70011l13.348404 -13.348404l20.988235 0l13.348404 13.348404l0 18.87799l-13.348404 13.348404l-20.988235 0l-13.348404 -13.348404z" fill-rule="evenodd"/><path fill="#990000" d="m125.05644 74.85286l0.75 0.234375q-0.171875 0.625 -0.578125 0.9375q-0.390625 0.296875 -1.015625 0.296875q-0.75 0 -1.25 -0.515625q-0.484375 -0.515625 -0.484375 -1.421875q0 -0.953125 0.484375 -1.46875q0.5 -0.53125 1.296875 -0.53125q0.703125 0 1.140625 0.40625q0.265625 0.25 0.390625 0.703125l-0.765625 0.1875q-0.0625 -0.296875 -0.28125 -0.46875q-0.203125 -0.171875 -0.515625 -0.171875q-0.421875 0 -0.6875 0.3125q-0.265625 0.296875 -0.265625 0.96875q0 0.734375 0.25 1.046875q0.265625 0.296875 0.6875 0.296875q0.3125 0 0.53125 -0.1875q0.21875 -0.203125 0.3125 -0.625zm1.3946838 1.40625l0 -3.8125l0.734375 0l0 3.8125l-0.734375 0zm2.0272064 -1.921875l-0.65625 -0.125q0.109375 -0.390625 0.375 -0.578125q0.28125 -0.203125 0.828125 -0.203125q0.484375 0 0.71875 0.125q0.25 0.109375 0.34375 0.296875q0.09375 0.171875 0.09375 0.640625l0 0.859375q0 0.359375 0.03125 0.53125q0.03125 0.171875 0.125 0.375l-0.71875 0q-0.03125 -0.078125 -0.078125 -0.21875q-0.015625 -0.0625 -0.015625 -0.078125q-0.1875 0.171875 -0.40625 0.265625q-0.21875 0.09375 -0.453125 0.09375q-0.421875 0 -0.671875 -0.234375q-0.25 -0.234375 -0.25 -0.578125q0 -0.234375 0.109375 -0.421875q0.109375 -0.1875 0.3125 -0.28125q0.203125 -0.09375 0.59375 -0.171875q0.5 -0.09375 0.703125 -0.171875l0 -0.078125q0 -0.21875 -0.109375 -0.296875q-0.09375 -0.09375 -0.390625 -0.09375q-0.1875 0 -0.296875 0.078125q-0.109375 0.078125 -0.1875 0.265625zm0.984375 0.59375q-0.140625 0.046875 -0.453125 0.109375q-0.296875 0.0625 -0.390625 0.125q-0.140625 0.109375 -0.140625 0.265625q0 0.15625 0.109375 0.265625q0.125 0.109375 0.296875 0.109375q0.203125 0 0.375 -0.125q0.140625 -0.109375 0.171875 -0.25q0.03125 -0.09375 0.03125 -0.359375l0 -0.140625zm1.1820068 0.546875l0.734375 -0.125q0.046875 0.21875 0.1875 0.328125q0.140625 0.109375 0.40625 0.109375q0.28125 0 0.421875 -0.09375q0.09375 -0.078125 0.09375 -0.203125q0 -0.078125 -0.046875 -0.140625q-0.0625 -0.046875 -0.25 -0.09375q-0.875 -0.1875 -1.125 -0.359375q-0.328125 -0.21875 -0.328125 -0.625q0 -0.359375 0.28125 -0.59375q0.296875 -0.25 0.890625 -0.25q0.5625 0 0.84375 0.1875q0.28125 0.1875 0.375 0.546875l-0.6875 0.125q-0.046875 -0.15625 -0.171875 -0.234375q-0.125 -0.09375 -0.34375 -0.09375q-0.296875 0 -0.421875 0.078125q-0.078125 0.0625 -0.078125 0.140625q0 0.078125 0.078125 0.140625q0.09375 0.078125 0.671875 0.21875q0.59375 0.125 0.828125 0.3125q0.21875 0.1875 0.21875 0.546875q0 0.375 -0.3125 0.65625q-0.3125 0.265625 -0.9375 0.265625q-0.5625 0 -0.90625 -0.21875q-0.328125 -0.234375 -0.421875 -0.625zm2.9632568 0l0.734375 -0.125q0.046875 0.21875 0.1875 0.328125q0.140625 0.109375 0.40625 0.109375q0.28125 0 0.421875 -0.09375q0.09375 -0.078125 0.09375 -0.203125q0 -0.078125 -0.046875 -0.140625q-0.0625 -0.046875 -0.25 -0.09375q-0.875 -0.1875 -1.125 -0.359375q-0.328125 -0.21875 -0.328125 -0.625q0 -0.359375 0.28125 -0.59375q0.296875 -0.25 0.890625 -0.25q0.5625 0 0.84375 0.1875q0.28125 0.1875 0.375 0.546875l-0.6875 0.125q-0.046875 -0.15625 -0.171875 -0.234375q-0.125 -0.09375 -0.34375 -0.09375q-0.296875 0 -0.421875 0.078125q-0.078125 0.0625 -0.078125 0.140625q0 0.078125 0.078125 0.140625q0.09375 0.078125 0.671875 0.21875q0.59375 0.125 0.828125 0.3125q0.21875 0.1875 0.21875 0.546875q0 0.375 -0.3125 0.65625q-0.3125 0.265625 -0.9375 0.265625q-0.5625 0 -0.90625 -0.21875q-0.328125 -0.234375 -0.421875 -0.625z" fill-rule="nonzero"/><path fill="#990000" d="m118.565544 79.493484l0.671875 0l0 0.375q0.359375 -0.4375 0.859375 -0.4375q0.265625 0 0.453125 0.109375q0.203125 0.109375 0.328125 0.328125q0.1875 -0.21875 0.390625 -0.328125q0.21875 -0.109375 0.453125 -0.109375q0.3125 0 0.515625 0.125q0.21875 0.125 0.3125 0.359375q0.078125 0.1875 0.078125 0.578125l0 1.765625l-0.734375 0l0 -1.578125q0 -0.40625 -0.078125 -0.53125q-0.09375 -0.15625 -0.3125 -0.15625q-0.140625 0 -0.28125 0.09375q-0.140625 0.09375 -0.203125 0.28125q-0.046875 0.171875 -0.046875 0.5625l0 1.328125l-0.734375 0l0 -1.515625q0 -0.40625 -0.046875 -0.515625q-0.03125 -0.125 -0.125 -0.171875q-0.078125 -0.0625 -0.21875 -0.0625q-0.15625 0 -0.296875 0.09375q-0.140625 0.09375 -0.203125 0.265625q-0.046875 0.171875 -0.046875 0.5625l0 1.34375l-0.734375 0l0 -2.765625zm4.628189 1.34375q0 -0.359375 0.171875 -0.703125q0.1875 -0.34375 0.515625 -0.515625q0.328125 -0.1875 0.734375 -0.1875q0.625 0 1.015625 0.40625q0.40625 0.40625 0.40625 1.03125q0 0.625 -0.40625 1.046875q-0.40625 0.40625 -1.015625 0.40625q-0.375 0 -0.71875 -0.171875q-0.34375 -0.171875 -0.53125 -0.5q-0.171875 -0.328125 -0.171875 -0.8125zm0.75 0.046875q0 0.40625 0.1875 0.625q0.203125 0.21875 0.484375 0.21875q0.28125 0 0.46875 -0.21875q0.203125 -0.21875 0.203125 -0.640625q0 -0.40625 -0.203125 -0.625q-0.1875 -0.21875 -0.46875 -0.21875q-0.28125 0 -0.484375 0.21875q-0.1875 0.21875 -0.1875 0.640625zm5.207756 1.375l-0.6875 0l0 -0.40625q-0.171875 0.234375 -0.40625 0.359375q-0.21874237 0.109375 -0.45311737 0.109375q-0.484375 0 -0.828125 -0.375q-0.328125 -0.390625 -0.328125 -1.078125q0 -0.703125 0.328125 -1.0625q0.328125 -0.375 0.84375 -0.375q0.45311737 0 0.7968674 0.390625l0 -1.375l0.734375 0l0 3.8125zm-1.9531174 -1.4375q0 0.4375 0.125 0.640625q0.171875 0.28125 0.484375 0.28125q0.24999237 0 0.42186737 -0.203125q0.1875 -0.21875 0.1875 -0.65625q0 -0.46875 -0.171875 -0.671875q-0.171875 -0.21875 -0.43749237 -0.21875q-0.265625 0 -0.4375 0.203125q-0.171875 0.203125 -0.171875 0.625zm2.660881 -1.703125l0 -0.671875l0.734375 0l0 0.671875l-0.734375 0zm0 3.140625l0 -2.765625l0.734375 0l0 2.765625l-0.734375 0zm1.1678314 -2.765625l0.40625 0l0 -0.203125q0 -0.34375 0.0625 -0.515625q0.078125 -0.171875 0.28125 -0.28125q0.203125 -0.109375 0.5 -0.109375q0.3125 0 0.625 0.09375l-0.109375 0.5q-0.171875 -0.03125 -0.328125 -0.03125q-0.15625 0 -0.234375 0.078125q-0.0625 0.0625 -0.0625 0.28125l0 0.1875l0.546875 0l0 0.578125l-0.546875 0l0 2.1875l-0.734375 0l0 -2.1875l-0.40625 0l0 -0.578125zm2.0868073 -0.375l0 -0.671875l0.734375 0l0 0.671875l-0.734375 0zm0 3.140625l0 -2.765625l0.734375 0l0 2.765625l-0.734375 0zm3.0897064 -0.875l0.71875 0.125q-0.125 0.390625 -0.4375 0.609375q-0.296875 0.203125 -0.75 0.203125q-0.734375 0 -1.078125 -0.46875q-0.265625 -0.375 -0.265625 -0.953125q0 -0.6875 0.359375 -1.078125q0.359375 -0.390625 0.90625 -0.390625q0.609375 0 0.96875 0.40625q0.359375 0.40625 0.34375 1.25l-1.828125 0q0 0.328125 0.171875 0.515625q0.171875 0.171875 0.421875 0.171875q0.171875 0 0.28125 -0.09375q0.125 -0.09375 0.1875 -0.296875zm0.046875 -0.75q-0.015625 -0.3125 -0.171875 -0.46875q-0.15625 -0.171875 -0.375 -0.171875q-0.25 0 -0.40625 0.171875q-0.15625 0.171875 -0.140625 0.46875l1.09375 0zm3.8538818 1.625l-0.6875 0l0 -0.40625q-0.171875 0.234375 -0.40625 0.359375q-0.21875 0.109375 -0.453125 0.109375q-0.484375 0 -0.828125 -0.375q-0.328125 -0.390625 -0.328125 -1.078125q0 -0.703125 0.328125 -1.0625q0.328125 -0.375 0.84375 -0.375q0.453125 0 0.796875 0.390625l0 -1.375l0.734375 0l0 3.8125zm-1.953125 -1.4375q0 0.4375 0.125 0.640625q0.171875 0.28125 0.484375 0.28125q0.25 0 0.421875 -0.203125q0.1875 -0.21875 0.1875 -0.65625q0 -0.46875 -0.171875 -0.671875q-0.171875 -0.21875 -0.4375 -0.21875q-0.265625 0 -0.4375 0.203125q-0.171875 0.203125 -0.171875 0.625z" fill-rule="nonzero"/></g></svg>