<svg version="1.1" viewBox="0.0 0.0 743.0 281.0" fill="none" stroke="none" stroke-linecap="square" stroke-miterlimit="10" xmlns:xlink="http://www.w3.org/1999/xlink" xmlns="http://www.w3.org/2000/svg"><clipPath id="p.0"><path d="m0 0l743.0 0l0 281.0l-743.0 0l0 -281.0z" clip-rule="nonzero"/></clipPath><g clip-path="url(#p.0)"><path fill="#000000" fill-opacity="0.0" d="m0 0l743.0 0l0 281.0l-743.0 0z" fill-rule="evenodd"/><path fill="#cfe2f3" d="m143.00787 25.4984l0 0c0 -6.3503914 5.1480103 -11.4984 11.498398 -11.4984l559.4914 0c3.0495605 0 5.974182 1.2114353 8.130554 3.3678036c2.156372 2.1563683 3.3677979 5.081032 3.3677979 8.130596l0 228.49927c0 6.3503876 -5.147949 11.498398 -11.498352 11.498398l-559.4914 0c-6.3503876 0 -11.498398 -5.1480103 -11.498398 -11.498398z" fill-rule="evenodd"/><path stroke="#073763" stroke-width="2.0" stroke-linejoin="round" stroke-linecap="butt" d="m143.00787 25.4984l0 0c0 -6.3503914 5.1480103 -11.4984 11.498398 -11.4984l559.4914 0c3.0495605 0 5.974182 1.2114353 8.130554 3.3678036c2.156372 2.1563683 3.3677979 5.081032 3.3677979 8.130596l0 228.49927c0 6.3503876 -5.147949 11.498398 -11.498352 11.498398l-559.4914 0c-6.3503876 0 -11.498398 -5.1480103 -11.498398 -11.498398z" fill-rule="evenodd"/><path fill="#073763" d="m417.98904 30.928389l5.34375 0q1.59375 0 2.359375 0.140625q0.78125 0.125 1.390625 0.546875q0.625 0.4218769 1.03125 1.1250019q0.40625 0.6875 0.40625 1.546875q0 0.9375 -0.5 1.734375q-0.5 0.78125 -1.375 1.171875q1.21875 0.359375 1.875 1.21875q0.65625 0.84375 0.65625 2.0q0 0.921875 -0.421875 1.78125q-0.421875 0.859375 -1.15625 1.375q-0.734375 0.515625 -1.796875 0.625q-0.6875 0.078125 -3.265625 0.09375l-4.546875 0l0 -13.359377zm2.703125 2.234377l0 3.078125l1.765625 0q1.578125 0 1.953125 -0.046875q0.703125 -0.078125 1.09375 -0.46875q0.40625 -0.40625 0.40625 -1.046875q0 -0.625 -0.34375 -1.0q-0.34375 -0.390625 -1.015625 -0.484375q-0.40625 -0.03125 -2.3125 -0.03125l-1.546875 0zm0 5.296875l0 3.578125l2.5 0q1.453125 0 1.84375 -0.078125q0.609375 -0.109375 0.984375 -0.53125q0.375 -0.421875 0.375 -1.140625q0 -0.59375 -0.296875 -1.015625q-0.28125 -0.421875 -0.84375 -0.609375q-0.546875 -0.203125 -2.390625 -0.203125l-2.171875 0zm17.113586 5.828125l0 -1.453125q-0.53125 0.78125 -1.390625 1.234375q-0.859375 0.4375 -1.8125 0.4375q-0.96875 0 -1.75 -0.421875q-0.765625 -0.4375 -1.125 -1.203125q-0.34375 -0.78125 -0.34375 -2.140625l0 -6.125l2.5625 0l0 4.4375q0 2.046875 0.140625 2.515625q0.140625 0.453125 0.515625 0.71875q0.375 0.265625 0.953125 0.265625q0.65625 0 1.171875 -0.359375q0.515625 -0.359375 0.703125 -0.890625q0.203125 -0.53125 0.203125 -2.609375l0 -4.078125l2.546875 0l0 9.671875l-2.375 0zm4.1303406 -2.765625l2.5625 -0.390625q0.171875 0.75 0.671875 1.140625q0.5 0.390625 1.40625 0.390625q0.984375 0 1.484375 -0.375q0.34375 -0.25 0.34375 -0.671875q0 -0.296875 -0.1875 -0.484375q-0.1875 -0.1875 -0.859375 -0.34375q-3.09375 -0.6875 -3.921875 -1.25q-1.140625 -0.78125 -1.140625 -2.171875q0 -1.265625 0.984375 -2.109375q1.0 -0.859375 3.078125 -0.859375q1.984375 0 2.953125 0.65625q0.96875 0.640625 1.328125 1.90625l-2.40625 0.4375q-0.15625 -0.5625 -0.59375 -0.859375q-0.421875 -0.296875 -1.234375 -0.296875q-1.0 0 -1.4375 0.28125q-0.296875 0.203125 -0.296875 0.515625q0 0.265625 0.25 0.46875q0.34375 0.25 2.390625 0.71875q2.046875 0.453125 2.859375 1.140625q0.796875 0.671875 0.796875 1.890625q0 1.34375 -1.109375 2.296875q-1.109375 0.953125 -3.28125 0.953125q-1.984375 0 -3.140625 -0.796875q-1.140625 -0.8125 -1.5 -2.1875z" fill-rule="nonzero"/><path fill="#000000" fill-opacity="0.0" d="m259.99738 102.16273l61.88977 0" fill-rule="evenodd"/><path stroke="#1155cc" stroke-width="3.0" stroke-linejoin="round" stroke-linecap="butt" d="m259.99738 102.16273l43.88977 0" fill-rule="evenodd"/><path fill="#1155cc" stroke="#1155cc" stroke-width="3.0" stroke-linecap="butt" d="m303.88715 107.11793l13.614288 -4.9552l-13.614288 -4.9551926z" fill-rule="evenodd"/><path fill="#000000" fill-opacity="0.0" d="m406.66928 102.16273l61.88977 0" fill-rule="evenodd"/><path stroke="#1155cc" stroke-width="3.0" stroke-linejoin="round" stroke-linecap="butt" d="m406.66928 102.16273l43.88977 0" fill-rule="evenodd"/><path fill="#1155cc" stroke="#1155cc" stroke-width="3.0" stroke-linecap="butt" d="m450.55905 107.11793l13.614288 -4.9552l-13.614288 -4.9551926z" fill-rule="evenodd"/><path fill="#000000" fill-opacity="0.0" d="m550.479 102.16273l61.88977 0" fill-rule="evenodd"/><path stroke="#1155cc" stroke-width="3.0" stroke-linejoin="round" stroke-linecap="butt" d="m550.479 102.16273l43.88977 0" fill-rule="evenodd"/><path fill="#1155cc" stroke="#1155cc" stroke-width="3.0" stroke-linecap="butt" d="m594.3688 107.11793l13.614258 -4.9552l-13.614258 -4.9551926z" fill-rule="evenodd"/><path fill="#000000" fill-opacity="0.0" d="m613.7992 199.66142l-61.88977 0" fill-rule="evenodd"/><path stroke="#45818e" stroke-width="3.0" stroke-linejoin="round" stroke-linecap="butt" d="m613.7992 199.66142l-43.88977 0" fill-rule="evenodd"/><path fill="#45818e" stroke="#45818e" stroke-width="3.0" stroke-linecap="butt" d="m569.9094 194.70622l-13.614258 4.9552l13.614258 4.955185z" fill-rule="evenodd"/><path fill="#000000" fill-opacity="0.0" d="m468.55905 199.66142l-61.88977 0" fill-rule="evenodd"/><path stroke="#45818e" stroke-width="3.0" stroke-linejoin="round" stroke-linecap="butt" d="m468.55905 199.66142l-43.88977 0" fill-rule="evenodd"/><path fill="#45818e" stroke="#45818e" stroke-width="3.0" stroke-linecap="butt" d="m424.66928 194.70622l-13.614288 4.9552l13.614288 4.955185z" fill-rule="evenodd"/><path fill="#000000" fill-opacity="0.0" d="m321.68634 199.66142l-61.88974 0" fill-rule="evenodd"/><path stroke="#45818e" stroke-width="3.0" stroke-linejoin="round" stroke-linecap="butt" d="m321.68634 199.66142l-43.88974 0" fill-rule="evenodd"/><path fill="#45818e" stroke="#45818e" stroke-width="3.0" stroke-linecap="butt" d="m277.7966 194.70622l-13.614319 4.9552l13.614319 4.955185z" fill-rule="evenodd"/><path fill="#000000" fill-opacity="0.0" d="m174.18767 199.66142l-61.88977 0" fill-rule="evenodd"/><path stroke="#45818e" stroke-width="3.0" stroke-linejoin="round" stroke-linecap="butt" d="m174.18767 199.66142l-43.88977 0" fill-rule="evenodd"/><path fill="#45818e" stroke="#45818e" stroke-width="3.0" stroke-linecap="butt" d="m130.2979 194.70622l-13.614288 4.9552l13.614288 4.955185z" fill-rule="evenodd"/><path fill="#000000" fill-opacity="0.0" d="m113.32546 102.16273l61.889763 0" fill-rule="evenodd"/><path stroke="#1155cc" stroke-width="3.0" stroke-linejoin="round" stroke-linecap="butt" d="m113.32546 102.16273l43.889763 0" fill-rule="evenodd"/><path fill="#1155cc" stroke="#1155cc" stroke-width="3.0" stroke-linecap="butt" d="m157.21523 107.11793l13.614288 -4.9552l-13.614288 -4.9551926z" fill-rule="evenodd"/><path fill="#ead1dc" d="m627.45435 240.51968l0 0c-7.5407715 0 -13.653809 -6.113022 -13.653809 -13.653809l0 -150.2042c0 -3.6212158 1.4385376 -7.094116 3.9990845 -9.654709c2.560608 -2.560585 6.0335083 -3.9991074 9.654724 -3.9991074l54.613647 0c7.5407715 0 13.653809 6.113022 13.653809 13.653816l0 150.2042c0 7.5407867 -6.113037 13.653809 -13.653809 13.653809z" fill-rule="evenodd"/><path stroke="#4c1130" stroke-width="3.0" stroke-linejoin="round" stroke-linecap="butt" d="m627.45435 240.51968l0 0c-7.5407715 0 -13.653809 -6.113022 -13.653809 -13.653809l0 -150.2042c0 -3.6212158 1.4385376 -7.094116 3.9990845 -9.654709c2.560608 -2.560585 6.0335083 -3.9991074 9.654724 -3.9991074l54.613647 0c7.5407715 0 13.653809 6.113022 13.653809 13.653816l0 150.2042c0 7.5407867 -6.113037 13.653809 -13.653809 13.653809z" fill-rule="evenodd"/><path fill="#4c1130" d="m661.9612 204.79991l-14.3125 0l0 -4.328125l9.765625 -2.59375l-9.765625 -2.5625l0 -4.34375l14.3125 0l0 2.6875l-11.265625 0l11.265625 2.84375l0 2.78125l-11.265625 2.828125l11.265625 0l0 2.6875zm-11.78125 -16.675781l-2.53125 0l0 -2.75l2.53125 0l0 2.75zm11.78125 0l-10.375 0l0 -2.75l10.375 0l0 2.75zm0 -15.072266l0 2.546875l-1.53125 0q0.890625 0.640625 1.328125 1.515625q0.4375 0.859375 0.4375 1.734375q0 1.78125 -1.4375 3.0625q-1.4375 1.265625 -4.015625 1.265625q-2.640625 0 -4.015625 -1.234375q-1.375 -1.234375 -1.375 -3.140625q0 -1.734375 1.453125 -3.0l-5.15625 0l0 -2.75l14.3125 0zm-5.40625 7.328125q1.65625 0 2.390625 -0.453125q1.078125 -0.671875 1.078125 -1.859375q0 -0.953125 -0.796875 -1.609375q-0.8125 -0.671875 -2.40625 -0.671875q-1.796875 0 -2.578125 0.65625q-0.78125 0.640625 -0.78125 1.640625q0 0.984375 0.78125 1.640625q0.765625 0.65625 2.3125 0.65625zm5.40625 -19.544922l0 2.546875l-1.53125 0q0.890625 0.640625 1.328125 1.515625q0.4375 0.859375 0.4375 1.734375q0 1.78125 -1.4375 3.0625q-1.4375 1.265625 -4.015625 1.265625q-2.640625 0 -4.015625 -1.234375q-1.375 -1.234375 -1.375 -3.140625q0 -1.734375 1.453125 -3.0l-5.15625 0l0 -2.75l14.3125 0zm-5.40625 7.328125q1.65625 0 2.390625 -0.453125q1.078125 -0.671875 1.078125 -1.859375q0 -0.953125 -0.796875 -1.609375q-0.8125 -0.671875 -2.40625 -0.671875q-1.796875 0 -2.578125 0.65625q-0.78125 0.640625 -0.78125 1.640625q0 0.984375 0.78125 1.640625q0.765625 0.65625 2.3125 0.65625zm5.40625 -10.029297l-14.3125 0l0 -2.75l14.3125 0l0 2.75zm-3.296875 -11.556641l0.453125 -2.734375q1.5 0.515625 2.296875 1.65625q0.78125 1.140625 0.78125 2.84375q0 2.71875 -1.765625 4.015625q-1.421875 1.015625 -3.578125 1.015625q-2.578125 0 -4.03125 -1.34375q-1.46875 -1.34375 -1.46875 -3.40625q0 -2.3125 1.53125 -3.640625q1.53125 -1.34375 4.6875 -1.296875l0 6.875q1.21875 -0.03125 1.90625 -0.65625q0.671875 -0.640625 0.671875 -1.578125q0 -0.65625 -0.34375 -1.09375q-0.359375 -0.4375 -1.140625 -0.65625zm-2.78125 -0.15625q-1.1875 0.03125 -1.796875 0.625q-0.625 0.578125 -0.625 1.40625q0 0.90625 0.640625 1.484375q0.65625 0.59375 1.78125 0.578125l0 -4.09375zm6.078125 -6.904297l-10.375 3.28125l0 -2.65625l6.796875 -1.953125l-6.796875 -1.78125l0 -2.640625l6.796875 -1.734375l-6.796875 -1.984375l0 -2.7031174l10.375 3.3281174l0 2.640625l-6.671875 1.78125l6.671875 1.765625l0 2.65625zm-7.203125 -15.666008l-0.453125 2.484375q-1.5 -0.421875 -2.21875 -1.4375q-0.734375 -1.03125 -0.734375 -3.046875q0 -1.84375 0.4375 -2.734375q0.4375 -0.90625 1.109375 -1.265625q0.65625 -0.375 2.453125 -0.375l3.203125 0.03125q1.359375 0 2.015625 -0.125q0.640625 -0.140625 1.390625 -0.5l0 2.71875q-0.28125 0.109375 -0.8125 0.265625q-0.25 0.0625 -0.328125 0.09375q0.6875 0.703125 1.03125 1.515625q0.34375 0.796875 0.34375 1.703125q0 1.59375 -0.859375 2.515625q-0.875 0.921875 -2.203125 0.921875q-0.890625 0 -1.578125 -0.40625q-0.6875 -0.421875 -1.046875 -1.171875q-0.375 -0.765625 -0.640625 -2.203125q-0.359375 -1.921875 -0.671875 -2.65625l-0.28125 0q-0.78125 0 -1.109375 0.390625q-0.34375 0.390625 -0.34375 1.46875q0 0.734375 0.28125 1.15625q0.28125 0.40625 1.015625 0.65625zm2.21875 -3.671875q0.171875 0.53125 0.421875 1.671875q0.25 1.140625 0.484375 1.484375q0.375 0.546875 0.96875 0.546875q0.5625 0 0.984375 -0.421875q0.421875 -0.4375 0.421875 -1.109375q0 -0.734375 -0.484375 -1.40625q-0.375 -0.5 -0.90625 -0.65625q-0.359375 -0.109375 -1.34375 -0.109375l-0.546875 0zm4.984375 -8.029297l0 2.75l-10.375 0l0 -2.5625l1.484375 0q-1.046875 -0.640625 -1.375 -1.15625q-0.34375 -0.53125 -0.34375 -1.203125q0 -0.9375 0.515625 -1.796875l2.390625 0.84375q-0.4375 0.6875 -0.4375 1.28125q0 0.578125 0.3125 0.984375q0.3125 0.40625 1.15625 0.640625q0.828125 0.21875 3.46875 0.21875l3.203125 0zm-3.296875 -11.158203l0.453125 -2.734375q1.5 0.515625 2.296875 1.65625q0.78125 1.140625 0.78125 2.84375q0 2.71875 -1.765625 4.015625q-1.421875 1.015625 -3.578125 1.015625q-2.578125 0 -4.03125 -1.34375q-1.46875 -1.34375 -1.46875 -3.40625q0 -2.3125 1.53125 -3.640625q1.53125 -1.34375 4.6875 -1.296875l0 6.875q1.21875 -0.03125 1.90625 -0.65625q0.671875 -0.640625 0.671875 -1.578125q0 -0.65625 -0.34375 -1.09375q-0.359375 -0.4375 -1.140625 -0.65625zm-2.78125 -0.15625q-1.1875 0.03125 -1.796875 0.625q-0.625 0.578125 -0.625 1.40625q0 0.90625 0.640625 1.484375q0.65625 0.59375 1.78125 0.578125l0 -4.09375z" fill-rule="nonzero"/><path fill="#fff2cc" d="m189.8979 240.51968l0 0c-7.5407867 0 -13.653809 -6.113022 -13.653809 -13.653809l0 -150.2042c0 -3.6212158 1.4385223 -7.094116 3.999115 -9.654709c2.5605774 -2.560585 6.033478 -3.9991074 9.654694 -3.9991074l54.613632 0c7.540802 0 13.653809 6.113022 13.653809 13.653816l0 150.2042c0 7.5407867 -6.1130066 13.653809 -13.653809 13.653809z" fill-rule="evenodd"/><path stroke="#7f6000" stroke-width="3.0" stroke-linejoin="round" stroke-linecap="butt" d="m189.8979 240.51968l0 0c-7.5407867 0 -13.653809 -6.113022 -13.653809 -13.653809l0 -150.2042c0 -3.6212158 1.4385223 -7.094116 3.999115 -9.654709c2.5605774 -2.560585 6.033478 -3.9991074 9.654694 -3.9991074l54.613632 0c7.540802 0 13.653809 6.113022 13.653809 13.653816l0 150.2042c0 7.5407867 -6.1130066 13.653809 -13.653809 13.653809z" fill-rule="evenodd"/><path fill="#7f6000" d="m224.40472 204.79991l-14.3125 0l0 -4.328125l9.765625 -2.59375l-9.765625 -2.5625l0 -4.34375l14.3125 0l0 2.6875l-11.265625 0l11.265625 2.84375l0 2.78125l-11.265625 2.828125l11.265625 0l0 2.6875zm-11.78125 -16.675781l-2.53125 0l0 -2.75l2.53125 0l0 2.75zm11.78125 0l-10.375 0l0 -2.75l10.375 0l0 2.75zm0 -15.072266l0 2.546875l-1.53125 0q0.890625 0.640625 1.328125 1.515625q0.4375 0.859375 0.4375 1.734375q0 1.78125 -1.4375 3.0625q-1.4375 1.265625 -4.015625 1.265625q-2.640625 0 -4.015625 -1.234375q-1.375 -1.234375 -1.375 -3.140625q0 -1.734375 1.453125 -3.0l-5.15625 0l0 -2.75l14.3125 0zm-5.40625 7.328125q1.65625 0 2.390625 -0.453125q1.078125 -0.671875 1.078125 -1.859375q0 -0.953125 -0.796875 -1.609375q-0.8125 -0.671875 -2.40625 -0.671875q-1.796875 0 -2.578125 0.65625q-0.78125 0.640625 -0.78125 1.640625q0 0.984375 0.78125 1.640625q0.765625 0.65625 2.3125 0.65625zm5.40625 -19.544922l0 2.546875l-1.53125 0q0.890625 0.640625 1.328125 1.515625q0.4375 0.859375 0.4375 1.734375q0 1.78125 -1.4375 3.0625q-1.4375 1.265625 -4.015625 1.265625q-2.640625 0 -4.015625 -1.234375q-1.375 -1.234375 -1.375 -3.140625q0 -1.734375 1.453125 -3.0l-5.15625 0l0 -2.75l14.3125 0zm-5.40625 7.328125q1.65625 0 2.390625 -0.453125q1.078125 -0.671875 1.078125 -1.859375q0 -0.953125 -0.796875 -1.609375q-0.8125 -0.671875 -2.40625 -0.671875q-1.796875 0 -2.578125 0.65625q-0.78125 0.640625 -0.78125 1.640625q0 0.984375 0.78125 1.640625q0.765625 0.65625 2.3125 0.65625zm5.40625 -10.029297l-14.3125 0l0 -2.75l14.3125 0l0 2.75zm-3.296875 -11.556641l0.453125 -2.734375q1.5 0.515625 2.296875 1.65625q0.78125 1.140625 0.78125 2.84375q0 2.71875 -1.765625 4.015625q-1.421875 1.015625 -3.578125 1.015625q-2.578125 0 -4.03125 -1.34375q-1.46875 -1.34375 -1.46875 -3.40625q0 -2.3125 1.53125 -3.640625q1.53125 -1.34375 4.6875 -1.296875l0 6.875q1.21875 -0.03125 1.90625 -0.65625q0.671875 -0.640625 0.671875 -1.578125q0 -0.65625 -0.34375 -1.09375q-0.359375 -0.4375 -1.140625 -0.65625zm-2.78125 -0.15625q-1.1875 0.03125 -1.796875 0.625q-0.625 0.578125 -0.625 1.40625q0 0.90625 0.640625 1.484375q0.65625 0.59375 1.78125 0.578125l0 -4.09375zm6.078125 -6.904297l-10.375 3.28125l0 -2.65625l6.796875 -1.953125l-6.796875 -1.78125l0 -2.640625l6.796875 -1.734375l-6.796875 -1.984375l0 -2.7031174l10.375 3.3281174l0 2.640625l-6.671875 1.78125l6.671875 1.765625l0 2.65625zm-7.203125 -15.666008l-0.453125 2.484375q-1.5 -0.421875 -2.21875 -1.4375q-0.734375 -1.03125 -0.734375 -3.046875q0 -1.84375 0.4375 -2.734375q0.4375 -0.90625 1.109375 -1.265625q0.65625 -0.375 2.453125 -0.375l3.203125 0.03125q1.359375 0 2.015625 -0.125q0.640625 -0.140625 1.390625 -0.5l0 2.71875q-0.28125 0.109375 -0.8125 0.265625q-0.25 0.0625 -0.328125 0.09375q0.6875 0.703125 1.03125 1.515625q0.34375 0.796875 0.34375 1.703125q0 1.59375 -0.859375 2.515625q-0.875 0.921875 -2.203125 0.921875q-0.890625 0 -1.578125 -0.40625q-0.6875 -0.421875 -1.046875 -1.171875q-0.375 -0.765625 -0.640625 -2.203125q-0.359375 -1.921875 -0.671875 -2.65625l-0.28125 0q-0.78125 0 -1.109375 0.390625q-0.34375 0.390625 -0.34375 1.46875q0 0.734375 0.28125 1.15625q0.28125 0.40625 1.015625 0.65625zm2.21875 -3.671875q0.171875 0.53125 0.421875 1.671875q0.25 1.140625 0.484375 1.484375q0.375 0.546875 0.96875 0.546875q0.5625 0 0.984375 -0.421875q0.421875 -0.4375 0.421875 -1.109375q0 -0.734375 -0.484375 -1.40625q-0.375 -0.5 -0.90625 -0.65625q-0.359375 -0.109375 -1.34375 -0.109375l-0.546875 0zm4.984375 -8.029297l0 2.75l-10.375 0l0 -2.5625l1.484375 0q-1.046875 -0.640625 -1.375 -1.15625q-0.34375 -0.53125 -0.34375 -1.203125q0 -0.9375 0.515625 -1.796875l2.390625 0.84375q-0.4375 0.6875 -0.4375 1.28125q0 0.578125 0.3125 0.984375q0.3125 0.40625 1.15625 0.640625q0.828125 0.21875 3.46875 0.21875l3.203125 0zm-3.296875 -11.158203l0.453125 -2.734375q1.5 0.515625 2.296875 1.65625q0.78125 1.140625 0.78125 2.84375q0 2.71875 -1.765625 4.015625q-1.421875 1.015625 -3.578125 1.015625q-2.578125 0 -4.03125 -1.34375q-1.46875 -1.34375 -1.46875 -3.40625q0 -2.3125 1.53125 -3.640625q1.53125 -1.34375 4.6875 -1.296875l0 6.875q1.21875 -0.03125 1.90625 -0.65625q0.671875 -0.640625 0.671875 -1.578125q0 -0.65625 -0.34375 -1.09375q-0.359375 -0.4375 -1.140625 -0.65625zm-2.78125 -0.15625q-1.1875 0.03125 -1.796875 0.625q-0.625 0.578125 -0.625 1.40625q0 0.90625 0.640625 1.484375q0.65625 0.59375 1.78125 0.578125l0 -4.09375z" fill-rule="nonzero"/><path fill="#d9ead3" d="m336.9714 240.51968l0 0c-7.540802 0 -13.653809 -6.113022 -13.653809 -13.653809l0 -150.2042c0 -3.6212158 1.4385071 -7.094116 3.9990845 -9.654709c2.560608 -2.560585 6.0335083 -3.9991074 9.654724 -3.9991074l54.613617 0c7.540802 0 13.653809 6.113022 13.653809 13.653816l0 150.2042c0 7.5407867 -6.1130066 13.653809 -13.653809 13.653809z" fill-rule="evenodd"/><path stroke="#274e13" stroke-width="3.0" stroke-linejoin="round" stroke-linecap="butt" d="m336.9714 240.51968l0 0c-7.540802 0 -13.653809 -6.113022 -13.653809 -13.653809l0 -150.2042c0 -3.6212158 1.4385071 -7.094116 3.9990845 -9.654709c2.560608 -2.560585 6.0335083 -3.9991074 9.654724 -3.9991074l54.613617 0c7.540802 0 13.653809 6.113022 13.653809 13.653816l0 150.2042c0 7.5407867 -6.1130066 13.653809 -13.653809 13.653809z" fill-rule="evenodd"/><path fill="#274e13" d="m371.4782 204.79991l-14.3125 0l0 -4.328125l9.765625 -2.59375l-9.765625 -2.5625l0 -4.34375l14.3125 0l0 2.6875l-11.265625 0l11.265625 2.84375l0 2.78125l-11.265625 2.828125l11.265625 0l0 2.6875zm-11.78125 -16.675781l-2.53125 0l0 -2.75l2.53125 0l0 2.75zm11.78125 0l-10.375 0l0 -2.75l10.375 0l0 2.75zm0 -15.072266l0 2.546875l-1.53125 0q0.890625 0.640625 1.328125 1.515625q0.4375 0.859375 0.4375 1.734375q0 1.78125 -1.4375 3.0625q-1.4375 1.265625 -4.015625 1.265625q-2.640625 0 -4.015625 -1.234375q-1.375 -1.234375 -1.375 -3.140625q0 -1.734375 1.453125 -3.0l-5.15625 0l0 -2.75l14.3125 0zm-5.40625 7.328125q1.65625 0 2.390625 -0.453125q1.078125 -0.671875 1.078125 -1.859375q0 -0.953125 -0.796875 -1.609375q-0.8125 -0.671875 -2.40625 -0.671875q-1.796875 0 -2.578125 0.65625q-0.78125 0.640625 -0.78125 1.640625q0 0.984375 0.78125 1.640625q0.765625 0.65625 2.3125 0.65625zm5.40625 -19.544922l0 2.546875l-1.53125 0q0.890625 0.640625 1.328125 1.515625q0.4375 0.859375 0.4375 1.734375q0 1.78125 -1.4375 3.0625q-1.4375 1.265625 -4.015625 1.265625q-2.640625 0 -4.015625 -1.234375q-1.375 -1.234375 -1.375 -3.140625q0 -1.734375 1.453125 -3.0l-5.15625 0l0 -2.75l14.3125 0zm-5.40625 7.328125q1.65625 0 2.390625 -0.453125q1.078125 -0.671875 1.078125 -1.859375q0 -0.953125 -0.796875 -1.609375q-0.8125 -0.671875 -2.40625 -0.671875q-1.796875 0 -2.578125 0.65625q-0.78125 0.640625 -0.78125 1.640625q0 0.984375 0.78125 1.640625q0.765625 0.65625 2.3125 0.65625zm5.40625 -10.029297l-14.3125 0l0 -2.75l14.3125 0l0 2.75zm-3.296875 -11.556641l0.453125 -2.734375q1.5 0.515625 2.296875 1.65625q0.78125 1.140625 0.78125 2.84375q0 2.71875 -1.765625 4.015625q-1.421875 1.015625 -3.578125 1.015625q-2.578125 0 -4.03125 -1.34375q-1.46875 -1.34375 -1.46875 -3.40625q0 -2.3125 1.53125 -3.640625q1.53125 -1.34375 4.6875 -1.296875l0 6.875q1.21875 -0.03125 1.90625 -0.65625q0.671875 -0.640625 0.671875 -1.578125q0 -0.65625 -0.34375 -1.09375q-0.359375 -0.4375 -1.140625 -0.65625zm-2.78125 -0.15625q-1.1875 0.03125 -1.796875 0.625q-0.625 0.578125 -0.625 1.40625q0 0.90625 0.640625 1.484375q0.65625 0.59375 1.78125 0.578125l0 -4.09375zm6.078125 -6.904297l-10.375 3.28125l0 -2.65625l6.796875 -1.953125l-6.796875 -1.78125l0 -2.640625l6.796875 -1.734375l-6.796875 -1.984375l0 -2.7031174l10.375 3.3281174l0 2.640625l-6.671875 1.78125l6.671875 1.765625l0 2.65625zm-7.203125 -15.666008l-0.453125 2.484375q-1.5 -0.421875 -2.21875 -1.4375q-0.734375 -1.03125 -0.734375 -3.046875q0 -1.84375 0.4375 -2.734375q0.4375 -0.90625 1.109375 -1.265625q0.65625 -0.375 2.453125 -0.375l3.203125 0.03125q1.359375 0 2.015625 -0.125q0.640625 -0.140625 1.390625 -0.5l0 2.71875q-0.28125 0.109375 -0.8125 0.265625q-0.25 0.0625 -0.328125 0.09375q0.6875 0.703125 1.03125 1.515625q0.34375 0.796875 0.34375 1.703125q0 1.59375 -0.859375 2.515625q-0.875 0.921875 -2.203125 0.921875q-0.890625 0 -1.578125 -0.40625q-0.6875 -0.421875 -1.046875 -1.171875q-0.375 -0.765625 -0.640625 -2.203125q-0.359375 -1.921875 -0.671875 -2.65625l-0.28125 0q-0.78125 0 -1.109375 0.390625q-0.34375 0.390625 -0.34375 1.46875q0 0.734375 0.28125 1.15625q0.28125 0.40625 1.015625 0.65625zm2.21875 -3.671875q0.171875 0.53125 0.421875 1.671875q0.25 1.140625 0.484375 1.484375q0.375 0.546875 0.96875 0.546875q0.5625 0 0.984375 -0.421875q0.421875 -0.4375 0.421875 -1.109375q0 -0.734375 -0.484375 -1.40625q-0.375 -0.5 -0.90625 -0.65625q-0.359375 -0.109375 -1.34375 -0.109375l-0.546875 0zm4.984375 -8.029297l0 2.75l-10.375 0l0 -2.5625l1.484375 0q-1.046875 -0.640625 -1.375 -1.15625q-0.34375 -0.53125 -0.34375 -1.203125q0 -0.9375 0.515625 -1.796875l2.390625 0.84375q-0.4375 0.6875 -0.4375 1.28125q0 0.578125 0.3125 0.984375q0.3125 0.40625 1.15625 0.640625q0.828125 0.21875 3.46875 0.21875l3.203125 0zm-3.296875 -11.158203l0.453125 -2.734375q1.5 0.515625 2.296875 1.65625q0.78125 1.140625 0.78125 2.84375q0 2.71875 -1.765625 4.015625q-1.421875 1.015625 -3.578125 1.015625q-2.578125 0 -4.03125 -1.34375q-1.46875 -1.34375 -1.46875 -3.40625q0 -2.3125 1.53125 -3.640625q1.53125 -1.34375 4.6875 -1.296875l0 6.875q1.21875 -0.03125 1.90625 -0.65625q0.671875 -0.640625 0.671875 -1.578125q0 -0.65625 -0.34375 -1.09375q-0.359375 -0.4375 -1.140625 -0.65625zm-2.78125 -0.15625q-1.1875 0.03125 -1.796875 0.625q-0.625 0.578125 -0.625 1.40625q0 0.90625 0.640625 1.484375q0.65625 0.59375 1.78125 0.578125l0 -4.09375z" fill-rule="nonzero"/><path fill="#fce5cd" d="m483.6433 240.51968l0 0c-7.540802 0 -13.653809 -6.113022 -13.653809 -13.653809l0 -150.2042c0 -3.6212158 1.4385071 -7.094116 3.999115 -9.654709c2.5605774 -2.560585 6.033478 -3.9991074 9.654694 -3.9991074l54.613647 0c7.5407715 0 13.653809 6.113022 13.653809 13.653816l0 150.2042c0 7.5407867 -6.113037 13.653809 -13.653809 13.653809z" fill-rule="evenodd"/><path stroke="#783f04" stroke-width="3.0" stroke-linejoin="round" stroke-linecap="butt" d="m483.6433 240.51968l0 0c-7.540802 0 -13.653809 -6.113022 -13.653809 -13.653809l0 -150.2042c0 -3.6212158 1.4385071 -7.094116 3.999115 -9.654709c2.5605774 -2.560585 6.033478 -3.9991074 9.654694 -3.9991074l54.613647 0c7.5407715 0 13.653809 6.113022 13.653809 13.653816l0 150.2042c0 7.5407867 -6.113037 13.653809 -13.653809 13.653809z" fill-rule="evenodd"/><path fill="#783f04" d="m518.15015 204.79991l-14.3125305 0l0 -4.328125l9.7656555 -2.59375l-9.7656555 -2.5625l0 -4.34375l14.3125305 0l0 2.6875l-11.2656555 0l11.2656555 2.84375l0 2.78125l-11.2656555 2.828125l11.2656555 0l0 2.6875zm-11.7812805 -16.675781l-2.53125 0l0 -2.75l2.53125 0l0 2.75zm11.7812805 0l-10.3750305 0l0 -2.75l10.3750305 0l0 2.75zm0 -15.072266l0 2.546875l-1.53125 0q0.890625 0.640625 1.328125 1.515625q0.4375 0.859375 0.4375 1.734375q0 1.78125 -1.4375 3.0625q-1.4375 1.265625 -4.015625 1.265625q-2.6406555 0 -4.0156555 -1.234375q-1.375 -1.234375 -1.375 -3.140625q0 -1.734375 1.453125 -3.0l-5.15625 0l0 -2.75l14.3125305 0zm-5.40625 7.328125q1.65625 0 2.390625 -0.453125q1.078125 -0.671875 1.078125 -1.859375q0 -0.953125 -0.796875 -1.609375q-0.8125 -0.671875 -2.40625 -0.671875q-1.7969055 0 -2.5781555 0.65625q-0.78125 0.640625 -0.78125 1.640625q0 0.984375 0.78125 1.640625q0.765625 0.65625 2.3125305 0.65625zm5.40625 -19.544922l0 2.546875l-1.53125 0q0.890625 0.640625 1.328125 1.515625q0.4375 0.859375 0.4375 1.734375q0 1.78125 -1.4375 3.0625q-1.4375 1.265625 -4.015625 1.265625q-2.6406555 0 -4.0156555 -1.234375q-1.375 -1.234375 -1.375 -3.140625q0 -1.734375 1.453125 -3.0l-5.15625 0l0 -2.75l14.3125305 0zm-5.40625 7.328125q1.65625 0 2.390625 -0.453125q1.078125 -0.671875 1.078125 -1.859375q0 -0.953125 -0.796875 -1.609375q-0.8125 -0.671875 -2.40625 -0.671875q-1.7969055 0 -2.5781555 0.65625q-0.78125 0.640625 -0.78125 1.640625q0 0.984375 0.78125 1.640625q0.765625 0.65625 2.3125305 0.65625zm5.40625 -10.029297l-14.3125305 0l0 -2.75l14.3125305 0l0 2.75zm-3.296875 -11.556641l0.453125 -2.734375q1.5 0.515625 2.296875 1.65625q0.78125 1.140625 0.78125 2.84375q0 2.71875 -1.765625 4.015625q-1.421875 1.015625 -3.578125 1.015625q-2.5781555 0 -4.0312805 -1.34375q-1.46875 -1.34375 -1.46875 -3.40625q0 -2.3125 1.53125 -3.640625q1.53125 -1.34375 4.6875305 -1.296875l0 6.875q1.21875 -0.03125 1.90625 -0.65625q0.671875 -0.640625 0.671875 -1.578125q0 -0.65625 -0.34375 -1.09375q-0.359375 -0.4375 -1.140625 -0.65625zm-2.78125 -0.15625q-1.1875305 0.03125 -1.7969055 0.625q-0.625 0.578125 -0.625 1.40625q0 0.90625 0.640625 1.484375q0.65625 0.59375 1.7812805 0.578125l0 -4.09375zm6.078125 -6.904297l-10.3750305 3.28125l0 -2.65625l6.7969055 -1.953125l-6.7969055 -1.78125l0 -2.640625l6.7969055 -1.734375l-6.7969055 -1.984375l0 -2.7031174l10.3750305 3.3281174l0 2.640625l-6.6719055 1.78125l6.6719055 1.765625l0 2.65625zm-7.2031555 -15.666008l-0.453125 2.484375q-1.5 -0.421875 -2.21875 -1.4375q-0.734375 -1.03125 -0.734375 -3.046875q0 -1.84375 0.4375 -2.734375q0.4375 -0.90625 1.109375 -1.265625q0.65625 -0.375 2.453125 -0.375l3.2031555 0.03125q1.359375 0 2.015625 -0.125q0.640625 -0.140625 1.390625 -0.5l0 2.71875q-0.28125 0.109375 -0.8125 0.265625q-0.25 0.0625 -0.328125 0.09375q0.6875 0.703125 1.03125 1.515625q0.34375 0.796875 0.34375 1.703125q0 1.59375 -0.859375 2.515625q-0.875 0.921875 -2.203125 0.921875q-0.890625 0 -1.578125 -0.40625q-0.6875 -0.421875 -1.046875 -1.171875q-0.375 -0.765625 -0.640625 -2.203125q-0.35940552 -1.921875 -0.6719055 -2.65625l-0.28125 0q-0.78125 0 -1.109375 0.390625q-0.34375 0.390625 -0.34375 1.46875q0 0.734375 0.28125 1.15625q0.28125 0.40625 1.015625 0.65625zm2.2187805 -3.671875q0.171875 0.53125 0.421875 1.671875q0.25 1.140625 0.484375 1.484375q0.375 0.546875 0.96875 0.546875q0.5625 0 0.984375 -0.421875q0.421875 -0.4375 0.421875 -1.109375q0 -0.734375 -0.484375 -1.40625q-0.375 -0.5 -0.90625 -0.65625q-0.359375 -0.109375 -1.34375 -0.109375l-0.546875 0zm4.984375 -8.029297l0 2.75l-10.3750305 0l0 -2.5625l1.484375 0q-1.046875 -0.640625 -1.375 -1.15625q-0.34375 -0.53125 -0.34375 -1.203125q0 -0.9375 0.515625 -1.796875l2.390625 0.84375q-0.4375 0.6875 -0.4375 1.28125q0 0.578125 0.3125 0.984375q0.3125 0.40625 1.15625 0.640625q0.8281555 0.21875 3.4687805 0.21875l3.203125 0zm-3.296875 -11.158203l0.453125 -2.734375q1.5 0.515625 2.296875 1.65625q0.78125 1.140625 0.78125 2.84375q0 2.71875 -1.765625 4.015625q-1.421875 1.015625 -3.578125 1.015625q-2.5781555 0 -4.0312805 -1.34375q-1.46875 -1.34375 -1.46875 -3.40625q0 -2.3125 1.53125 -3.640625q1.53125 -1.34375 4.6875305 -1.296875l0 6.875q1.21875 -0.03125 1.90625 -0.65625q0.671875 -0.640625 0.671875 -1.578125q0 -0.65625 -0.34375 -1.09375q-0.359375 -0.4375 -1.140625 -0.65625zm-2.78125 -0.15625q-1.1875305 0.03125 -1.7969055 0.625q-0.625 0.578125 -0.625 1.40625q0 0.90625 0.640625 1.484375q0.65625 0.59375 1.7812805 0.578125l0 -4.09375z" fill-rule="nonzero"/><path fill="#cfe2f3" d="m17.55643 92.325554l0 0c0 -2.7165375 2.2021923 -4.9187317 4.9187336 -4.9187317l84.90269 0c1.3045273 0 2.555626 0.5182266 3.4780731 1.4406662c0.9224396 0.9224396 1.4406586 2.1735382 1.4406586 3.4780655l0 19.674347c0 2.716545 -2.2021866 4.9187317 -4.9187317 4.9187317l-84.90269 0c-2.7165413 0 -4.9187336 -2.2021866 -4.9187336 -4.9187317z" fill-rule="evenodd"/><path stroke="#1155cc" stroke-width="2.0" stroke-linejoin="round" stroke-linecap="butt" d="m17.55643 92.325554l0 0c0 -2.7165375 2.2021923 -4.9187317 4.9187336 -4.9187317l84.90269 0c1.3045273 0 2.555626 0.5182266 3.4780731 1.4406662c0.9224396 0.9224396 1.4406586 2.1735382 1.4406586 3.4780655l0 19.674347c0 2.716545 -2.2021866 4.9187317 -4.9187317 4.9187317l-84.90269 0c-2.7165413 0 -4.9187336 -2.2021866 -4.9187336 -4.9187317z" fill-rule="evenodd"/><path fill="#1155cc" d="m36.39526 108.02273l0 -11.453125l5.078125 0q1.53125 0 2.328125 0.3125q0.796875 0.296875 1.265625 1.078125q0.484375 0.78125 0.484375 1.734375q0 1.21875 -0.796875 2.0625q-0.78125 0.828125 -2.4375 1.046875q0.609375 0.296875 0.921875 0.578125q0.65625 0.609375 1.25 1.515625l2.0 3.125l-1.90625 0l-1.515625 -2.390625q-0.671875 -1.03125 -1.109375 -1.578125q-0.421875 -0.546875 -0.765625 -0.765625q-0.328125 -0.21875 -0.6875 -0.296875q-0.25 -0.0625 -0.84375 -0.0625l-1.75 0l0 5.09375l-1.515625 0zm1.515625 -6.40625l3.25 0q1.046875 0 1.625 -0.203125q0.59375 -0.21875 0.890625 -0.6875q0.3125 -0.484375 0.3125 -1.03125q0 -0.8125 -0.59375 -1.328125q-0.59375 -0.53125 -1.859375 -0.53125l-3.625 0l0 3.78125zm15.5078125 3.734375l1.453125 0.171875q-0.34375 1.28125 -1.28125 1.984375q-0.921875 0.703125 -2.359375 0.703125q-1.828125 0 -2.890625 -1.125q-1.0625 -1.125 -1.0625 -3.140625q0 -2.09375 1.078125 -3.25q1.078125 -1.15625 2.796875 -1.15625q1.65625 0 2.703125 1.140625q1.0625 1.125 1.0625 3.171875q0 0.125 0 0.375l-6.1875 0q0.078125 1.375 0.765625 2.109375q0.703125 0.71875 1.734375 0.71875q0.78125 0 1.328125 -0.40625q0.546875 -0.40625 0.859375 -1.296875zm-4.609375 -2.28125l4.625 0q-0.09375 -1.046875 -0.53125 -1.5625q-0.671875 -0.8125 -1.734375 -0.8125q-0.96875 0 -1.640625 0.65625q-0.65625 0.640625 -0.71875 1.71875zm13.1171875 8.140625l0 -4.078125q-0.328125 0.46875 -0.921875 0.78125q-0.578125 0.296875 -1.25 0.296875q-1.46875 0 -2.546875 -1.171875q-1.0625 -1.1875 -1.0625 -3.25q0 -1.25 0.4375 -2.234375q0.4375 -1.0 1.25 -1.5q0.828125 -0.515625 1.8125 -0.515625q1.546875 0 2.421875 1.296875l0 -1.109375l1.265625 0l0 11.484375l-1.40625 0zm-4.328125 -7.359375q0 1.59375 0.671875 2.40625q0.671875 0.796875 1.609375 0.796875q0.890625 0 1.53125 -0.765625q0.65625 -0.765625 0.65625 -2.3125q0 -1.65625 -0.6875 -2.484375q-0.671875 -0.84375 -1.59375 -0.84375q-0.921875 0 -1.5625 0.78125q-0.625 0.765625 -0.625 2.421875zm13.382816 4.171875l0 -1.21875q-0.96875 1.40625 -2.640625 1.40625q-0.734375 0 -1.375 -0.28125q-0.625 -0.28125 -0.9375 -0.703125q-0.3125 -0.4375 -0.4375 -1.046875q-0.078125 -0.421875 -0.078125 -1.3125l0 -5.140625l1.40625 0l0 4.59375q0 1.109375 0.078125 1.484375q0.140625 0.5625 0.5625 0.875q0.4375 0.3125 1.0625 0.3125q0.640625 0 1.1875 -0.3125q0.5625 -0.328125 0.78125 -0.890625q0.234375 -0.5625 0.234375 -1.625l0 -4.4375l1.40625 0l0 8.296875l-1.25 0zm9.1328125 -2.671875l1.453125 0.171875q-0.34375 1.28125 -1.28125 1.984375q-0.921875 0.703125 -2.359375 0.703125q-1.828125 0 -2.890625 -1.125q-1.0625 -1.125 -1.0625 -3.140625q0 -2.09375 1.078125 -3.25q1.078125 -1.15625 2.796875 -1.15625q1.65625 0 2.703125 1.140625q1.0625 1.125 1.0625 3.171875q0 0.125 0 0.375l-6.1875 0q0.078125 1.375 0.765625 2.109375q0.703125 0.71875 1.734375 0.71875q0.78125 0 1.328125 -0.40625q0.546875 -0.40625 0.859375 -1.296875zm-4.609375 -2.28125l4.625 0q-0.09375 -1.046875 -0.53125 -1.5625q-0.671875 -0.8125 -1.734375 -0.8125q-0.96875 0 -1.640625 0.65625q-0.65625 0.640625 -0.71875 1.71875zm7.2734375 2.46875l1.3906174 -0.21875q0.109375 0.84375 0.640625 1.296875q0.546875 0.4375 1.5 0.4375q0.96875 0 1.4375 -0.390625q0.46875 -0.40625 0.46875 -0.9375q0 -0.46875 -0.40625 -0.75q-0.296875 -0.1875 -1.4375 -0.46875q-1.546875 -0.390625 -2.15625 -0.671875q-0.59375 -0.296875 -0.90625 -0.796875q-0.296875 -0.5 -0.296875 -1.109375q0 -0.5625 0.25 -1.03125q0.25 -0.46875 0.6875 -0.78125q0.328125 -0.25 0.890625 -0.40625q0.578125 -0.171875 1.21875 -0.171875q0.984375 0 1.71875 0.28125q0.734375 0.28125 1.078125 0.765625q0.359375 0.46875 0.5 1.28125l-1.375 0.1875q-0.09375 -0.640625 -0.546875 -1.0q-0.453125 -0.359375 -1.265625 -0.359375q-0.96875 0 -1.390625 0.328125q-0.40625 0.3125 -0.40625 0.734375q0 0.28125 0.171875 0.5q0.171875 0.21875 0.53125 0.375q0.21875 0.078125 1.25 0.359375q1.484375 0.390625 2.078125 0.65625q0.59375 0.25 0.921875 0.734375q0.34375 0.484375 0.34375 1.203125q0 0.703125 -0.421875 1.328125q-0.40625 0.609375 -1.1875 0.953125q-0.765625 0.34375 -1.734375 0.34375q-1.625 0 -2.46875 -0.671875q-0.84375 -0.671875 -1.0781174 -2.0zm11.624992 1.21875l0.203125 1.25q-0.59375 0.125 -1.0625 0.125q-0.765625 0 -1.1875 -0.234375q-0.421875 -0.25 -0.59375 -0.640625q-0.171875 -0.40625 -0.171875 -1.671875l0 -4.765625l-1.03125 0l0 -1.09375l1.03125 0l0 -2.0625l1.40625 -0.84375l0 2.90625l1.40625 0l0 1.09375l-1.40625 0l0 4.84375q0 0.609375 0.0625 0.78125q0.078125 0.171875 0.25 0.28125q0.171875 0.09375 0.484375 0.09375q0.234375 0 0.609375 -0.0625z" fill-rule="nonzero"/><path fill="#d0e0e3" d="m15.503937 189.82425l0 0c0 -2.7165527 2.2021923 -4.9187317 4.9187336 -4.9187317l84.902695 0c1.3045273 0 2.555626 0.518219 3.4780655 1.4406586c0.9224472 0.9224396 1.4406662 2.1735382 1.4406662 3.4780731l0 19.674347c0 2.7165375 -2.2021942 4.9187317 -4.9187317 4.9187317l-84.902695 0c-2.7165413 0 -4.9187336 -2.2021942 -4.9187336 -4.9187317z" fill-rule="evenodd"/><path stroke="#45818e" stroke-width="2.0" stroke-linejoin="round" stroke-linecap="butt" d="m15.503937 189.82425l0 0c0 -2.7165527 2.2021923 -4.9187317 4.9187336 -4.9187317l84.902695 0c1.3045273 0 2.555626 0.518219 3.4780655 1.4406586c0.9224472 0.9224396 1.4406662 2.1735382 1.4406662 3.4780731l0 19.674347c0 2.7165375 -2.2021942 4.9187317 -4.9187317 4.9187317l-84.902695 0c-2.7165413 0 -4.9187336 -2.2021942 -4.9187336 -4.9187317z" fill-rule="evenodd"/><path fill="#45818e" d="m28.116205 205.52142l0 -11.453125l5.078123 0q1.53125 0 2.328125 0.3125q0.796875 0.296875 1.265625 1.078125q0.484375 0.78125 0.484375 1.734375q0 1.21875 -0.796875 2.0625q-0.78125 0.828125 -2.4375 1.046875q0.609375 0.296875 0.921875 0.578125q0.65625 0.609375 1.25 1.515625l2.0 3.125l-1.90625 0l-1.515625 -2.390625q-0.671875 -1.03125 -1.109375 -1.578125q-0.421875 -0.546875 -0.765625 -0.765625q-0.328125 -0.21875 -0.6875 -0.296875q-0.2499981 -0.0625 -0.8437481 -0.0625l-1.75 0l0 5.09375l-1.515625 0zm1.515625 -6.40625l3.249998 0q1.046875 0 1.625 -0.203125q0.59375 -0.21875 0.890625 -0.6875q0.3125 -0.484375 0.3125 -1.03125q0 -0.8125 -0.59375 -1.328125q-0.59375 -0.53125 -1.859375 -0.53125l-3.624998 0l0 3.78125zm15.507811 3.734375l1.453125 0.171875q-0.34375 1.28125 -1.28125 1.984375q-0.921875 0.703125 -2.359375 0.703125q-1.828125 0 -2.890625 -1.125q-1.0625 -1.125 -1.0625 -3.140625q0 -2.09375 1.078125 -3.25q1.078125 -1.15625 2.796875 -1.15625q1.65625 0 2.703125 1.140625q1.0625 1.125 1.0625 3.171875q0 0.125 0 0.375l-6.1875 0q0.078125 1.375 0.765625 2.109375q0.703125 0.71875 1.734375 0.71875q0.78125 0 1.328125 -0.40625q0.546875 -0.40625 0.859375 -1.296875zm-4.609375 -2.28125l4.625 0q-0.09375 -1.046875 -0.53125 -1.5625q-0.671875 -0.8125 -1.734375 -0.8125q-0.96875 0 -1.640625 0.65625q-0.65625 0.640625 -0.71875 1.71875zm7.2734375 2.46875l1.390625 -0.21875q0.109375 0.84375 0.640625 1.296875q0.546875 0.4375 1.5 0.4375q0.96875 0 1.4375 -0.390625q0.46875 -0.40625 0.46875 -0.9375q0 -0.46875 -0.40625 -0.75q-0.296875 -0.1875 -1.4375 -0.46875q-1.546875 -0.390625 -2.15625 -0.671875q-0.59375 -0.296875 -0.90625 -0.796875q-0.296875 -0.5 -0.296875 -1.109375q0 -0.5625 0.25 -1.03125q0.25 -0.46875 0.6875 -0.78125q0.328125 -0.25 0.890625 -0.40625q0.578125 -0.171875 1.21875 -0.171875q0.984375 0 1.71875 0.28125q0.734375 0.28125 1.078125 0.765625q0.359375 0.46875 0.5 1.28125l-1.375 0.1875q-0.09375 -0.640625 -0.546875 -1.0q-0.453125 -0.359375 -1.265625 -0.359375q-0.96875 0 -1.390625 0.328125q-0.40625 0.3125 -0.40625 0.734375q0 0.28125 0.171875 0.5q0.171875 0.21875 0.53125 0.375q0.21875 0.078125 1.25 0.359375q1.484375 0.390625 2.078125 0.65625q0.59375 0.25 0.921875 0.734375q0.34375 0.484375 0.34375 1.203125q0 0.703125 -0.421875 1.328125q-0.40625 0.609375 -1.1875 0.953125q-0.765625 0.34375 -1.734375 0.34375q-1.625 0 -2.46875 -0.671875q-0.84375 -0.671875 -1.078125 -2.0zm8.5625 5.671875l0 -11.484375l1.28125 0l0 1.078125q0.453125 -0.640625 1.015625 -0.953125q0.578125 -0.3125 1.390625 -0.3125q1.0625 0 1.875 0.546875q0.8125 0.546875 1.21875 1.546875q0.421875 0.984375 0.421875 2.171875q0 1.28125 -0.46875 2.296875q-0.453125 1.015625 -1.328125 1.5625q-0.859375 0.546875 -1.828125 0.546875q-0.703125 0 -1.265625 -0.296875q-0.546875 -0.296875 -0.90625 -0.75l0 4.046875l-1.40625 0zm1.265625 -7.296875q0 1.609375 0.640625 2.375q0.65625 0.765625 1.578125 0.765625q0.9375 0 1.609375 -0.796875q0.671875 -0.796875 0.671875 -2.453125q0 -1.59375 -0.65625 -2.375q-0.65625 -0.796875 -1.5625 -0.796875q-0.890625 0 -1.59375 0.84375q-0.6875 0.84375 -0.6875 2.4375zm7.1015625 -0.046875q0 -2.296875 1.28125 -3.40625q1.078125 -0.921875 2.609375 -0.921875q1.71875 0 2.796875 1.125q1.09375 1.109375 1.09375 3.09375q0 1.59375 -0.484375 2.515625q-0.484375 0.921875 -1.40625 1.4375q-0.90625 0.5 -2.0 0.5q-1.734375 0 -2.8125 -1.109375q-1.078125 -1.125 -1.078125 -3.234375zm1.453125 0q0 1.59375 0.6875 2.390625q0.703125 0.796875 1.75 0.796875q1.046875 0 1.734375 -0.796875q0.703125 -0.796875 0.703125 -2.4375q0 -1.53125 -0.703125 -2.328125q-0.6875 -0.796875 -1.734375 -0.796875q-1.046875 0 -1.75 0.796875q-0.6875 0.78125 -0.6875 2.375zm7.9765625 4.15625l0 -8.296875l1.265625 0l0 1.171875q0.90625 -1.359375 2.640625 -1.359375q0.75 0 1.375 0.265625q0.625 0.265625 0.9375 0.703125q0.3125 0.4375 0.4375 1.046875q0.078125 0.390625 0.078125 1.359375l0 5.109375l-1.40625 0l0 -5.046875q0 -0.859375 -0.171875 -1.28125q-0.15625 -0.4375 -0.578125 -0.6875q-0.40625 -0.25 -0.96875 -0.25q-0.90625 0 -1.5625 0.578125q-0.640625 0.5625 -0.640625 2.15625l0 4.53125l-1.40625 0zm8.3359375 -2.484375l1.390625 -0.21875q0.109375 0.84375 0.640625 1.296875q0.546875 0.4375 1.5 0.4375q0.96875 0 1.4375 -0.390625q0.46875 -0.40625 0.46875 -0.9375q0 -0.46875 -0.40625 -0.75q-0.296875 -0.1875 -1.4375 -0.46875q-1.546875 -0.390625 -2.15625 -0.671875q-0.59375 -0.296875 -0.90625 -0.796875q-0.296875 -0.5 -0.296875 -1.109375q0 -0.5625 0.25 -1.03125q0.25 -0.46875 0.6875 -0.78125q0.328125 -0.25 0.890625 -0.40625q0.578125 -0.171875 1.21875 -0.171875q0.984375 0 1.71875 0.28125q0.734375 0.28125 1.078125 0.765625q0.359375 0.46875 0.5 1.28125l-1.375 0.1875q-0.09375 -0.640625 -0.546875 -1.0q-0.453125 -0.359375 -1.265625 -0.359375q-0.96875 0 -1.390625 0.328125q-0.40625 0.3125 -0.40625 0.734375q0 0.28125 0.171875 0.5q0.171875 0.21875 0.53125 0.375q0.21875 0.078125 1.25 0.359375q1.484375 0.390625 2.078125 0.65625q0.59375 0.25 0.921875 0.734375q0.34375 0.484375 0.34375 1.203125q0 0.703125 -0.421875 1.328125q-0.40625 0.609375 -1.1875 0.953125q-0.765625 0.34375 -1.734375 0.34375q-1.625 0 -2.46875 -0.671875q-0.84375 -0.671875 -1.078125 -2.0zm14.234375 -0.1875l1.453125 0.171875q-0.34375 1.28125 -1.28125 1.984375q-0.921875 0.703125 -2.359375 0.703125q-1.828125 0 -2.890625 -1.125q-1.0625 -1.125 -1.0625 -3.140625q0 -2.09375 1.078125 -3.25q1.078125 -1.15625 2.796875 -1.15625q1.65625 0 2.703125 1.140625q1.0625 1.125 1.0625 3.171875q0 0.125 0 0.375l-6.1875 0q0.078125 1.375 0.765625 2.109375q0.703125 0.71875 1.734375 0.71875q0.78125 0 1.328125 -0.40625q0.546875 -0.40625 0.859375 -1.296875zm-4.609375 -2.28125l4.625 0q-0.09375 -1.046875 -0.53125 -1.5625q-0.671875 -0.8125 -1.734375 -0.8125q-0.96875 0 -1.640625 0.65625q-0.65625 0.640625 -0.71875 1.71875z" fill-rule="nonzero"/></g></svg>