<svg version="1.1" viewBox="0.0 0.0 750.5748031496063 284.0551181102362" fill="none" stroke="none" stroke-linecap="square" stroke-miterlimit="10" xmlns:xlink="http://www.w3.org/1999/xlink" xmlns="http://www.w3.org/2000/svg"><clipPath id="p.0"><path d="m0 0l750.5748 0l0 284.0551l-750.5748 0l0 -284.0551z" clip-rule="nonzero"/></clipPath><g clip-path="url(#p.0)"><path fill="#000000" fill-opacity="0.0" d="m0 0l750.5748 0l0 284.0551l-750.5748 0z" fill-rule="evenodd"/><path fill="#cfe2f3" d="m152.20735 25.886852l0 0c0 -6.3503914 5.1480103 -11.498401 11.498398 -11.498401l559.4914 0c3.0495605 0 5.974243 1.2114353 8.130615 3.3678026c2.156372 2.1563683 3.3677979 5.081032 3.3677979 8.130598l0 228.49925c0 6.350403 -5.1480103 11.498413 -11.498413 11.498413l-559.4914 0c-6.3503876 0 -11.498398 -5.1480103 -11.498398 -11.498413z" fill-rule="evenodd"/><path stroke="#073763" stroke-width="2.0" stroke-linejoin="round" stroke-linecap="butt" d="m152.20735 25.886852l0 0c0 -6.3503914 5.1480103 -11.498401 11.498398 -11.498401l559.4914 0c3.0495605 0 5.974243 1.2114353 8.130615 3.3678026c2.156372 2.1563683 3.3677979 5.081032 3.3677979 8.130598l0 228.49925c0 6.350403 -5.1480103 11.498413 -11.498413 11.498413l-559.4914 0c-6.3503876 0 -11.498398 -5.1480103 -11.498398 -11.498413z" fill-rule="evenodd"/><path fill="#073763" d="m387.53702 39.769966l2.609375 0.828125q-0.59375 2.1875 -2.0 3.25q-1.390625 1.0625 -3.546875 1.0625q-2.65625 0 -4.375 -1.8125q-1.703125 -1.828125 -1.703125 -4.984375q0 -3.328125 1.71875 -5.171875q1.71875 -1.84375 4.515625 -1.84375q2.453125 0 3.984375 1.4375q0.921875 0.859375 1.375 2.46875l-2.671875 0.640625q-0.234375 -1.046875 -0.984375 -1.640625q-0.75 -0.609375 -1.828125 -0.609375q-1.484375 0 -2.421875 1.078125q-0.921875 1.0625 -0.921875 3.4375q0 2.53125 0.90625 3.609375q0.921875 1.078125 2.375 1.078125q1.078125 0 1.84375 -0.671875q0.78125 -0.6875 1.125 -2.15625zm4.3167114 -0.0625q0 -1.28125 0.625 -2.46875q0.625 -1.203125 1.78125 -1.828125q1.15625 -0.625 2.578125 -0.625q2.1875 0 3.59375 1.421875q1.40625 1.421875 1.40625 3.609375q0 2.1875 -1.421875 3.640625q-1.421875 1.4375 -3.5625 1.4375q-1.328125 0 -2.546875 -0.59375q-1.203125 -0.609375 -1.828125 -1.765625q-0.625 -1.171875 -0.625 -2.828125zm2.625 0.125q0 1.453125 0.671875 2.21875q0.6875 0.75 1.6875 0.75q1.0 0 1.671875 -0.75q0.6875 -0.765625 0.6875 -2.234375q0 -1.421875 -0.6875 -2.1875q-0.671875 -0.765625 -1.671875 -0.765625q-1.0 0 -1.6875 0.765625q-0.671875 0.765625 -0.671875 2.203125zm9.161591 -4.828125l2.359375 0l0 1.3125q1.265625 -1.53125 3.015625 -1.53125q0.9375 0 1.609375 0.390625q0.6875 0.375 1.125 1.140625q0.640625 -0.765625 1.375 -1.140625q0.75 -0.390625 1.578125 -0.390625q1.0625 0 1.796875 0.4375q0.75 0.421875 1.109375 1.265625q0.265625 0.625 0.265625 2.0l0 6.1875l-2.5625 0l0 -5.53125q0 -1.4375 -0.265625 -1.859375q-0.34375 -0.546875 -1.09375 -0.546875q-0.53125 0 -1.015625 0.328125q-0.46875 0.328125 -0.671875 0.96875q-0.203125 0.625 -0.203125 2.0l0 4.640625l-2.5625 0l0 -5.296875q0 -1.421875 -0.140625 -1.828125q-0.140625 -0.40625 -0.421875 -0.609375q-0.28125 -0.203125 -0.78125 -0.203125q-0.59375 0 -1.0625 0.328125q-0.46875 0.3125 -0.6875 0.921875q-0.203125 0.59375 -0.203125 1.984375l0 4.703125l-2.5625 0l0 -9.671875zm16.58841 0l2.359375 0l0 1.3125q1.265625 -1.53125 3.015625 -1.53125q0.9375 0 1.609375 0.390625q0.6875 0.375 1.125 1.140625q0.640625 -0.765625 1.375 -1.140625q0.75 -0.390625 1.578125 -0.390625q1.0625 0 1.796875 0.4375q0.75 0.421875 1.109375 1.265625q0.265625 0.625 0.265625 2.0l0 6.1875l-2.5625 0l0 -5.53125q0 -1.4375 -0.265625 -1.859375q-0.34375 -0.546875 -1.09375 -0.546875q-0.53125 0 -1.015625 0.328125q-0.46875 0.328125 -0.671875 0.96875q-0.203125 0.625 -0.203125 2.0l0 4.640625l-2.5625 0l0 -5.296875q0 -1.421875 -0.140625 -1.828125q-0.140625 -0.40625 -0.421875 -0.609375q-0.28125 -0.203125 -0.78125 -0.203125q-0.59375 0 -1.0625 0.328125q-0.46875 0.3125 -0.6875 0.921875q-0.203125 0.59375 -0.203125 1.984375l0 4.703125l-2.5625 0l0 -9.671875zm18.697754 2.953125l-2.328125 -0.421875q0.40625 -1.40625 1.359375 -2.078125q0.953125 -0.671875 2.84375 -0.671875q1.703125 0 2.546875 0.40625q0.84375 0.40625 1.171875 1.03125q0.34375 0.625 0.34375 2.28125l-0.015625 3.0q0 1.265625 0.109375 1.875q0.125 0.609375 0.46875 1.296875l-2.53125 0q-0.109375 -0.25 -0.25 -0.75q-0.0625 -0.234375 -0.09375 -0.3125q-0.65625 0.640625 -1.40625 0.96875q-0.734375 0.3125 -1.59375 0.3125q-1.484375 0 -2.34375 -0.8125q-0.859375 -0.8125 -0.859375 -2.046875q0 -0.828125 0.390625 -1.46875q0.390625 -0.640625 1.09375 -0.96875q0.703125 -0.34375 2.03125 -0.609375q1.796875 -0.328125 2.484375 -0.625l0 -0.25q0 -0.75 -0.359375 -1.0625q-0.359375 -0.3125 -1.375 -0.3125q-0.6875 0 -1.078125 0.28125q-0.375 0.265625 -0.609375 0.9375zm3.421875 2.078125q-0.484375 0.15625 -1.5625 0.390625q-1.0625 0.21875 -1.390625 0.4375q-0.5 0.359375 -0.5 0.90625q0 0.53125 0.40625 0.9375q0.40625 0.390625 1.015625 0.390625q0.703125 0 1.328125 -0.46875q0.46875 -0.34375 0.609375 -0.84375q0.09375 -0.328125 0.09375 -1.25l0 -0.5zm13.844482 4.640625l-2.5625 0l0 -4.9375q0 -1.5625 -0.171875 -2.015625q-0.15625 -0.46875 -0.53125 -0.71875q-0.359375 -0.265625 -0.875 -0.265625q-0.671875 0 -1.203125 0.375q-0.53125 0.359375 -0.734375 0.96875q-0.1875 0.59375 -0.1875 2.21875l0 4.375l-2.546875 0l0 -9.671875l2.375 0l0 1.421875q1.265625 -1.640625 3.1875 -1.640625q0.84375 0 1.546875 0.3125q0.703125 0.296875 1.0625 0.78125q0.359375 0.46875 0.5 1.078125q0.140625 0.59375 0.140625 1.703125l0 6.015625zm11.474091 0l-2.390625 0l0 -1.421875q-0.59375 0.828125 -1.40625 1.234375q-0.796875 0.40625 -1.609375 0.40625q-1.671875 0 -2.859375 -1.34375q-1.1875 -1.34375 -1.1875 -3.75q0 -2.453125 1.15625 -3.734375q1.15625 -1.28125 2.921875 -1.28125q1.625 0 2.8125 1.34375l0 -4.8125l2.5625 0l0 13.359375zm-6.84375 -5.046875q0 1.546875 0.4375 2.234375q0.609375 1.015625 1.71875 1.015625q0.890625 0 1.5 -0.75q0.625 -0.765625 0.625 -2.25q0 -1.671875 -0.609375 -2.40625q-0.59375 -0.734375 -1.53125 -0.734375q-0.90625 0 -1.53125 0.734375q-0.609375 0.71875 -0.609375 2.15625zm14.56366 -8.3125l5.34375 0q1.59375 0 2.359375 0.140625q0.78125 0.125 1.390625 0.546875q0.625 0.421875 1.03125 1.125q0.40625 0.6875 0.40625 1.546875q0 0.9375 -0.5 1.734375q-0.5 0.78125 -1.375 1.171875q1.21875 0.359375 1.875 1.21875q0.65625 0.84375 0.65625 2.0q0 0.921875 -0.421875 1.78125q-0.421875 0.859375 -1.15625 1.375q-0.734375 0.515625 -1.796875 0.625q-0.6875 0.078125 -3.265625 0.09375l-4.546875 0l0 -13.359375zm2.703125 2.234375l0 3.078125l1.765625 0q1.578125 0 1.953125 -0.046875q0.703125 -0.078125 1.09375 -0.46875q0.40625 -0.40625 0.40625 -1.046875q0 -0.625 -0.34375 -1.0q-0.34375 -0.390625 -1.015625 -0.484375q-0.40625 -0.03125 -2.3125 -0.03125l-1.546875 0zm0 5.296875l0 3.578125l2.5 0q1.453125 0 1.84375 -0.078125q0.609375 -0.109375 0.984375 -0.53125q0.375 -0.421875 0.375 -1.140625q0 -0.59375 -0.296875 -1.015625q-0.28125 -0.421875 -0.84375 -0.609375q-0.546875 -0.203125 -2.390625 -0.203125l-2.171875 0zm17.113556 5.828125l0 -1.453125q-0.53125 0.78125 -1.390625 1.234375q-0.859375 0.4375 -1.8125 0.4375q-0.96875 0 -1.75 -0.421875q-0.765625 -0.4375 -1.125 -1.203125q-0.34375 -0.78125 -0.34375 -2.140625l0 -6.125l2.5625 0l0 4.4375q0 2.046875 0.140625 2.515625q0.140625 0.453125 0.515625 0.71875q0.375 0.265625 0.953125 0.265625q0.65625 0 1.171875 -0.359375q0.515625 -0.359375 0.703125 -0.890625q0.203125 -0.53125 0.203125 -2.609375l0 -4.078125l2.546875 0l0 9.671875l-2.375 0zm4.130371 -2.765625l2.5625 -0.390625q0.171875 0.75 0.671875 1.140625q0.5 0.390625 1.40625 0.390625q0.984375 0 1.484375 -0.375q0.34375 -0.25 0.34375 -0.671875q0 -0.296875 -0.1875 -0.484375q-0.1875 -0.1875 -0.859375 -0.34375q-3.09375 -0.6875 -3.921875 -1.25q-1.140625 -0.78125 -1.140625 -2.171875q0 -1.265625 0.984375 -2.109375q1.0 -0.859375 3.078125 -0.859375q1.984375 0 2.953125 0.65625q0.96875 0.640625 1.328125 1.90625l-2.40625 0.4375q-0.15625 -0.5625 -0.59375 -0.859375q-0.421875 -0.296875 -1.234375 -0.296875q-1.0 0 -1.4375 0.28125q-0.296875 0.203125 -0.296875 0.515625q0 0.265625 0.25 0.46875q0.34375 0.25 2.390625 0.71875q2.046875 0.453125 2.859375 1.140625q0.796875 0.671875 0.796875 1.890625q0 1.34375 -1.109375 2.296875q-1.109375 0.953125 -3.28125 0.953125q-1.984375 0 -3.140625 -0.796875q-1.140625 -0.8125 -1.5 -2.1875z" fill-rule="nonzero"/><path fill="#000000" fill-opacity="0.0" d="m269.19684 102.55118l61.88977 0" fill-rule="evenodd"/><path stroke="#1155cc" stroke-width="3.0" stroke-linejoin="round" stroke-linecap="butt" d="m269.19684 102.55118l43.88977 0" fill-rule="evenodd"/><path fill="#1155cc" stroke="#1155cc" stroke-width="3.0" stroke-linecap="butt" d="m313.0866 107.50638l13.614288 -4.9552l-13.614288 -4.9551926z" fill-rule="evenodd"/><path fill="#000000" fill-opacity="0.0" d="m415.86877 102.55118l61.88977 0" fill-rule="evenodd"/><path stroke="#1155cc" stroke-width="3.0" stroke-linejoin="round" stroke-linecap="butt" d="m415.86877 102.55118l43.88977 0" fill-rule="evenodd"/><path fill="#1155cc" stroke="#1155cc" stroke-width="3.0" stroke-linecap="butt" d="m459.75854 107.50638l13.614288 -4.9552l-13.614288 -4.9551926z" fill-rule="evenodd"/><path fill="#000000" fill-opacity="0.0" d="m559.67847 102.55118l61.88977 0" fill-rule="evenodd"/><path stroke="#1155cc" stroke-width="3.0" stroke-linejoin="round" stroke-linecap="butt" d="m559.67847 102.55118l43.88977 0" fill-rule="evenodd"/><path fill="#1155cc" stroke="#1155cc" stroke-width="3.0" stroke-linecap="butt" d="m603.56824 107.50638l13.614319 -4.9552l-13.614319 -4.9551926z" fill-rule="evenodd"/><path fill="#000000" fill-opacity="0.0" d="m622.99866 200.04987l-61.88971 0" fill-rule="evenodd"/><path stroke="#45818e" stroke-width="3.0" stroke-linejoin="round" stroke-linecap="butt" d="m622.99866 200.04987l-43.88971 0" fill-rule="evenodd"/><path fill="#45818e" stroke="#45818e" stroke-width="3.0" stroke-linecap="butt" d="m579.10895 195.09467l-13.614319 4.9552l13.614319 4.9552z" fill-rule="evenodd"/><path fill="#000000" fill-opacity="0.0" d="m477.75854 200.04987l-61.88977 0" fill-rule="evenodd"/><path stroke="#45818e" stroke-width="3.0" stroke-linejoin="round" stroke-linecap="butt" d="m477.75854 200.04987l-43.88977 0" fill-rule="evenodd"/><path fill="#45818e" stroke="#45818e" stroke-width="3.0" stroke-linecap="butt" d="m433.86877 195.09467l-13.614288 4.9552l13.614288 4.9552z" fill-rule="evenodd"/><path fill="#000000" fill-opacity="0.0" d="m330.88583 200.04987l-61.88977 0" fill-rule="evenodd"/><path stroke="#45818e" stroke-width="3.0" stroke-linejoin="round" stroke-linecap="butt" d="m330.88583 200.04987l-43.88977 0" fill-rule="evenodd"/><path fill="#45818e" stroke="#45818e" stroke-width="3.0" stroke-linecap="butt" d="m286.99606 195.09467l-13.614288 4.9552l13.614288 4.9552z" fill-rule="evenodd"/><path fill="#000000" fill-opacity="0.0" d="m122.52493 102.55118l61.88977 0" fill-rule="evenodd"/><path stroke="#1155cc" stroke-width="3.0" stroke-linejoin="round" stroke-linecap="butt" d="m122.52493 102.55118l43.88977 0" fill-rule="evenodd"/><path fill="#1155cc" stroke="#1155cc" stroke-width="3.0" stroke-linecap="butt" d="m166.4147 107.50638l13.614288 -4.9552l-13.614288 -4.9551926z" fill-rule="evenodd"/><path fill="#ead1dc" d="m636.6538 240.90814l0 0c-7.5407715 0 -13.653809 -6.113022 -13.653809 -13.653824l0 -150.20418c0 -3.6212158 1.4385376 -7.094116 3.9990845 -9.654701c2.560608 -2.5605927 6.0335083 -3.999115 9.654724 -3.999115l54.613647 0c7.5407715 0 13.653809 6.113022 13.653809 13.653816l0 150.20418c0 7.540802 -6.113037 13.653824 -13.653809 13.653824z" fill-rule="evenodd"/><path stroke="#4c1130" stroke-width="3.0" stroke-linejoin="round" stroke-linecap="butt" d="m636.6538 240.90814l0 0c-7.5407715 0 -13.653809 -6.113022 -13.653809 -13.653824l0 -150.20418c0 -3.6212158 1.4385376 -7.094116 3.9990845 -9.654701c2.560608 -2.5605927 6.0335083 -3.999115 9.654724 -3.999115l54.613647 0c7.5407715 0 13.653809 6.113022 13.653809 13.653816l0 150.20418c0 7.540802 -6.113037 13.653824 -13.653809 13.653824z" fill-rule="evenodd"/><path fill="#4c1130" d="m647.16064 184.02333l-14.3125 0l0 -2.890625l5.625 0l0 -5.65625l-5.625 0l0 -2.890625l14.3125 0l0 2.890625l-6.265625 0l0 5.65625l6.265625 0l0 2.890625zm-7.203125 -16.458984l-0.453125 2.484375q-1.5 -0.421875 -2.21875 -1.4375q-0.734375 -1.03125 -0.734375 -3.046875q0 -1.84375 0.4375 -2.734375q0.4375 -0.90625 1.109375 -1.265625q0.65625 -0.375 2.453125 -0.375l3.203125 0.03125q1.359375 0 2.015625 -0.125q0.640625 -0.140625 1.390625 -0.5l0 2.71875q-0.28125 0.109375 -0.8125 0.265625q-0.25 0.0625 -0.328125 0.09375q0.6875 0.703125 1.03125 1.515625q0.34375 0.796875 0.34375 1.703125q0 1.59375 -0.859375 2.515625q-0.875 0.921875 -2.203125 0.921875q-0.890625 0 -1.578125 -0.40625q-0.6875 -0.421875 -1.046875 -1.171875q-0.375 -0.765625 -0.640625 -2.203125q-0.359375 -1.921875 -0.671875 -2.65625l-0.28125 0q-0.78125 0 -1.109375 0.390625q-0.34375 0.390625 -0.34375 1.46875q0 0.734375 0.28125 1.15625q0.28125 0.40625 1.015625 0.65625zm2.21875 -3.671875q0.171875 0.53125 0.421875 1.671875q0.25 1.140625 0.484375 1.484375q0.375 0.546875 0.96875 0.546875q0.5625 0 0.984375 -0.421875q0.421875 -0.4375 0.421875 -1.109375q0 -0.734375 -0.484375 -1.40625q-0.375 -0.5 -0.90625 -0.65625q-0.359375 -0.109375 -1.34375 -0.109375l-0.546875 0zm4.984375 -14.841797l0 2.75l-5.296875 0q-1.671875 0 -2.15625 0.171875q-0.5 0.171875 -0.765625 0.578125q-0.28125 0.390625 -0.28125 0.953125q0 0.703125 0.390625 1.28125q0.390625 0.5625 1.03125 0.78125q0.640625 0.203125 2.375 0.203125l4.703125 0l0 2.734375l-10.375 0l0 -2.546875l1.53125 0q-1.765625 -1.359375 -1.765625 -3.421875q0 -0.90625 0.328125 -1.65625q0.328125 -0.75 0.84375 -1.125q0.5 -0.390625 1.15625 -0.546875q0.640625 -0.15625 1.828125 -0.15625l6.453125 0zm0 -12.294922l0 2.546875l-1.53125 0q0.890625 0.640625 1.328125 1.515625q0.4375 0.859375 0.4375 1.734375q0 1.78125 -1.4375 3.0625q-1.4375 1.265625 -4.015625 1.265625q-2.640625 0 -4.015625 -1.234375q-1.375 -1.234375 -1.375 -3.140625q0 -1.734375 1.453125 -3.0l-5.15625 0l0 -2.75l14.3125 0zm-5.40625 7.328125q1.65625 0 2.390625 -0.453125q1.078125 -0.671875 1.078125 -1.859375q0 -0.953125 -0.796875 -1.609375q-0.8125 -0.671875 -2.40625 -0.671875q-1.796875 0 -2.578125 0.65625q-0.78125 0.640625 -0.78125 1.640625q0 0.984375 0.78125 1.640625q0.765625 0.65625 2.3125 0.65625zm5.40625 -10.029297l-14.3125 0l0 -2.75l14.3125 0l0 2.75zm-3.296875 -11.556641l0.453125 -2.734375q1.5 0.515625 2.296875 1.65625q0.78125 1.140625 0.78125 2.84375q0 2.71875 -1.765625 4.015625q-1.421875 1.015625 -3.578125 1.015625q-2.578125 0 -4.03125 -1.34375q-1.46875 -1.34375 -1.46875 -3.40625q0 -2.3125 1.53125 -3.640625q1.53125 -1.34375 4.6875 -1.296875l0 6.875q1.21875 -0.03125 1.90625 -0.65625q0.671875 -0.640625 0.671875 -1.578125q0 -0.65625 -0.34375 -1.09375q-0.359375 -0.4375 -1.140625 -0.65625zm-2.78125 -0.15625q-1.1875 0.03125 -1.796875 0.625q-0.625 0.578125 -0.625 1.40625q0 0.90625 0.640625 1.484375q0.65625 0.59375 1.78125 0.578125l0 -4.09375z" fill-rule="nonzero"/><path fill="#4c1130" d="m665.895 190.43446l0.890625 -2.8125q2.34375 0.640625 3.484375 2.140625q1.140625 1.5 1.140625 3.8125q0 2.84375 -1.953125 4.6875q-1.953125 1.828125 -5.328125 1.828125q-3.578125 0 -5.546875 -1.84375q-1.984375 -1.84375 -1.984375 -4.84375q0 -2.640625 1.546875 -4.28125q0.921875 -0.96875 2.640625 -1.453125l0.6875 2.859375q-1.109375 0.25 -1.75 1.0625q-0.65625 0.796875 -0.65625 1.953125q0 1.59375 1.140625 2.59375q1.140625 0.984375 3.703125 0.984375q2.71875 0 3.875 -0.96875q1.140625 -0.984375 1.140625 -2.546875q0 -1.15625 -0.71875 -1.984375q-0.734375 -0.828125 -2.3125 -1.1875zm-0.0625 -4.6308594q-1.375 0 -2.65625 -0.671875q-1.28125 -0.6875 -1.953125 -1.921875q-0.671875 -1.234375 -0.671875 -2.75q0 -2.359375 1.53125 -3.859375q1.53125 -1.5 3.859375 -1.5q2.359375 0 3.90625 1.515625q1.546875 1.515625 1.546875 3.828125q0 1.421875 -0.640625 2.71875q-0.65625 1.28125 -1.890625 1.96875q-1.25 0.671875 -3.03125 0.671875zm0.140625 -2.8125q1.546875 0 2.375 -0.734375q0.8125 -0.734375 0.8125 -1.8125q0 -1.078125 -0.8125 -1.796875q-0.828125 -0.734375 -2.390625 -0.734375q-1.53125 0 -2.34375 0.734375q-0.828125 0.71875 -0.828125 1.796875q0 1.078125 0.828125 1.8125q0.8125 0.734375 2.359375 0.734375zm-5.1875 -9.841797l0 -2.53125l1.421875 0q-1.65625 -1.359375 -1.65625 -3.234375q0 -0.984375 0.421875 -1.71875q0.40625 -0.734375 1.234375 -1.203125q-0.828125 -0.6875 -1.234375 -1.46875q-0.421875 -0.796875 -0.421875 -1.703125q0 -1.140625 0.46875 -1.921875q0.46875 -0.796875 1.359375 -1.1875q0.671875 -0.28125 2.15625 -0.28125l6.625 0l0 2.75l-5.921875 0q-1.546875 0 -2.0 0.28125q-0.578125 0.375 -0.578125 1.171875q0 0.578125 0.359375 1.09375q0.34375 0.5 1.015625 0.71875q0.671875 0.21875 2.140625 0.21875l4.984375 0l0 2.75l-5.6875 0q-1.515625 0 -1.953125 0.15625q-0.4375 0.140625 -0.640625 0.453125q-0.21875 0.296875 -0.21875 0.828125q0 0.625 0.34375 1.140625q0.328125 0.5 0.984375 0.734375q0.640625 0.21875 2.125 0.21875l5.046875 0l0 2.734375l-10.375 0zm0 -17.783203l0 -2.53125l1.421875 0q-1.65625 -1.359375 -1.65625 -3.234375q0 -0.984375 0.421875 -1.71875q0.40625 -0.734375 1.234375 -1.203125q-0.828125 -0.6875 -1.234375 -1.46875q-0.421875 -0.796875 -0.421875 -1.703125q0 -1.140625 0.46875 -1.921875q0.46875 -0.796875 1.359375 -1.1875q0.671875 -0.28125 2.15625 -0.28125l6.625 0l0 2.75l-5.921875 0q-1.546875 0 -2.0 0.28125q-0.578125 0.375 -0.578125 1.171875q0 0.578125 0.359375 1.09375q0.34375 0.5 1.015625 0.71875q0.671875 0.21875 2.140625 0.21875l4.984375 0l0 2.75l-5.6875 0q-1.515625 0 -1.953125 0.15625q-0.4375 0.140625 -0.640625 0.453125q-0.21875 0.296875 -0.21875 0.828125q0 0.625 0.34375 1.140625q0.328125 0.5 0.984375 0.734375q0.640625 0.21875 2.125 0.21875l5.046875 0l0 2.734375l-10.375 0zm3.171875 -20.033203l-0.453125 2.484375q-1.5 -0.421875 -2.21875 -1.4375q-0.734375 -1.03125 -0.734375 -3.046875q0 -1.84375 0.4375 -2.734375q0.4375 -0.90625 1.109375 -1.265625q0.65625 -0.375 2.453125 -0.375l3.203125 0.03125q1.359375 0 2.015625 -0.125q0.640625 -0.140625 1.390625 -0.5l0 2.71875q-0.28125 0.109375 -0.8125 0.265625q-0.25 0.0625 -0.328125 0.09375q0.6875 0.703125 1.03125 1.515625q0.34375 0.796875 0.34375 1.703125q0 1.59375 -0.859375 2.515625q-0.875 0.921875 -2.203125 0.921875q-0.890625 0 -1.578125 -0.40625q-0.6875 -0.421875 -1.046875 -1.171875q-0.375 -0.765625 -0.640625 -2.203125q-0.359375 -1.921875 -0.671875 -2.65625l-0.28125 0q-0.78125 0 -1.109375 0.390625q-0.34375 0.390625 -0.34375 1.46875q0 0.734375 0.28125 1.15625q0.28125 0.40625 1.015625 0.65625zm2.21875 -3.671875q0.171875 0.53125 0.421875 1.671875q0.25 1.140625 0.484375 1.484375q0.375 0.546875 0.96875 0.546875q0.5625 0 0.984375 -0.421875q0.421875 -0.4375 0.421875 -1.109375q0 -0.734375 -0.484375 -1.40625q-0.375 -0.5 -0.90625 -0.65625q-0.359375 -0.109375 -1.34375 -0.109375l-0.546875 0zm4.984375 -14.841797l0 2.75l-5.296875 0q-1.671875 0 -2.15625 0.171875q-0.5 0.171875 -0.765625 0.578125q-0.28125 0.390625 -0.28125 0.953125q0 0.703125 0.390625 1.28125q0.390625 0.5625 1.03125 0.78125q0.640625 0.203125 2.375 0.203125l4.703125 0l0 2.734375l-10.375 0l0 -2.546875l1.53125 0q-1.765625 -1.359375 -1.765625 -3.421875q0 -0.90625 0.328125 -1.65625q0.328125 -0.75 0.84375 -1.125q0.5 -0.390625 1.15625 -0.546875q0.640625 -0.15625 1.828125 -0.15625l6.453125 0zm0 -12.294922l0 2.546875l-1.53125 0q0.890625 0.640625 1.328125 1.515625q0.4375 0.859375 0.4375 1.734375q0 1.78125 -1.4375 3.0625q-1.4375 1.265625 -4.015625 1.265625q-2.640625 0 -4.015625 -1.234375q-1.375 -1.234375 -1.375 -3.140625q0 -1.734375 1.453125 -3.0l-5.15625 0l0 -2.75l14.3125 0zm-5.40625 7.328125q1.65625 0 2.390625 -0.453125q1.078125 -0.671875 1.078125 -1.859375q0 -0.953125 -0.796875 -1.609375q-0.8125 -0.671875 -2.40625 -0.671875q-1.796875 0 -2.578125 0.65625q-0.78125 0.640625 -0.78125 1.640625q0 0.984375 0.78125 1.640625q0.765625 0.65625 2.3125 0.65625z" fill-rule="nonzero"/><path fill="#4c1130" d="m695.16064 205.18837l-14.3125 0l0 -4.328125l9.765625 -2.59375l-9.765625 -2.5625l0 -4.34375l14.3125 0l0 2.6875l-11.265625 0l11.265625 2.84375l0 2.78125l-11.265625 2.828125l11.265625 0l0 2.6875zm-11.78125 -16.675781l-2.53125 0l0 -2.75l2.53125 0l0 2.75zm11.78125 0l-10.375 0l0 -2.75l10.375 0l0 2.75zm0 -15.072266l0 2.546875l-1.53125 0q0.890625 0.640625 1.328125 1.515625q0.4375 0.859375 0.4375 1.734375q0 1.78125 -1.4375 3.0625q-1.4375 1.265625 -4.015625 1.265625q-2.640625 0 -4.015625 -1.234375q-1.375 -1.234375 -1.375 -3.140625q0 -1.734375 1.453125 -3.0l-5.15625 0l0 -2.75l14.3125 0zm-5.40625 7.328125q1.65625 0 2.390625 -0.453125q1.078125 -0.671875 1.078125 -1.859375q0 -0.953125 -0.796875 -1.609375q-0.8125 -0.671875 -2.40625 -0.671875q-1.796875 0 -2.578125 0.65625q-0.78125 0.640625 -0.78125 1.640625q0 0.984375 0.78125 1.640625q0.765625 0.65625 2.3125 0.65625zm5.40625 -19.544922l0 2.546875l-1.53125 0q0.890625 0.640625 1.328125 1.515625q0.4375 0.859375 0.4375 1.734375q0 1.78125 -1.4375 3.0625q-1.4375 1.265625 -4.015625 1.265625q-2.640625 0 -4.015625 -1.234375q-1.375 -1.234375 -1.375 -3.140625q0 -1.734375 1.453125 -3.0l-5.15625 0l0 -2.75l14.3125 0zm-5.40625 7.328125q1.65625 0 2.390625 -0.453125q1.078125 -0.671875 1.078125 -1.859375q0 -0.953125 -0.796875 -1.609375q-0.8125 -0.671875 -2.40625 -0.671875q-1.796875 0 -2.578125 0.65625q-0.78125 0.640625 -0.78125 1.640625q0 0.984375 0.78125 1.640625q0.765625 0.65625 2.3125 0.65625zm5.40625 -10.029297l-14.3125 0l0 -2.75l14.3125 0l0 2.75zm-3.296875 -11.556641l0.453125 -2.734375q1.5 0.515625 2.296875 1.65625q0.78125 1.140625 0.78125 2.84375q0 2.71875 -1.765625 4.015625q-1.421875 1.015625 -3.578125 1.015625q-2.578125 0 -4.03125 -1.34375q-1.46875 -1.34375 -1.46875 -3.40625q0 -2.3125 1.53125 -3.640625q1.53125 -1.34375 4.6875 -1.296875l0 6.875q1.21875 -0.03125 1.90625 -0.65625q0.671875 -0.640625 0.671875 -1.578125q0 -0.65625 -0.34375 -1.09375q-0.359375 -0.4375 -1.140625 -0.65625zm-2.78125 -0.15625q-1.1875 0.03125 -1.796875 0.625q-0.625 0.578125 -0.625 1.40625q0 0.90625 0.640625 1.484375q0.65625 0.59375 1.78125 0.578125l0 -4.09375zm6.078125 -6.904297l-10.375 3.28125l0 -2.65625l6.796875 -1.953125l-6.796875 -1.78125l0 -2.640625l6.796875 -1.734375l-6.796875 -1.984375l0 -2.703125l10.375 3.328125l0 2.640625l-6.671875 1.78125l6.671875 1.765625l0 2.65625zm-7.203125 -15.666016l-0.453125 2.484375q-1.5 -0.421875 -2.21875 -1.4375q-0.734375 -1.03125 -0.734375 -3.046875q0 -1.84375 0.4375 -2.734375q0.4375 -0.90625 1.109375 -1.265625q0.65625 -0.375 2.453125 -0.375l3.203125 0.03125q1.359375 0 2.015625 -0.125q0.640625 -0.140625 1.390625 -0.5l0 2.71875q-0.28125 0.109375 -0.8125 0.265625q-0.25 0.0625 -0.328125 0.09375q0.6875 0.703125 1.03125 1.515625q0.34375 0.796875 0.34375 1.703125q0 1.59375 -0.859375 2.515625q-0.875 0.921875 -2.203125 0.921875q-0.890625 0 -1.578125 -0.40625q-0.6875 -0.421875 -1.046875 -1.171875q-0.375 -0.765625 -0.640625 -2.203125q-0.359375 -1.921875 -0.671875 -2.65625l-0.28125 0q-0.78125 0 -1.109375 0.390625q-0.34375 0.390625 -0.34375 1.46875q0 0.734375 0.28125 1.15625q0.28125 0.40625 1.015625 0.65625zm2.21875 -3.671875q0.171875 0.53125 0.421875 1.671875q0.25 1.140625 0.484375 1.484375q0.375 0.546875 0.96875 0.546875q0.5625 0 0.984375 -0.421875q0.421875 -0.4375 0.421875 -1.109375q0 -0.734375 -0.484375 -1.40625q-0.375 -0.5 -0.90625 -0.65625q-0.359375 -0.109375 -1.34375 -0.109375l-0.546875 0zm4.984375 -8.029297l0 2.75l-10.375 0l0 -2.5625l1.484375 0q-1.046875 -0.640625 -1.375 -1.15625q-0.34375 -0.53125 -0.34375 -1.203125q0 -0.9375 0.515625 -1.796875l2.390625 0.84375q-0.4375 0.6875 -0.4375 1.28125q0 0.578125 0.3125 0.984375q0.3125 0.40625 1.15625 0.640625q0.828125 0.21875 3.46875 0.21875l3.203125 0zm-3.296875 -11.158203l0.453125 -2.734375q1.5 0.515625 2.296875 1.65625q0.78125 1.140625 0.78125 2.84375q0 2.71875 -1.765625 4.015625q-1.421875 1.015625 -3.578125 1.015625q-2.578125 0 -4.03125 -1.34375q-1.46875 -1.34375 -1.46875 -3.40625q0 -2.3125 1.53125 -3.640625q1.53125 -1.34375 4.6875 -1.296875l0 6.875q1.21875 -0.03125 1.90625 -0.65625q0.671875 -0.640625 0.671875 -1.578125q0 -0.65625 -0.34375 -1.09375q-0.359375 -0.4375 -1.140625 -0.65625zm-2.78125 -0.15625q-1.1875 0.03125 -1.796875 0.625q-0.625 0.578125 -0.625 1.40625q0 0.90625 0.640625 1.484375q0.65625 0.59375 1.78125 0.578125l0 -4.09375z" fill-rule="nonzero"/><path fill="#fff2cc" d="m199.09738 240.90814l0 0c-7.5407867 0 -13.653809 -6.113022 -13.653809 -13.653824l0 -150.20418c0 -3.6212158 1.4385223 -7.094116 3.9990997 -9.654701c2.5605927 -2.5605927 6.033493 -3.999115 9.654709 -3.999115l54.613632 0c7.5407867 0 13.653824 6.113022 13.653824 13.653816l0 150.20418c0 7.540802 -6.113037 13.653824 -13.653824 13.653824z" fill-rule="evenodd"/><path stroke="#7f6000" stroke-width="3.0" stroke-linejoin="round" stroke-linecap="butt" d="m199.09738 240.90814l0 0c-7.5407867 0 -13.653809 -6.113022 -13.653809 -13.653824l0 -150.20418c0 -3.6212158 1.4385223 -7.094116 3.9990997 -9.654701c2.5605927 -2.5605927 6.033493 -3.999115 9.654709 -3.999115l54.613632 0c7.5407867 0 13.653824 6.113022 13.653824 13.653816l0 150.20418c0 7.540802 -6.113037 13.653824 -13.653824 13.653824z" fill-rule="evenodd"/><path fill="#7f6000" d="m221.6042 190.0497l-14.203125 0l0 -2.890625l11.796875 0l0 -7.1875l2.40625 0l0 10.078125zm-5.328125 -11.482422q-1.375 0 -2.65625 -0.671875q-1.28125 -0.6875 -1.953125 -1.921875q-0.671875 -1.234375 -0.671875 -2.75q0 -2.359375 1.53125 -3.859375q1.53125 -1.5 3.859375 -1.5q2.359375 0 3.90625 1.515625q1.546875 1.515625 1.546875 3.828125q0 1.421875 -0.640625 2.71875q-0.65625 1.28125 -1.890625 1.96875q-1.25 0.671875 -3.03125 0.671875zm0.140625 -2.8125q1.546875 0 2.375 -0.734375q0.8125 -0.734375 0.8125 -1.8125q0 -1.078125 -0.8125 -1.796875q-0.828125 -0.734375 -2.390625 -0.734375q-1.53125 0 -2.34375 0.734375q-0.828125 0.71875 -0.828125 1.796875q0 1.078125 0.828125 1.8125q0.8125 0.734375 2.359375 0.734375zm5.875 -9.794922l0.375 -3.125q0.546875 -0.078125 0.75 -0.359375q0.296875 -0.390625 0.296875 -1.234375q0 -1.078125 -0.328125 -1.609375q-0.203125 -0.359375 -0.6875 -0.546875q-0.34375 -0.125 -1.265625 -0.125l-1.515625 0q1.6875 1.21875 1.6875 3.09375q0 2.09375 -1.765625 3.3125q-1.40625 0.953125 -3.484375 0.953125q-2.609375 0 -3.984375 -1.25q-1.375 -1.25 -1.375 -3.125q0 -1.921875 1.6875 -3.171875l-1.453125 0l0 -2.5625l9.3125 0q1.828125 0 2.734375 0.3125q0.921875 0.296875 1.4375 0.84375q0.515625 0.546875 0.796875 1.46875q0.296875 0.90625 0.296875 2.296875q0 2.640625 -0.90625 3.75q-0.890625 1.09375 -2.28125 1.09375q-0.140625 0 -0.328125 -0.015625zm-6.09375 -2.453125q1.65625 0 2.421875 -0.625q0.765625 -0.640625 0.765625 -1.578125q0 -1.015625 -0.78125 -1.703125q-0.796875 -0.703125 -2.328125 -0.703125q-1.609375 0 -2.390625 0.671875q-0.78125 0.65625 -0.78125 1.671875q0 1.0 0.765625 1.640625q0.765625 0.625 2.328125 0.625zm6.09375 -9.763672l0.375 -3.125q0.546875 -0.078125 0.75 -0.359375q0.296875 -0.390625 0.296875 -1.234375q0 -1.078125 -0.328125 -1.609375q-0.203125 -0.359375 -0.6875 -0.546875q-0.34375 -0.125 -1.265625 -0.125l-1.515625 0q1.6875 1.21875 1.6875 3.09375q0 2.09375 -1.765625 3.3125q-1.40625 0.953125 -3.484375 0.953125q-2.609375 0 -3.984375 -1.25q-1.375 -1.25 -1.375 -3.125q0 -1.921875 1.6875 -3.171875l-1.453125 0l0 -2.5625l9.3125 0q1.828125 0 2.734375 0.3125q0.921875 0.296875 1.4375 0.84375q0.515625 0.546875 0.796875 1.46875q0.296875 0.90625 0.296875 2.296875q0 2.640625 -0.90625 3.75q-0.890625 1.09375 -2.28125 1.09375q-0.140625 0 -0.328125 -0.015625zm-6.09375 -2.453125q1.65625 0 2.421875 -0.625q0.765625 -0.640625 0.765625 -1.578125q0 -1.015625 -0.78125 -1.703125q-0.796875 -0.703125 -2.328125 -0.703125q-1.609375 0 -2.390625 0.671875q-0.78125 0.65625 -0.78125 1.671875q0 1.0 0.765625 1.640625q0.765625 0.625 2.328125 0.625zm-6.375 -10.013672l-2.53125 0l0 -2.75l2.53125 0l0 2.75zm11.78125 0l-10.375 0l0 -2.75l10.375 0l0 2.75zm0 -14.994141l0 2.75l-5.296875 0q-1.671875 0 -2.15625 0.171875q-0.5 0.171875 -0.765625 0.578125q-0.28125 0.390625 -0.28125 0.953125q0 0.703125 0.390625 1.28125q0.390625 0.5625 1.03125 0.78125q0.640625 0.203125 2.375 0.203125l4.703125 0l0 2.734375l-10.375 0l0 -2.546875l1.53125 0q-1.765625 -1.359375 -1.765625 -3.421875q0 -0.90625 0.328125 -1.65625q0.328125 -0.75 0.84375 -1.125q0.5 -0.390625 1.15625 -0.546875q0.640625 -0.15625 1.828125 -0.15625l6.453125 0zm0.6875 -2.5292969l0.375 -3.125q0.546875 -0.078125 0.75 -0.359375q0.296875 -0.390625 0.296875 -1.234375q0 -1.078125 -0.328125 -1.609375q-0.203125 -0.359375 -0.6875 -0.546875q-0.34375 -0.125 -1.265625 -0.125l-1.515625 0q1.6875 1.21875 1.6875 3.09375q0 2.09375 -1.765625 3.3125q-1.40625 0.953125 -3.484375 0.953125q-2.609375 0 -3.984375 -1.25q-1.375 -1.25 -1.375 -3.125q0 -1.921875 1.6875 -3.171875l-1.453125 0l0 -2.5625l9.3125 0q1.828125 0 2.734375 0.3125q0.921875 0.296875 1.4375 0.84375q0.515625 0.546875 0.796875 1.46875q0.296875 0.90625 0.296875 2.296875q0 2.640625 -0.90625 3.75q-0.890625 1.09375 -2.28125 1.09375q-0.140625 0 -0.328125 -0.015625zm-6.09375 -2.453125q1.65625 0 2.421875 -0.625q0.765625 -0.640625 0.765625 -1.578125q0 -1.015625 -0.78125 -1.703125q-0.796875 -0.703125 -2.328125 -0.703125q-1.609375 0 -2.390625 0.671875q-0.78125 0.65625 -0.78125 1.671875q0 1.0 0.765625 1.640625q0.765625 0.625 2.328125 0.625z" fill-rule="nonzero"/><path fill="#7f6000" d="m245.6042 205.18837l-14.3125 0l0 -4.328125l9.765625 -2.59375l-9.765625 -2.5625l0 -4.34375l14.3125 0l0 2.6875l-11.265625 0l11.265625 2.84375l0 2.78125l-11.265625 2.828125l11.265625 0l0 2.6875zm-11.78125 -16.675781l-2.53125 0l0 -2.75l2.53125 0l0 2.75zm11.78125 0l-10.375 0l0 -2.75l10.375 0l0 2.75zm0 -15.072266l0 2.546875l-1.53125 0q0.890625 0.640625 1.328125 1.515625q0.4375 0.859375 0.4375 1.734375q0 1.78125 -1.4375 3.0625q-1.4375 1.265625 -4.015625 1.265625q-2.640625 0 -4.015625 -1.234375q-1.375 -1.234375 -1.375 -3.140625q0 -1.734375 1.453125 -3.0l-5.15625 0l0 -2.75l14.3125 0zm-5.40625 7.328125q1.65625 0 2.390625 -0.453125q1.078125 -0.671875 1.078125 -1.859375q0 -0.953125 -0.796875 -1.609375q-0.8125 -0.671875 -2.40625 -0.671875q-1.796875 0 -2.578125 0.65625q-0.78125 0.640625 -0.78125 1.640625q0 0.984375 0.78125 1.640625q0.765625 0.65625 2.3125 0.65625zm5.40625 -19.544922l0 2.546875l-1.53125 0q0.890625 0.640625 1.328125 1.515625q0.4375 0.859375 0.4375 1.734375q0 1.78125 -1.4375 3.0625q-1.4375 1.265625 -4.015625 1.265625q-2.640625 0 -4.015625 -1.234375q-1.375 -1.234375 -1.375 -3.140625q0 -1.734375 1.453125 -3.0l-5.15625 0l0 -2.75l14.3125 0zm-5.40625 7.328125q1.65625 0 2.390625 -0.453125q1.078125 -0.671875 1.078125 -1.859375q0 -0.953125 -0.796875 -1.609375q-0.8125 -0.671875 -2.40625 -0.671875q-1.796875 0 -2.578125 0.65625q-0.78125 0.640625 -0.78125 1.640625q0 0.984375 0.78125 1.640625q0.765625 0.65625 2.3125 0.65625zm5.40625 -10.029297l-14.3125 0l0 -2.75l14.3125 0l0 2.75zm-3.296875 -11.556641l0.453125 -2.734375q1.5 0.515625 2.296875 1.65625q0.78125 1.140625 0.78125 2.84375q0 2.71875 -1.765625 4.015625q-1.421875 1.015625 -3.578125 1.015625q-2.578125 0 -4.03125 -1.34375q-1.46875 -1.34375 -1.46875 -3.40625q0 -2.3125 1.53125 -3.640625q1.53125 -1.34375 4.6875 -1.296875l0 6.875q1.21875 -0.03125 1.90625 -0.65625q0.671875 -0.640625 0.671875 -1.578125q0 -0.65625 -0.34375 -1.09375q-0.359375 -0.4375 -1.140625 -0.65625zm-2.78125 -0.15625q-1.1875 0.03125 -1.796875 0.625q-0.625 0.578125 -0.625 1.40625q0 0.90625 0.640625 1.484375q0.65625 0.59375 1.78125 0.578125l0 -4.09375zm6.078125 -6.904297l-10.375 3.28125l0 -2.65625l6.796875 -1.953125l-6.796875 -1.78125l0 -2.640625l6.796875 -1.734375l-6.796875 -1.984375l0 -2.703125l10.375 3.328125l0 2.640625l-6.671875 1.78125l6.671875 1.765625l0 2.65625zm-7.203125 -15.666016l-0.453125 2.484375q-1.5 -0.421875 -2.21875 -1.4375q-0.734375 -1.03125 -0.734375 -3.046875q0 -1.84375 0.4375 -2.734375q0.4375 -0.90625 1.109375 -1.265625q0.65625 -0.375 2.453125 -0.375l3.203125 0.03125q1.359375 0 2.015625 -0.125q0.640625 -0.140625 1.390625 -0.5l0 2.71875q-0.28125 0.109375 -0.8125 0.265625q-0.25 0.0625 -0.328125 0.09375q0.6875 0.703125 1.03125 1.515625q0.34375 0.796875 0.34375 1.703125q0 1.59375 -0.859375 2.515625q-0.875 0.921875 -2.203125 0.921875q-0.890625 0 -1.578125 -0.40625q-0.6875 -0.421875 -1.046875 -1.171875q-0.375 -0.765625 -0.640625 -2.203125q-0.359375 -1.921875 -0.671875 -2.65625l-0.28125 0q-0.78125 0 -1.109375 0.390625q-0.34375 0.390625 -0.34375 1.46875q0 0.734375 0.28125 1.15625q0.28125 0.40625 1.015625 0.65625zm2.21875 -3.671875q0.171875 0.53125 0.421875 1.671875q0.25 1.140625 0.484375 1.484375q0.375 0.546875 0.96875 0.546875q0.5625 0 0.984375 -0.421875q0.421875 -0.4375 0.421875 -1.109375q0 -0.734375 -0.484375 -1.40625q-0.375 -0.5 -0.90625 -0.65625q-0.359375 -0.109375 -1.34375 -0.109375l-0.546875 0zm4.984375 -8.029297l0 2.75l-10.375 0l0 -2.5625l1.484375 0q-1.046875 -0.640625 -1.375 -1.15625q-0.34375 -0.53125 -0.34375 -1.203125q0 -0.9375 0.515625 -1.796875l2.390625 0.84375q-0.4375 0.6875 -0.4375 1.28125q0 0.578125 0.3125 0.984375q0.3125 0.40625 1.15625 0.640625q0.828125 0.21875 3.46875 0.21875l3.203125 0zm-3.296875 -11.158203l0.453125 -2.734375q1.5 0.515625 2.296875 1.65625q0.78125 1.140625 0.78125 2.84375q0 2.71875 -1.765625 4.015625q-1.421875 1.015625 -3.578125 1.015625q-2.578125 0 -4.03125 -1.34375q-1.46875 -1.34375 -1.46875 -3.40625q0 -2.3125 1.53125 -3.640625q1.53125 -1.34375 4.6875 -1.296875l0 6.875q1.21875 -0.03125 1.90625 -0.65625q0.671875 -0.640625 0.671875 -1.578125q0 -0.65625 -0.34375 -1.09375q-0.359375 -0.4375 -1.140625 -0.65625zm-2.78125 -0.15625q-1.1875 0.03125 -1.796875 0.625q-0.625 0.578125 -0.625 1.40625q0 0.90625 0.640625 1.484375q0.65625 0.59375 1.78125 0.578125l0 -4.09375z" fill-rule="nonzero"/><path fill="#d9ead3" d="m346.17087 240.90814l0 0c-7.5407715 0 -13.653809 -6.113022 -13.653809 -13.653824l0 -150.20418c0 -3.6212158 1.4385376 -7.094116 3.999115 -9.654701c2.5605774 -2.5605927 6.033478 -3.999115 9.654694 -3.999115l54.613647 0c7.5407715 0 13.653809 6.113022 13.653809 13.653816l0 150.20418c0 7.540802 -6.113037 13.653824 -13.653809 13.653824z" fill-rule="evenodd"/><path stroke="#274e13" stroke-width="3.0" stroke-linejoin="round" stroke-linecap="butt" d="m346.17087 240.90814l0 0c-7.5407715 0 -13.653809 -6.113022 -13.653809 -13.653824l0 -150.20418c0 -3.6212158 1.4385376 -7.094116 3.999115 -9.654701c2.5605774 -2.5605927 6.033478 -3.999115 9.654694 -3.999115l54.613647 0c7.5407715 0 13.653809 6.113022 13.653809 13.653816l0 150.20418c0 7.540802 -6.113037 13.653824 -13.653809 13.653824z" fill-rule="evenodd"/><path fill="#274e13" d="m368.6777 194.2743l-14.3125 5.125l0 -3.140625l10.59375 -3.625l-10.59375 -3.5l0 -3.078125l14.3125 5.140625l0 3.078125zm-7.203125 -10.611328l-0.453125 2.484375q-1.5 -0.421875 -2.21875 -1.4375q-0.734375 -1.03125 -0.734375 -3.046875q0 -1.84375 0.4375 -2.734375q0.4375 -0.90625 1.109375 -1.265625q0.65625 -0.375 2.453125 -0.375l3.203125 0.03125q1.359375 0 2.015625 -0.125q0.640625 -0.140625 1.390625 -0.5l0 2.71875q-0.28125 0.109375 -0.8125 0.265625q-0.25 0.0625 -0.328125 0.09375q0.6875 0.703125 1.03125 1.515625q0.34375 0.796875 0.34375 1.703125q0 1.59375 -0.859375 2.515625q-0.875 0.921875 -2.203125 0.921875q-0.890625 0 -1.578125 -0.40625q-0.6875 -0.421875 -1.046875 -1.171875q-0.375 -0.765625 -0.640625 -2.203125q-0.359375 -1.921875 -0.671875 -2.65625l-0.28125 0q-0.78125 0 -1.109375 0.390625q-0.34375 0.390625 -0.34375 1.46875q0 0.734375 0.28125 1.15625q0.28125 0.40625 1.015625 0.65625zm2.21875 -3.671875q0.171875 0.53125 0.421875 1.671875q0.25 1.140625 0.484375 1.484375q0.375 0.546875 0.96875 0.546875q0.5625 0 0.984375 -0.421875q0.421875 -0.4375 0.421875 -1.109375q0 -0.734375 -0.484375 -1.40625q-0.375 -0.5 -0.90625 -0.65625q-0.359375 -0.109375 -1.34375 -0.109375l-0.546875 0zm4.984375 -5.404297l-14.3125 0l0 -2.75l14.3125 0l0 2.75zm-11.78125 -5.5566406l-2.53125 0l0 -2.75l2.53125 0l0 2.75zm11.78125 0l-10.375 0l0 -2.75l10.375 0l0 2.75zm0 -15.072266l0 2.546875l-1.53125 0q0.890625 0.640625 1.328125 1.515625q0.4375 0.859375 0.4375 1.734375q0 1.78125 -1.4375 3.0625q-1.4375 1.265625 -4.015625 1.265625q-2.640625 0 -4.015625 -1.234375q-1.375 -1.234375 -1.375 -3.140625q0 -1.734375 1.453125 -3.0l-5.15625 0l0 -2.75l14.3125 0zm-5.40625 7.328125q1.65625 0 2.390625 -0.453125q1.078125 -0.671875 1.078125 -1.859375q0 -0.953125 -0.796875 -1.609375q-0.8125 -0.671875 -2.40625 -0.671875q-1.796875 0 -2.578125 0.65625q-0.78125 0.640625 -0.78125 1.640625q0 0.984375 0.78125 1.640625q0.765625 0.65625 2.3125 0.65625zm-1.796875 -12.076172l-0.453125 2.484375q-1.5 -0.421875 -2.21875 -1.4375q-0.734375 -1.03125 -0.734375 -3.046875q0 -1.84375 0.4375 -2.734375q0.4375 -0.90625 1.109375 -1.265625q0.65625 -0.375 2.453125 -0.375l3.203125 0.03125q1.359375 0 2.015625 -0.125q0.640625 -0.140625 1.390625 -0.5l0 2.71875q-0.28125 0.109375 -0.8125 0.265625q-0.25 0.0625 -0.328125 0.09375q0.6875 0.703125 1.03125 1.515625q0.34375 0.796875 0.34375 1.703125q0 1.59375 -0.859375 2.515625q-0.875 0.921875 -2.203125 0.921875q-0.890625 0 -1.578125 -0.40625q-0.6875 -0.421875 -1.046875 -1.171875q-0.375 -0.765625 -0.640625 -2.203125q-0.359375 -1.921875 -0.671875 -2.65625l-0.28125 0q-0.78125 0 -1.109375 0.390625q-0.34375 0.390625 -0.34375 1.46875q0 0.734375 0.28125 1.15625q0.28125 0.40625 1.015625 0.65625zm2.21875 -3.671875q0.171875 0.53125 0.421875 1.671875q0.25 1.140625 0.484375 1.484375q0.375 0.546875 0.96875 0.546875q0.5625 0 0.984375 -0.421875q0.421875 -0.4375 0.421875 -1.109375q0 -0.734375 -0.484375 -1.40625q-0.375 -0.5 -0.90625 -0.65625q-0.359375 -0.109375 -1.34375 -0.109375l-0.546875 0zm-5.390625 -10.154297l2.1875 0l0 1.875l4.1875 0q1.265625 0 1.484375 -0.046875q0.203125 -0.0625 0.34375 -0.25q0.125 -0.203125 0.125 -0.46875q0 -0.375 -0.265625 -1.109375l2.140625 -0.234375q0.40625 0.96875 0.40625 2.171875q0 0.75 -0.25 1.34375q-0.25 0.59375 -0.640625 0.875q-0.40625 0.265625 -1.078125 0.375q-0.46875 0.09375 -1.921875 0.09375l-4.53125 0l0 1.265625l-2.1875 0l0 -1.265625l-2.0625 0l-1.59375 -2.75l3.65625 0l0 -1.875zm-1.40625 -1.9101562l-2.53125 0l0 -2.75l2.53125 0l0 2.75zm11.78125 0l-10.375 0l0 -2.75l10.375 0l0 2.75zm-5.328125 -4.9160156q-1.375 0 -2.65625 -0.671875q-1.28125 -0.6875 -1.953125 -1.921875q-0.671875 -1.234375 -0.671875 -2.75q0 -2.359375 1.53125 -3.859375q1.53125 -1.5 3.859375 -1.5q2.359375 0 3.90625 1.515625q1.546875 1.515625 1.546875 3.828125q0 1.421875 -0.640625 2.71875q-0.65625 1.28125 -1.890625 1.96875q-1.25 0.671875 -3.03125 0.671875zm0.140625 -2.8125q1.546875 0 2.375 -0.734375q0.8125 -0.734375 0.8125 -1.8125q0 -1.078125 -0.8125 -1.796875q-0.828125 -0.734375 -2.390625 -0.734375q-1.53125 0 -2.34375 0.734375q-0.828125 0.71875 -0.828125 1.796875q0 1.078125 0.828125 1.8125q0.8125 0.734375 2.359375 0.734375zm5.1875 -19.482422l0 2.75l-5.296875 0q-1.671875 0 -2.15625 0.171875q-0.5 0.171875 -0.765625 0.578125q-0.28125 0.390625 -0.28125 0.953125q0 0.703125 0.390625 1.28125q0.390625 0.5625 1.03125 0.78125q0.640625 0.203125 2.375 0.203125l4.703125 0l0 2.734375l-10.375 0l0 -2.546875l1.53125 0q-1.765625 -1.359375 -1.765625 -3.421875q0 -0.90625 0.328125 -1.65625q0.328125 -0.75 0.84375 -1.125q0.5 -0.390625 1.15625 -0.546875q0.640625 -0.15625 1.828125 -0.15625l6.453125 0z" fill-rule="nonzero"/><path fill="#274e13" d="m392.67767 205.18837l-14.3125 0l0 -4.328125l9.765625 -2.59375l-9.765625 -2.5625l0 -4.34375l14.3125 0l0 2.6875l-11.265625 0l11.265625 2.84375l0 2.78125l-11.265625 2.828125l11.265625 0l0 2.6875zm-11.78125 -16.675781l-2.53125 0l0 -2.75l2.53125 0l0 2.75zm11.78125 0l-10.375 0l0 -2.75l10.375 0l0 2.75zm0 -15.072266l0 2.546875l-1.53125 0q0.890625 0.640625 1.328125 1.515625q0.4375 0.859375 0.4375 1.734375q0 1.78125 -1.4375 3.0625q-1.4375 1.265625 -4.015625 1.265625q-2.640625 0 -4.015625 -1.234375q-1.375 -1.234375 -1.375 -3.140625q0 -1.734375 1.453125 -3.0l-5.15625 0l0 -2.75l14.3125 0zm-5.40625 7.328125q1.65625 0 2.390625 -0.453125q1.078125 -0.671875 1.078125 -1.859375q0 -0.953125 -0.796875 -1.609375q-0.8125 -0.671875 -2.40625 -0.671875q-1.796875 0 -2.578125 0.65625q-0.78125 0.640625 -0.78125 1.640625q0 0.984375 0.78125 1.640625q0.765625 0.65625 2.3125 0.65625zm5.40625 -19.544922l0 2.546875l-1.53125 0q0.890625 0.640625 1.328125 1.515625q0.4375 0.859375 0.4375 1.734375q0 1.78125 -1.4375 3.0625q-1.4375 1.265625 -4.015625 1.265625q-2.640625 0 -4.015625 -1.234375q-1.375 -1.234375 -1.375 -3.140625q0 -1.734375 1.453125 -3.0l-5.15625 0l0 -2.75l14.3125 0zm-5.40625 7.328125q1.65625 0 2.390625 -0.453125q1.078125 -0.671875 1.078125 -1.859375q0 -0.953125 -0.796875 -1.609375q-0.8125 -0.671875 -2.40625 -0.671875q-1.796875 0 -2.578125 0.65625q-0.78125 0.640625 -0.78125 1.640625q0 0.984375 0.78125 1.640625q0.765625 0.65625 2.3125 0.65625zm5.40625 -10.029297l-14.3125 0l0 -2.75l14.3125 0l0 2.75zm-3.296875 -11.556641l0.453125 -2.734375q1.5 0.515625 2.296875 1.65625q0.78125 1.140625 0.78125 2.84375q0 2.71875 -1.765625 4.015625q-1.421875 1.015625 -3.578125 1.015625q-2.578125 0 -4.03125 -1.34375q-1.46875 -1.34375 -1.46875 -3.40625q0 -2.3125 1.53125 -3.640625q1.53125 -1.34375 4.6875 -1.296875l0 6.875q1.21875 -0.03125 1.90625 -0.65625q0.671875 -0.640625 0.671875 -1.578125q0 -0.65625 -0.34375 -1.09375q-0.359375 -0.4375 -1.140625 -0.65625zm-2.78125 -0.15625q-1.1875 0.03125 -1.796875 0.625q-0.625 0.578125 -0.625 1.40625q0 0.90625 0.640625 1.484375q0.65625 0.59375 1.78125 0.578125l0 -4.09375zm6.078125 -6.904297l-10.375 3.28125l0 -2.65625l6.796875 -1.953125l-6.796875 -1.78125l0 -2.640625l6.796875 -1.734375l-6.796875 -1.984375l0 -2.703125l10.375 3.328125l0 2.640625l-6.671875 1.78125l6.671875 1.765625l0 2.65625zm-7.203125 -15.666016l-0.453125 2.484375q-1.5 -0.421875 -2.21875 -1.4375q-0.734375 -1.03125 -0.734375 -3.046875q0 -1.84375 0.4375 -2.734375q0.4375 -0.90625 1.109375 -1.265625q0.65625 -0.375 2.453125 -0.375l3.203125 0.03125q1.359375 0 2.015625 -0.125q0.640625 -0.140625 1.390625 -0.5l0 2.71875q-0.28125 0.109375 -0.8125 0.265625q-0.25 0.0625 -0.328125 0.09375q0.6875 0.703125 1.03125 1.515625q0.34375 0.796875 0.34375 1.703125q0 1.59375 -0.859375 2.515625q-0.875 0.921875 -2.203125 0.921875q-0.890625 0 -1.578125 -0.40625q-0.6875 -0.421875 -1.046875 -1.171875q-0.375 -0.765625 -0.640625 -2.203125q-0.359375 -1.921875 -0.671875 -2.65625l-0.28125 0q-0.78125 0 -1.109375 0.390625q-0.34375 0.390625 -0.34375 1.46875q0 0.734375 0.28125 1.15625q0.28125 0.40625 1.015625 0.65625zm2.21875 -3.671875q0.171875 0.53125 0.421875 1.671875q0.25 1.140625 0.484375 1.484375q0.375 0.546875 0.96875 0.546875q0.5625 0 0.984375 -0.421875q0.421875 -0.4375 0.421875 -1.109375q0 -0.734375 -0.484375 -1.40625q-0.375 -0.5 -0.90625 -0.65625q-0.359375 -0.109375 -1.34375 -0.109375l-0.546875 0zm4.984375 -8.029297l0 2.75l-10.375 0l0 -2.5625l1.484375 0q-1.046875 -0.640625 -1.375 -1.15625q-0.34375 -0.53125 -0.34375 -1.203125q0 -0.9375 0.515625 -1.796875l2.390625 0.84375q-0.4375 0.6875 -0.4375 1.28125q0 0.578125 0.3125 0.984375q0.3125 0.40625 1.15625 0.640625q0.828125 0.21875 3.46875 0.21875l3.203125 0zm-3.296875 -11.158203l0.453125 -2.734375q1.5 0.515625 2.296875 1.65625q0.78125 1.140625 0.78125 2.84375q0 2.71875 -1.765625 4.015625q-1.421875 1.015625 -3.578125 1.015625q-2.578125 0 -4.03125 -1.34375q-1.46875 -1.34375 -1.46875 -3.40625q0 -2.3125 1.53125 -3.640625q1.53125 -1.34375 4.6875 -1.296875l0 6.875q1.21875 -0.03125 1.90625 -0.65625q0.671875 -0.640625 0.671875 -1.578125q0 -0.65625 -0.34375 -1.09375q-0.359375 -0.4375 -1.140625 -0.65625zm-2.78125 -0.15625q-1.1875 0.03125 -1.796875 0.625q-0.625 0.578125 -0.625 1.40625q0 0.90625 0.640625 1.484375q0.65625 0.59375 1.78125 0.578125l0 -4.09375z" fill-rule="nonzero"/><path fill="#fce5cd" d="m492.8428 240.90814l0 0c-7.540802 0 -13.653839 -6.113022 -13.653839 -13.653824l0 -150.20418c0 -3.6212158 1.4385376 -7.094116 3.999115 -9.654701c2.560608 -2.5605927 6.0335083 -3.999115 9.654724 -3.999115l54.613617 0c7.5407715 0 13.653809 6.113022 13.653809 13.653816l0 150.20418c0 7.540802 -6.113037 13.653824 -13.653809 13.653824z" fill-rule="evenodd"/><path stroke="#783f04" stroke-width="3.0" stroke-linejoin="round" stroke-linecap="butt" d="m492.8428 240.90814l0 0c-7.540802 0 -13.653839 -6.113022 -13.653839 -13.653824l0 -150.20418c0 -3.6212158 1.4385376 -7.094116 3.999115 -9.654701c2.560608 -2.5605927 6.0335083 -3.999115 9.654724 -3.999115l54.613617 0c7.5407715 0 13.653809 6.113022 13.653809 13.653816l0 150.20418c0 7.540802 -6.113037 13.653824 -13.653809 13.653824z" fill-rule="evenodd"/><path fill="#783f04" d="m515.3496 211.94814l-11.890625 0l0 4.234375l-2.421875 0l0 -11.375l2.421875 0l0 4.25l11.890625 0l0 2.890625zm0 -10.503906l0 2.75l-10.375 0l0 -2.5625l1.484375 0q-1.046875 -0.640625 -1.375 -1.15625q-0.34375 -0.53125 -0.34375 -1.203125q0 -0.9375 0.515625 -1.796875l2.390625 0.84375q-0.4375 0.6875 -0.4375 1.28125q0 0.578125 0.3125 0.984375q0.3125 0.40625 1.15625 0.640625q0.828125 0.21875 3.46875 0.21875l3.203125 0zm-7.203125 -7.205078l-0.453125 2.484375q-1.5 -0.421875 -2.21875 -1.4375q-0.734375 -1.03125 -0.734375 -3.046875q0 -1.84375 0.4375 -2.734375q0.4375 -0.90625 1.109375 -1.265625q0.65625 -0.375 2.453125 -0.375l3.203125 0.03125q1.359375 0 2.015625 -0.125q0.640625 -0.140625 1.390625 -0.5l0 2.71875q-0.28125 0.109375 -0.8125 0.265625q-0.25 0.0625 -0.328125 0.09375q0.6875 0.703125 1.03125 1.515625q0.34375 0.796875 0.34375 1.703125q0 1.59375 -0.859375 2.515625q-0.875 0.921875 -2.203125 0.921875q-0.890625 0 -1.578125 -0.40625q-0.6875 -0.421875 -1.046875 -1.171875q-0.375 -0.765625 -0.640625 -2.203125q-0.359375 -1.921875 -0.671875 -2.65625l-0.28125 0q-0.78125 0 -1.109375 0.390625q-0.34375 0.390625 -0.34375 1.46875q0 0.734375 0.28125 1.15625q0.28125 0.40625 1.015625 0.65625zm2.21875 -3.671875q0.171875 0.53125 0.421875 1.671875q0.25 1.140625 0.484375 1.484375q0.375 0.546875 0.96875 0.546875q0.5625 0 0.984375 -0.421875q0.421875 -0.4375 0.421875 -1.109375q0 -0.734375 -0.484375 -1.40625q-0.375 -0.5 -0.90625 -0.65625q-0.359375 -0.109375 -1.34375 -0.109375l-0.546875 0zm4.984375 -14.841797l0 2.75l-5.296875 0q-1.671875 0 -2.15625 0.171875q-0.5 0.171875 -0.765625 0.578125q-0.28125 0.390625 -0.28125 0.953125q0 0.703125 0.390625 1.28125q0.390625 0.5625 1.03125 0.78125q0.640625 0.203125 2.375 0.203125l4.703125 0l0 2.734375l-10.375 0l0 -2.546875l1.53125 0q-1.765625 -1.359375 -1.765625 -3.421875q0 -0.90625 0.328125 -1.65625q0.328125 -0.75 0.84375 -1.125q0.5 -0.390625 1.15625 -0.546875q0.640625 -0.15625 1.828125 -0.15625l6.453125 0zm-2.953125 -1.8105469l-0.421875 -2.75q0.796875 -0.1875 1.21875 -0.71875q0.40625 -0.53125 0.40625 -1.5q0 -1.0625 -0.390625 -1.609375q-0.265625 -0.359375 -0.734375 -0.359375q-0.3125 0 -0.515625 0.203125q-0.1875 0.203125 -0.359375 0.90625q-0.734375 3.328125 -1.34375 4.21875q-0.828125 1.234375 -2.328125 1.234375q-1.34375 0 -2.265625 -1.0625q-0.921875 -1.078125 -0.921875 -3.3125q0 -2.125 0.703125 -3.15625q0.6875 -1.046875 2.046875 -1.4375l0.46875 2.59375q-0.59375 0.171875 -0.921875 0.640625q-0.328125 0.453125 -0.328125 1.3125q0 1.078125 0.3125 1.546875q0.21875 0.3125 0.546875 0.3125q0.296875 0 0.5 -0.265625q0.28125 -0.375 0.78125 -2.5625q0.5 -2.1875 1.21875 -3.0625q0.734375 -0.859375 2.03125 -0.859375q1.4375 0 2.46875 1.1875q1.015625 1.1875 1.015625 3.53125q0 2.109375 -0.859375 3.359375q-0.859375 1.234375 -2.328125 1.609375zm-4.25 -14.138672l-0.453125 2.484375q-1.5 -0.421875 -2.21875 -1.4375q-0.734375 -1.03125 -0.734375 -3.046875q0 -1.84375 0.4375 -2.734375q0.4375 -0.90625 1.109375 -1.265625q0.65625 -0.375 2.453125 -0.375l3.203125 0.03125q1.359375 0 2.015625 -0.125q0.640625 -0.140625 1.390625 -0.5l0 2.71875q-0.28125 0.109375 -0.8125 0.265625q-0.25 0.0625 -0.328125 0.09375q0.6875 0.703125 1.03125 1.515625q0.34375 0.796875 0.34375 1.703125q0 1.59375 -0.859375 2.515625q-0.875 0.921875 -2.203125 0.921875q-0.890625 0 -1.578125 -0.40625q-0.6875 -0.421875 -1.046875 -1.171875q-0.375 -0.765625 -0.640625 -2.203125q-0.359375 -1.921875 -0.671875 -2.65625l-0.28125 0q-0.78125 0 -1.109375 0.390625q-0.34375 0.390625 -0.34375 1.46875q0 0.734375 0.28125 1.15625q0.28125 0.40625 1.015625 0.65625zm2.21875 -3.671875q0.171875 0.53125 0.421875 1.671875q0.25 1.140625 0.484375 1.484375q0.375 0.546875 0.96875 0.546875q0.5625 0 0.984375 -0.421875q0.421875 -0.4375 0.421875 -1.109375q0 -0.734375 -0.484375 -1.40625q-0.375 -0.5 -0.90625 -0.65625q-0.359375 -0.109375 -1.34375 -0.109375l-0.546875 0zm-2.328125 -14.451172l0.5 2.703125q-0.8125 0.140625 -1.21875 0.625q-0.421875 0.484375 -0.421875 1.25q0 1.03125 0.71875 1.640625q0.703125 0.609375 2.359375 0.609375q1.84375 0 2.609375 -0.609375q0.765625 -0.625 0.765625 -1.671875q0 -0.78125 -0.4375 -1.28125q-0.453125 -0.5 -1.53125 -0.703125l0.453125 -2.6875q1.859375 0.40625 2.8125 1.609375q0.9375 1.1875 0.9375 3.1875q0 2.28125 -1.4375 3.640625q-1.4375 1.34375 -3.96875 1.34375q-2.578125 0 -4.0 -1.359375q-1.4375 -1.359375 -1.4375 -3.671875q0 -1.890625 0.828125 -3.0q0.8125 -1.125 2.46875 -1.625zm-3.0625 -6.826172l2.1875 0l0 1.875l4.1875 0q1.265625 0 1.484375 -0.046875q0.203125 -0.0625 0.34375 -0.25q0.125 -0.203125 0.125 -0.46875q0 -0.375 -0.265625 -1.109375l2.140625 -0.234375q0.40625 0.96875 0.40625 2.171875q0 0.75 -0.25 1.34375q-0.25 0.59375 -0.640625 0.875q-0.40625 0.265625 -1.078125 0.375q-0.46875 0.09375 -1.921875 0.09375l-4.53125 0l0 1.265625l-2.1875 0l0 -1.265625l-2.0625 0l-1.59375 -2.75l3.65625 0l0 -1.875zm-1.40625 -1.9101562l-2.53125 0l0 -2.75l2.53125 0l0 2.75zm11.78125 0l-10.375 0l0 -2.75l10.375 0l0 2.75zm-5.328125 -4.9160156q-1.375 0 -2.65625 -0.671875q-1.28125 -0.6875 -1.953125 -1.921875q-0.671875 -1.234375 -0.671875 -2.75q0 -2.359375 1.53125 -3.859375q1.53125 -1.5 3.859375 -1.5q2.359375 0 3.90625 1.515625q1.546875 1.515625 1.546875 3.828125q0 1.421875 -0.640625 2.71875q-0.65625 1.28125 -1.890625 1.96875q-1.25 0.671875 -3.03125 0.671875zm0.140625 -2.8125q1.546875 0 2.375 -0.734375q0.8125 -0.734375 0.8125 -1.8125q0 -1.078125 -0.8125 -1.796875q-0.828125 -0.734375 -2.390625 -0.734375q-1.53125 0 -2.34375 0.734375q-0.828125 0.71875 -0.828125 1.796875q0 1.078125 0.828125 1.8125q0.8125 0.734375 2.359375 0.734375zm5.1875 -19.482422l0 2.75l-5.296875 0q-1.671875 0 -2.15625 0.171875q-0.5 0.171875 -0.765625 0.578125q-0.28125 0.390625 -0.28125 0.953125q0 0.703125 0.390625 1.28125q0.390625 0.5625 1.03125 0.78125q0.640625 0.203125 2.375 0.203125l4.703125 0l0 2.734375l-10.375 0l0 -2.546875l1.53125 0q-1.765625 -1.359375 -1.765625 -3.421875q0 -0.90625 0.328125 -1.65625q0.328125 -0.75 0.84375 -1.125q0.5 -0.390625 1.15625 -0.546875q0.640625 -0.15625 1.828125 -0.15625l6.453125 0zm-7.203125 -4.826172l-0.453125 2.484375q-1.5 -0.421875 -2.21875 -1.4375q-0.734375 -1.03125 -0.734375 -3.046875q0 -1.84375 0.4375 -2.734375q0.4375 -0.90625 1.109375 -1.265625q0.65625 -0.375 2.453125 -0.375l3.203125 0.03125q1.359375 0 2.015625 -0.125q0.640625 -0.140625 1.390625 -0.5l0 2.71875q-0.28125 0.109375 -0.8125 0.265625q-0.25 0.0625 -0.328125 0.09375q0.6875 0.703125 1.03125 1.515625q0.34375 0.796875 0.34375 1.703125q0 1.59375 -0.859375 2.515625q-0.875 0.921875 -2.203125 0.921875q-0.890625 0 -1.578125 -0.40625q-0.6875 -0.421875 -1.046875 -1.171875q-0.375 -0.765625 -0.640625 -2.203125q-0.359375 -1.921875 -0.671875 -2.65625l-0.28125 0q-0.78125 0 -1.109375 0.390625q-0.34375 0.390625 -0.34375 1.46875q0 0.734375 0.28125 1.15625q0.28125 0.40625 1.015625 0.65625zm2.21875 -3.671875q0.171875 0.53125 0.421875 1.671875q0.25 1.140625 0.484375 1.484375q0.375 0.546875 0.96875 0.546875q0.5625 0 0.984375 -0.421875q0.421875 -0.4375 0.421875 -1.109375q0 -0.734375 -0.484375 -1.40625q-0.375 -0.5 -0.90625 -0.65625q-0.359375 -0.109375 -1.34375 -0.109375l-0.546875 0zm4.984375 -5.404297l-14.3125 0l0 -2.75l14.3125 0l0 2.75z" fill-rule="nonzero"/><path fill="#783f04" d="m539.3496 205.18837l-14.3125 0l0 -4.328125l9.765625 -2.59375l-9.765625 -2.5625l0 -4.34375l14.3125 0l0 2.6875l-11.265625 0l11.265625 2.84375l0 2.78125l-11.265625 2.828125l11.265625 0l0 2.6875zm-11.78125 -16.675781l-2.53125 0l0 -2.75l2.53125 0l0 2.75zm11.78125 0l-10.375 0l0 -2.75l10.375 0l0 2.75zm0 -15.072266l0 2.546875l-1.53125 0q0.890625 0.640625 1.328125 1.515625q0.4375 0.859375 0.4375 1.734375q0 1.78125 -1.4375 3.0625q-1.4375 1.265625 -4.015625 1.265625q-2.640625 0 -4.015625 -1.234375q-1.375 -1.234375 -1.375 -3.140625q0 -1.734375 1.453125 -3.0l-5.15625 0l0 -2.75l14.3125 0zm-5.40625 7.328125q1.65625 0 2.390625 -0.453125q1.078125 -0.671875 1.078125 -1.859375q0 -0.953125 -0.796875 -1.609375q-0.8125 -0.671875 -2.40625 -0.671875q-1.796875 0 -2.578125 0.65625q-0.78125 0.640625 -0.78125 1.640625q0 0.984375 0.78125 1.640625q0.765625 0.65625 2.3125 0.65625zm5.40625 -19.544922l0 2.546875l-1.53125 0q0.890625 0.640625 1.328125 1.515625q0.4375 0.859375 0.4375 1.734375q0 1.78125 -1.4375 3.0625q-1.4375 1.265625 -4.015625 1.265625q-2.640625 0 -4.015625 -1.234375q-1.375 -1.234375 -1.375 -3.140625q0 -1.734375 1.453125 -3.0l-5.15625 0l0 -2.75l14.3125 0zm-5.40625 7.328125q1.65625 0 2.390625 -0.453125q1.078125 -0.671875 1.078125 -1.859375q0 -0.953125 -0.796875 -1.609375q-0.8125 -0.671875 -2.40625 -0.671875q-1.796875 0 -2.578125 0.65625q-0.78125 0.640625 -0.78125 1.640625q0 0.984375 0.78125 1.640625q0.765625 0.65625 2.3125 0.65625zm5.40625 -10.029297l-14.3125 0l0 -2.75l14.3125 0l0 2.75zm-3.296875 -11.556641l0.453125 -2.734375q1.5 0.515625 2.296875 1.65625q0.78125 1.140625 0.78125 2.84375q0 2.71875 -1.765625 4.015625q-1.421875 1.015625 -3.578125 1.015625q-2.578125 0 -4.03125 -1.34375q-1.46875 -1.34375 -1.46875 -3.40625q0 -2.3125 1.53125 -3.640625q1.53125 -1.34375 4.6875 -1.296875l0 6.875q1.21875 -0.03125 1.90625 -0.65625q0.671875 -0.640625 0.671875 -1.578125q0 -0.65625 -0.34375 -1.09375q-0.359375 -0.4375 -1.140625 -0.65625zm-2.78125 -0.15625q-1.1875 0.03125 -1.796875 0.625q-0.625 0.578125 -0.625 1.40625q0 0.90625 0.640625 1.484375q0.65625 0.59375 1.78125 0.578125l0 -4.09375zm6.078125 -6.904297l-10.375 3.28125l0 -2.65625l6.796875 -1.953125l-6.796875 -1.78125l0 -2.640625l6.796875 -1.734375l-6.796875 -1.984375l0 -2.703125l10.375 3.328125l0 2.640625l-6.671875 1.78125l6.671875 1.765625l0 2.65625zm-7.203125 -15.666016l-0.453125 2.484375q-1.5 -0.421875 -2.21875 -1.4375q-0.734375 -1.03125 -0.734375 -3.046875q0 -1.84375 0.4375 -2.734375q0.4375 -0.90625 1.109375 -1.265625q0.65625 -0.375 2.453125 -0.375l3.203125 0.03125q1.359375 0 2.015625 -0.125q0.640625 -0.140625 1.390625 -0.5l0 2.71875q-0.28125 0.109375 -0.8125 0.265625q-0.25 0.0625 -0.328125 0.09375q0.6875 0.703125 1.03125 1.515625q0.34375 0.796875 0.34375 1.703125q0 1.59375 -0.859375 2.515625q-0.875 0.921875 -2.203125 0.921875q-0.890625 0 -1.578125 -0.40625q-0.6875 -0.421875 -1.046875 -1.171875q-0.375 -0.765625 -0.640625 -2.203125q-0.359375 -1.921875 -0.671875 -2.65625l-0.28125 0q-0.78125 0 -1.109375 0.390625q-0.34375 0.390625 -0.34375 1.46875q0 0.734375 0.28125 1.15625q0.28125 0.40625 1.015625 0.65625zm2.21875 -3.671875q0.171875 0.53125 0.421875 1.671875q0.25 1.140625 0.484375 1.484375q0.375 0.546875 0.96875 0.546875q0.5625 0 0.984375 -0.421875q0.421875 -0.4375 0.421875 -1.109375q0 -0.734375 -0.484375 -1.40625q-0.375 -0.5 -0.90625 -0.65625q-0.359375 -0.109375 -1.34375 -0.109375l-0.546875 0zm4.984375 -8.029297l0 2.75l-10.375 0l0 -2.5625l1.484375 0q-1.046875 -0.640625 -1.375 -1.15625q-0.34375 -0.53125 -0.34375 -1.203125q0 -0.9375 0.515625 -1.796875l2.390625 0.84375q-0.4375 0.6875 -0.4375 1.28125q0 0.578125 0.3125 0.984375q0.3125 0.40625 1.15625 0.640625q0.828125 0.21875 3.46875 0.21875l3.203125 0zm-3.296875 -11.158203l0.453125 -2.734375q1.5 0.515625 2.296875 1.65625q0.78125 1.140625 0.78125 2.84375q0 2.71875 -1.765625 4.015625q-1.421875 1.015625 -3.578125 1.015625q-2.578125 0 -4.03125 -1.34375q-1.46875 -1.34375 -1.46875 -3.40625q0 -2.3125 1.53125 -3.640625q1.53125 -1.34375 4.6875 -1.296875l0 6.875q1.21875 -0.03125 1.90625 -0.65625q0.671875 -0.640625 0.671875 -1.578125q0 -0.65625 -0.34375 -1.09375q-0.359375 -0.4375 -1.140625 -0.65625zm-2.78125 -0.15625q-1.1875 0.03125 -1.796875 0.625q-0.625 0.578125 -0.625 1.40625q0 0.90625 0.640625 1.484375q0.65625 0.59375 1.78125 0.578125l0 -4.09375z" fill-rule="nonzero"/><path fill="#cfe2f3" d="m16.133858 92.71401l0 0c0 -2.716545 2.2021923 -4.9187393 4.9187336 -4.9187393l95.51687 0c1.3045273 0 2.555626 0.5182266 3.4780655 1.4406662c0.9224396 0.9224396 1.4406662 2.1735382 1.4406662 3.4780731l0 19.67434c0 2.716545 -2.2021942 4.9187317 -4.9187317 4.9187317l-95.51687 0c-2.7165413 0 -4.9187336 -2.2021866 -4.9187336 -4.9187317z" fill-rule="evenodd"/><path stroke="#1155cc" stroke-width="2.0" stroke-linejoin="round" stroke-linecap="butt" d="m16.133858 92.71401l0 0c0 -2.716545 2.2021923 -4.9187393 4.9187336 -4.9187393l95.51687 0c1.3045273 0 2.555626 0.5182266 3.4780655 1.4406662c0.9224396 0.9224396 1.4406662 2.1735382 1.4406662 3.4780731l0 19.67434c0 2.716545 -2.2021942 4.9187317 -4.9187317 4.9187317l-95.51687 0c-2.7165413 0 -4.9187336 -2.2021866 -4.9187336 -4.9187317z" fill-rule="evenodd"/><path fill="#1155cc" d="m38.197742 104.19243l2.234375 0.71875q-0.515625 1.875 -1.71875 2.796875q-1.1875 0.90625 -3.03125 0.90625q-2.28125 0 -3.749998 -1.5625q-1.46875 -1.5625 -1.46875 -4.265625q0 -2.859375 1.46875 -4.4375q1.4843731 -1.59375 3.890623 -1.59375q2.09375 0 3.40625 1.25q0.78125 0.734375 1.171875 2.109375l-2.28125 0.546875q-0.203125 -0.890625 -0.859375 -1.40625q-0.640625 -0.515625 -1.5625 -0.515625q-1.265625 0 -2.0625 0.921875q-0.796875 0.90625 -0.796875 2.953125q0 2.171875 0.78125 3.09375q0.78125 0.921875 2.03125 0.921875q0.921875 0 1.578125 -0.578125q0.671875 -0.59375 0.96875 -1.859375zm3.6953125 -0.046875q0 -1.09375 0.53125 -2.109375q0.546875 -1.03125 1.53125 -1.5625q1.0 -0.546875 2.21875 -0.546875q1.875 0 3.078125 1.21875q1.203125 1.21875 1.203125 3.09375q0 1.875 -1.21875 3.125q-1.203125 1.234375 -3.046875 1.234375q-1.140625 0 -2.1875 -0.515625q-1.03125 -0.515625 -1.578125 -1.515625q-0.53125 -1.0 -0.53125 -2.421875zm2.25 0.109375q0 1.234375 0.578125 1.890625q0.59375 0.65625 1.453125 0.65625q0.859375 0 1.4375 -0.65625q0.59375 -0.65625 0.59375 -1.90625q0 -1.21875 -0.59375 -1.875q-0.578125 -0.65625 -1.4375 -0.65625q-0.859375 0 -1.453125 0.65625q-0.578125 0.65625 -0.578125 1.890625zm7.8671875 -4.140625l2.03125 0l0 1.125q1.078125 -1.3125 2.578125 -1.3125q0.796875 0 1.375 0.328125q0.59375 0.328125 0.96875 0.984375q0.546875 -0.65625 1.171875 -0.984375q0.640625 -0.328125 1.359375 -0.328125q0.921875 0 1.546875 0.375q0.640625 0.359375 0.953125 1.078125q0.21875381 0.53125 0.21875381 1.71875l0 5.3125l-2.1875038 0l0 -4.75q0 -1.234375 -0.234375 -1.59375q-0.296875 -0.46875 -0.9375 -0.46875q-0.453125 0 -0.859375 0.28125q-0.40625 0.28125 -0.59375 0.828125q-0.171875 0.546875 -0.171875 1.71875l0 3.984375l-2.203125 0l0 -4.546875q0 -1.21875 -0.125 -1.5625q-0.109375 -0.359375 -0.359375 -0.53125q-0.234375 -0.171875 -0.65625 -0.171875q-0.515625 0 -0.921875 0.28125q-0.40625 0.265625 -0.578125 0.78125q-0.171875 0.515625 -0.171875 1.71875l0 4.03125l-2.203125 0l0 -8.296875zm14.226566 0l2.03125 0l0 1.125q1.078125 -1.3125 2.578125 -1.3125q0.796875 0 1.375 0.328125q0.59375 0.328125 0.96875 0.984375q0.546875 -0.65625 1.171875 -0.984375q0.640625 -0.328125 1.359375 -0.328125q0.921875 0 1.546875 0.375q0.640625 0.359375 0.953125 1.078125q0.21875 0.53125 0.21875 1.71875l0 5.3125l-2.1875 0l0 -4.75q0 -1.234375 -0.234375 -1.59375q-0.296875 -0.46875 -0.9375 -0.46875q-0.453125 0 -0.859375 0.28125q-0.40625 0.28125 -0.59375 0.828125q-0.171875 0.546875 -0.171875 1.71875l0 3.984375l-2.203125 0l0 -4.546875q0 -1.21875 -0.125 -1.5625q-0.109375 -0.359375 -0.359375 -0.53125q-0.234375 -0.171875 -0.65625 -0.171875q-0.515625 0 -0.921875 0.28125q-0.40625 0.265625 -0.578125 0.78125q-0.171875 0.515625 -0.171875 1.71875l0 4.03125l-2.203125 0l0 -8.296875zm16.039062 2.53125l-2.0 -0.359375q0.34375 -1.203125 1.15625 -1.78125q0.828125 -0.578125 2.4375 -0.578125q1.46875 0 2.1875 0.34375q0.71875 0.34375 1.015625 0.890625q0.296875 0.53125 0.296875 1.953125l-0.03125 2.5625q0 1.09375 0.109375 1.625q0.109375 0.515625 0.390625 1.109375l-2.171875 0q-0.078125 -0.21875 -0.203125 -0.65625q-0.0625 -0.1875 -0.078125 -0.25q-0.5625 0.546875 -1.203125 0.828125q-0.640625 0.265625 -1.375 0.265625q-1.28125 0 -2.015625 -0.6875q-0.734375 -0.703125 -0.734375 -1.765625q0 -0.703125 0.328125 -1.25q0.34375 -0.5625 0.9375 -0.84375q0.609375 -0.296875 1.75 -0.515625q1.546875 -0.296875 2.140625 -0.546875l0 -0.21875q0 -0.625 -0.3125 -0.890625q-0.3125 -0.28125 -1.1875 -0.28125q-0.578125 0 -0.90625 0.234375q-0.328125 0.234375 -0.53125 0.8125zm2.9375 1.78125q-0.421875 0.140625 -1.34375 0.34375q-0.90625 0.1875 -1.1875 0.375q-0.4375 0.296875 -0.4375 0.765625q0 0.46875 0.34375 0.8125q0.34375 0.328125 0.875 0.328125q0.59375 0 1.140625 -0.390625q0.390625 -0.296875 0.515625 -0.734375q0.09375 -0.28125 0.09375 -1.0625l0 -0.4375zm11.8671875 3.984375l-2.203125 0l0 -4.234375q0 -1.34375 -0.140625 -1.734375q-0.140625 -0.40625 -0.453125 -0.625q-0.3125 -0.21875 -0.765625 -0.21875q-0.5625 0 -1.015625 0.3125q-0.453125 0.3125 -0.625 0.828125q-0.171875 0.515625 -0.171875 1.90625l0 3.765625l-2.1875 0l0 -8.296875l2.03125 0l0 1.21875q1.09375 -1.40625 2.734375 -1.40625q0.734375 0 1.328125 0.265625q0.609375 0.25 0.90625 0.65625q0.3125 0.40625 0.4375 0.921875q0.125 0.515625 0.125 1.484375l0 5.15625zm9.8359375 0l-2.046875 0l0 -1.21875q-0.5 0.703125 -1.203125 1.0625q-0.6875 0.34375 -1.390625 0.34375q-1.421875 0 -2.453125 -1.15625q-1.015625 -1.15625 -1.015625 -3.21875q0 -2.109375 0.984375 -3.203125q1.0 -1.09375 2.515625 -1.09375q1.390625 0 2.40625 1.15625l0 -4.125l2.203125 0l0 11.453125zm-5.859375 -4.328125q0 1.328125 0.359375 1.921875q0.53125 0.859375 1.484375 0.859375q0.765625 0 1.296875 -0.640625q0.53125 -0.65625 0.53125 -1.9375q0 -1.421875 -0.515625 -2.046875q-0.515625 -0.640625 -1.328125 -0.640625q-0.78125 0 -1.3125 0.625q-0.515625 0.625 -0.515625 1.859375z" fill-rule="nonzero"/><path fill="#cc4125" d="m137.74934 192.54517l6.8905487 -7.51149l8.829926 8.099991l8.829926 -8.099991l6.8905334 7.51149l-8.1809845 7.5046997l8.1809845 7.5046997l-6.8905334 7.51149l-8.829926 -8.099976l-8.829926 8.099976l-6.8905487 -7.51149l8.181 -7.5046997z" fill-rule="evenodd"/><path stroke="#85200c" stroke-width="1.0" stroke-linejoin="round" stroke-linecap="butt" d="m137.74934 192.54517l6.8905487 -7.51149l8.829926 8.099991l8.829926 -8.099991l6.8905334 7.51149l-8.1809845 7.5046997l8.1809845 7.5046997l-6.8905334 7.51149l-8.829926 -8.099976l-8.829926 8.099976l-6.8905487 -7.51149l8.181 -7.5046997z" fill-rule="evenodd"/></g></svg>